<svg xmlns="http://www.w3.org/2000/svg" viewBox="0 0 595.8 161.55"><defs><style>.a{fill:#ed1c24;}.b{fill:#231f20;}.c,.d{fill:#008641;}.d{isolation:isolate;}</style></defs><title>compensa</title><rect class="a" y="98.3" width="595.62" height="9.08"/><path class="b" d="M74.05,202.73H70.14L59.19,170.84h5.23L72.1,194l7.66-23.21h5.32Z" transform="translate(-59.08 -41.47)"/><path class="b" d="M89.82,202.73V170.84h5v31.89Z" transform="translate(-59.08 -41.47)"/><path class="b" d="M103.69,202.73V170.84H125v4.34H108.75v9.31h13.82v4.3H108.75v9.59H125v4.34Z" transform="translate(-59.08 -41.47)"/><path class="b" d="M152.46,202.73l-15.38-22.44v22.44H132V170.84h4.64L152,193.24v-22.4h5.06v31.89Z" transform="translate(-59.08 -41.47)"/><path class="b" d="M186.36,202.73,171,180.29v22.44h-5.05V170.84h4.63l15.38,22.4v-22.4H191v31.89Z" transform="translate(-59.08 -41.47)"/><path class="b" d="M218.94,202.73l-2.3-6.4H203.52l-2.29,6.4h-5.38l12.2-31.89h4.07l12.2,31.89ZM210.2,178,205,192.2h10.24Z" transform="translate(-59.08 -41.47)"/><path class="b" d="M240.55,202.73V170.84h5v31.89Z" transform="translate(-59.08 -41.47)"/><path class="b" d="M274.86,202.73l-15.37-22.44v22.44h-5V170.84h4.63l15.37,22.4v-22.4h5.05v31.89Z" transform="translate(-59.08 -41.47)"/><path class="b" d="M297.16,203c-5,0-8.6-1.13-11.77-4.23l3.36-3.18c2.43,2.34,5.08,3.05,8.5,3.05,4.36,0,6.87-1.8,6.87-4.89a4.17,4.17,0,0,0-1.3-3.32c-.84-.77-1.68-1.08-3.65-1.34l-3.92-.54a11.58,11.58,0,0,1-6.32-2.56,7.75,7.75,0,0,1-2.44-6.08c0-5.55,4.22-9.37,11.14-9.37,4.39,0,7.48,1.07,10.33,3.63l-3.22,3a10.06,10.06,0,0,0-7.24-2.47c-3.94,0-6.09,2.15-6.09,5a3.75,3.75,0,0,0,1.25,3,7.57,7.57,0,0,0,3.74,1.47l3.79.53c3.09.45,4.81,1.18,6.21,2.38a8.18,8.18,0,0,1,2.72,6.56C309.13,199.52,304.12,203,297.16,203Z" transform="translate(-59.08 -41.47)"/><path class="b" d="M327.47,203c-6.78,0-11.93-4.46-11.93-11V170.84h5.07v20.92c0,4.26,2.7,6.91,6.86,6.91s6.9-2.64,6.9-6.91V170.84h5.07V192C339.44,198.56,334.25,203,327.47,203Z" transform="translate(-59.08 -41.47)"/><path class="b" d="M366.12,202.73l-7-13.43h-6.33v13.43h-5V170.84h12.91c6.3,0,10.32,3.88,10.32,9.31a8.44,8.44,0,0,1-6.63,8.46L372,202.73Zm-5.83-27.55h-7.49v10h7.49c3.35,0,5.65-1.84,5.65-5S363.64,175.18,360.29,175.18Z" transform="translate(-59.08 -41.47)"/><path class="b" d="M397.65,202.73l-2.31-6.4H382.21l-2.29,6.4h-5.37l12.2-31.89h4.05L403,202.73ZM388.89,178,383.7,192.2h10.24Z" transform="translate(-59.08 -41.47)"/><path class="b" d="M428.3,202.73l-15.38-22.44v22.44h-5.05V170.84h4.63l15.38,22.4v-22.4h5v31.89Z" transform="translate(-59.08 -41.47)"/><path class="b" d="M452.53,203a12.44,12.44,0,0,1-8.76-3.42c-3.27-3.13-3.21-6.68-3.21-12.81s-.05-9.68,3.21-12.83a13.21,13.21,0,0,1,18.06.37l-3.36,3.27c-1.73-1.65-3.18-2.68-5.94-2.68a6.9,6.9,0,0,0-4.92,1.91c-1.62,1.72-1.94,3.54-1.94,10s.33,8.25,1.94,10a6.82,6.82,0,0,0,4.92,1.92c2.76,0,4.21-1,5.94-2.69l3.36,3.27A12.56,12.56,0,0,1,452.53,203Z" transform="translate(-59.08 -41.47)"/><path class="b" d="M468.75,202.73V170.84H490v4.34H473.79v9.31h13.84v4.3H473.79v9.59H490v4.34Z" transform="translate(-59.08 -41.47)"/><path class="b" d="M528.26,199.34a13,13,0,0,1-17.81.26c-3.27-3.13-3.21-6.68-3.21-12.81s-.06-9.68,3.21-12.83a12.29,12.29,0,0,1,8.76-3.39c4.52,0,7.06,1.34,10,4.2L525.83,178c-2.11-2-3.64-3.13-6.63-3.13a7,7,0,0,0-5,2c-1.63,1.71-2,3.49-2,9.9s.32,8.25,2,10a7.38,7.38,0,0,0,10.28-.32,7.12,7.12,0,0,0,1.64-5.07v-1.74h-7V185.5h12v4.78C531.2,194.41,530.46,197.08,528.26,199.34Z" transform="translate(-59.08 -41.47)"/><path class="b" d="M556.94,202.73l-7-13.43h-6.3v13.43h-5V170.84h12.89c6.32,0,10.33,3.88,10.33,9.31a8.43,8.43,0,0,1-6.63,8.46l7.67,14.11Zm-5.85-27.55h-7.48v10h7.48c3.36,0,5.65-1.84,5.65-5S554.45,175.18,551.09,175.18Z" transform="translate(-59.08 -41.47)"/><path class="b" d="M588.85,199.6a12.94,12.94,0,0,1-17.53,0c-3.27-3.13-3.22-6.68-3.22-12.81s-.05-9.68,3.22-12.83a13,13,0,0,1,17.53,0c3.29,3.15,3.2,6.69,3.2,12.83S592.13,196.47,588.85,199.6ZM585,176.88a7.24,7.24,0,0,0-9.92,0c-1.63,1.71-2,3.49-2,9.9s.33,8.19,2,9.91a7.22,7.22,0,0,0,9.92,0c1.64-1.72,2-3.5,2-9.91S586.67,178.59,585,176.88Z" transform="translate(-59.08 -41.47)"/><path class="b" d="M611.06,203c-6.78,0-11.91-4.46-11.91-11V170.84h5v20.92c0,4.26,2.71,6.91,6.87,6.91S618,196,618,191.76V170.84h5V192C623,198.56,617.85,203,611.06,203Z" transform="translate(-59.08 -41.47)"/><path class="b" d="M644,190.2h-7.57v12.53h-5.05V170.84H644c6.5,0,10.66,4.12,10.66,9.66S650.49,190.2,644,190.2Zm-.29-15h-7.28v10.63h7.28c3.52,0,5.9-1.93,5.9-5.31S647.22,175.18,643.7,175.18Z" transform="translate(-59.08 -41.47)"/><path class="c" d="M90.93,110.55c-13,0-22.12-8.43-22.12-20.48,0-11.76,9.37-20.61,21.8-20.61,6.33,0,12.19,1.74,19,5.67l.78.42V65.84l-.31-.13c-7.75-3.23-13.56-4.59-19.4-4.59-18.05,0-31.18,12.5-31.18,29.66,0,10.86,8.33,28.06,30.7,28.06a41.64,41.64,0,0,0,20.46-4.91l.29-.15v-9.92l-.78.51C104,108.36,97.15,110.55,90.93,110.55Zm55.71-49.42c-17.4,0-30.52,12.43-30.52,28.86,0,14,10.64,28.86,30.34,28.86,20.21,0,30.76-14.5,30.76-28.86C177.22,73.28,164.34,61.13,146.64,61.13Zm0,49.42c-12.11,0-21.24-8.83-21.24-20.56,0-11.93,8.94-20.54,21.24-20.54S168,78.07,168,90C168,101.72,158.79,110.55,146.64,110.55Zm64.64-26.28C210.54,83.34,193,61.85,193,61.85H184.7v56.25h9V75.84c1.36,1.67,16.64,20.65,16.64,20.65h1.8s15.27-19,16.63-20.65v42.27h9V61.85h-8.19S212,83.34,211.28,84.27Zm56-22.41h-18v56.25h9V94.22h7.88c12.12,0,19.36-6,19.36-16C285.57,70.33,280.76,61.85,267.27,61.85ZM267,86.08h-8.63V70h8.94c8.11,0,9,5.53,9,7.94C276.26,83,272.79,86.08,267,86.08Zm34.42,7.74h22.88V85.66H301.38V70h23.7V61.85H292.34v56.25h33.48V110H301.38Zm77,10c-1.69-1.92-37.14-42-37.14-42h-7.12v56.25h8.55V76.42c1.67,1.92,36.65,41.69,36.65,41.69h7.59V61.85h-8.54ZM414.18,85c-5.15-2.9-9.56-5.37-9.56-9.68,0-3.59,3.42-6.07,8.35-6.07,4.5,0,8.8,1.89,12.76,5.6l.83.82V65.24l-.2-.13a23.18,23.18,0,0,0-12.74-4c-10.61,0-17.49,6-17.49,15.25,0,8.39,7.23,12.71,13.61,16.53,5.46,3.24,10.6,6.31,10.6,11.33,0,2.52-2.35,6.47-8.61,6.47-5.37,0-10.32-2.72-14.36-7.83l-.91-1.12v11.73l.17.16a25.63,25.63,0,0,0,16,5.2c9.35,0,16.18-6.53,16.18-15.5C428.81,93.17,421,88.83,414.18,85Zm47.56-23.48h-6.31L431,118.11h9.27s6.79-15.68,7.06-16.28h23.13c.25.58,7.43,16.28,7.43,16.28h9.3ZM450.85,93.71c.53-1.23,6.87-16.39,7.63-18.23.81,1.81,7.67,17,8.23,18.23Z" transform="translate(-59.08 -41.47)"/><path class="d" d="M519.8,117.85l3.15.33,52.49-.31c-17.87-13.07-43.33-31.59-45.12-32.41a18.85,18.85,0,0,0-7.71-1.67,16.76,16.76,0,0,0-16.86,17.06C505.77,110.64,512.73,116.46,519.8,117.85Z" transform="translate(-59.08 -41.47)"/><path class="d" d="M553.7,55.06A17.3,17.3,0,0,0,526.58,69a17.81,17.81,0,0,0,4.8,11.93l2.34,2.1s39.16,28.17,42.59,30.65c-6.71-21.08-16.41-51-17.39-52.74A18,18,0,0,0,553.7,55.06Z" transform="translate(-59.08 -41.47)"/><path class="d" d="M575.58,42.3A16.84,16.84,0,0,0,563.5,58.81a18.37,18.37,0,0,0,.11,2l.65,3.08s14.77,45.92,16.06,49.95c7.12-21,17.09-50.78,17.33-52.76a21.1,21.1,0,0,0,.11-2.3,18.72,18.72,0,0,0-.83-5.56A16.81,16.81,0,0,0,575.58,42.3Z" transform="translate(-59.08 -41.47)"/><path class="d" d="M638,83.8a19.17,19.17,0,0,0-7.87,1.74c-1.61.74-27.08,19.27-44.94,32.34l52.51.31s3.12-.33,3.24-.36a17.17,17.17,0,0,0-3-34Z" transform="translate(-59.08 -41.47)"/><path class="d" d="M634.05,69a17.28,17.28,0,0,0-27.12-14,19.32,19.32,0,0,0-5.32,6c-1,1.76-12.24,36.79-17.32,52.61C592.73,107.63,626.92,83,626.92,83s2.34-2.1,2.41-2.21A17.52,17.52,0,0,0,634.05,69Z" transform="translate(-59.08 -41.47)"/><path class="d" d="M590.77,117.44" transform="translate(-59.08 -41.47)"/></svg>