<svg xmlns="http://www.w3.org/2000/svg" viewBox="0 0 841.04 257.13"><defs><style>.a{fill:#004678;}</style></defs><title>dgt</title><path class="a" d="M472.59,248.59h-93.5L339.48,376.38h90.89c3.94,0,7.8-.12,11.61-.32,42.55-2.42,78.1-18.86,91.86-63.21a100.56,100.56,0,0,0,3.92-17.64v-14c-3.69-25.56-29.37-32.62-65.17-32.62m-5,63C462.41,328.29,455.8,339.11,442,343a47.88,47.88,0,0,1-12.92,1.56h-16l20.57-66.25h15.7C472.2,278.26,474.41,289.61,467.59,311.57Z" transform="translate(-79.48 -121.43)"/><path class="a" d="M697.78,371.62l18.63-60H661.69l-10.58,34.05c-4.13,1.1-9.38,1.1-13.88,1.1-25.47,0-30-15.39-24.53-32.95,7.23-23.25,32-35.52,63.61-35.52,17.84,0,33.71,3.3,41.5,7.3l10.65-34.39c-15-2.94-29.45-4.75-60.59-4.75-53.3,0-106.13,21.4-119.39,64.24-14.13,45.58,23.19,67.9,78.42,67.9,26.15,0,47.48-2,70.89-7" transform="translate(-79.48 -121.43)"/><polyline class="a" points="829.37 164.88 841.04 127.16 664.94 127.16 653.27 164.88 709.4 164.88 681.48 254.95 745.29 254.95 773.21 164.88"/><polyline class="a" points="130.38 256.58 260.58 128.15 130.36 0.09 0 0 130.36 128.65 130.36 128.68 0.14 256.58 130.36 256.58 130.36 256.6 130.36 256.58"/><polyline class="a" points="260.99 120 200.07 59.91 234.59 26.18 260.85 26.18"/><polyline class="a" points="267.41 33.03 267.41 52.16 293.44 59.28"/><text x="-79.48" y="-121.43"></text></svg>