<svg xmlns="http://www.w3.org/2000/svg" viewBox="0 0 846.16 270.78"><defs><style>.a{fill:#e74c3c;}.b{fill:#21262c;}.c{fill:#98c301;}.d{fill:#f39c13;}.e{fill:#9b59b6;}.f{fill:#fff;}.g{fill:#5e8b99;}</style></defs><title>funbridge</title><path class="a" d="M575.78,102.86c-1-4.44-5.05-7.21-9-6.07l-34.2,9.77c-3.47,1.48-5.48,5.67-4.54,9.8l2.83,12.42-39.93,11.46c-3.53,1-5.8,4.7-5.55,8.63a9.2,9.2,0,0,0,.2,1.47L505,235.45H606Z" transform="translate(-77.22 -96.53)"/><path class="b" d="M85.81,308.74h61.63v7.8H85.81V365H77.55V257.81h72v8.26H85.81Z" transform="translate(-77.22 -96.53)"/><path class="b" d="M249.77,257.81v66.53c0,56-82,56.13-82,0V257.81h8.11v66.53c0,46,65.76,45.88,65.76,0V257.81Z" transform="translate(-77.22 -96.53)"/><path class="b" d="M275.94,257.81l72,88.55V257.81h8.11V364.87h-3.21l-72.18-88.4v88.4h-8.26V257.81Z" transform="translate(-77.22 -96.53)"/><path class="b" d="M464.67,288.86c0,8.26-4,16.21-13.92,20.64,12.54,3.83,17.13,17.13,17.13,23.86,0,23.86-17.89,31.5-40.07,31.5H377V257.81h50.77C448.92,257.81,464.67,267.3,464.67,288.86Zm-67.75,11.93h30.89c12.69,0,16.82-5.35,16.82-11.47,0-4.89-4-13.15-16.82-13.15H396.92Zm0,45.27h30.89c8.26,0,20-2.75,20-12.85,0-9.63-11.77-14.68-20-14.68H396.92Z" transform="translate(-77.22 -96.53)"/><path class="b" d="M577.09,364.87h-24l-31.2-35.79H502.46v35.79H482.27V257.66c17,0,34,.15,50.93.15,25.23.15,38.53,17,38.53,35.48,0,14.68-6.73,29.52-27.07,33.64l32.42,36.55Zm-74.63-88.24v34.26H533.2c12.84,0,18.35-8.56,18.35-17.13s-5.66-17.13-18.35-17.13Z" transform="translate(-77.22 -96.53)"/><path class="b" d="M585.52,364.87V257.81h20V364.87Z" transform="translate(-77.22 -96.53)"/><path class="b" d="M718.73,310.42c.46,27.07-16.06,54.44-53.53,54.44H623.15V257.81H665.2C701.91,257.81,718.27,284,718.73,310.42Zm-75.55,35h22c24.32,0,34-17.74,33.49-35.17-.46-16.67-10.24-33.34-33.49-33.34h-22Z" transform="translate(-77.22 -96.53)"/><path class="b" d="M811.58,284c-7.19-6.88-17.89-10.71-27.22-10.71-22.94,0-36.86,17.43-36.86,39.46,0,17.59,10.25,35.79,36.86,35.79,8.41,0,15.75-1.84,24.17-8.57V321H781.14v-18H827V348c-10.55,12.08-23.85,19.27-42.67,19.27-40.22,0-56.59-26.46-56.59-54.6,0-30.13,18.81-58,56.59-58a56.55,56.55,0,0,1,39.76,16.36Z" transform="translate(-77.22 -96.53)"/><path class="b" d="M923.39,364.87H843.25V257.81h80.14v19.58h-60.1V302h58v18.81h-58V345h60.1Z" transform="translate(-77.22 -96.53)"/><path class="c" d="M201.77,138.84l-72.18-28.53c-3.06-.92-8.21,1.21-9.17,3.35-2.65.42-43.2,121.78-43.2,121.78H178.56l28-87.42A7.31,7.31,0,0,0,201.77,138.84Z" transform="translate(-77.22 -96.53)"/><path class="d" d="M303.19,130.42c-.17-.75-8-3.51-7.93-4.23l-44.67-21.82a7.31,7.31,0,0,0-9.78,3.36L178.56,235.45H285.85l23.09-47.27Z" transform="translate(-77.22 -96.53)"/><path class="e" d="M389.52,107.06a7.32,7.32,0,0,0-8.75-5.52L300.9,119.65a7.45,7.45,0,0,0-5.51,8.75l13.55,59.78,10.71,47.27h57.57l5.19-1.46,23.71-53.69Z" transform="translate(-77.22 -96.53)"/><path class="f" d="M331.63,186.25a181.45,181.45,0,0,0,18.7-36.5A181.46,181.46,0,0,0,384,173.16a181.61,181.61,0,0,0-18.7,36.5A181.18,181.18,0,0,0,331.63,186.25Z" transform="translate(-77.22 -96.53)"/><path class="f" d="M168.91,192.66A166.54,166.54,0,0,1,158.62,158a166.19,166.19,0,0,1-33.52,13.45,14.89,14.89,0,0,0-4,26.25,15.11,15.11,0,0,0,14.68,1.6c-6,9.06-12.92,11.23-12.92,11.23l.57,1.59a20.89,20.89,0,0,1,8.25,1.62,20.87,20.87,0,0,1,6.39,5.45l1.6-.54s-2.66-6.86.81-17.25a15.09,15.09,0,0,0,10.43,10.7,14.88,14.88,0,0,0,18-19.48Z" transform="translate(-77.22 -96.53)"/><path class="f" d="M242.94,216.37a173.24,173.24,0,0,1,35-13.63,15.54,15.54,0,1,0-15.24-26.25,15.55,15.55,0,1,0-30.13,3.73A173.26,173.26,0,0,1,242.94,216.37Z" transform="translate(-77.22 -96.53)"/><polygon class="f" points="495.82 111.56 474.75 94.06 485.29 68.77 479.2 66.24 469.45 89.66 449.94 73.45 445.73 78.52 466.8 96.02 456.27 121.3 462.35 123.83 472.1 100.42 491.61 116.63 495.82 111.56"/><polygon class="f" points="489.67 24.97 482.01 18.6 485.85 9.41 483.63 8.49 480.09 17 472.99 11.11 471.46 12.95 479.12 19.32 475.29 28.51 477.51 29.43 481.05 20.92 488.14 26.81 489.67 24.97"/><path class="g" d="M514.28,160.51a7.3,7.3,0,0,0-3.81-9.61l-69-35.48c-3-1.22-8.29.4-9.46,2.43C429.31,118,377,235.45,377,235.45H481.91Z" transform="translate(-77.22 -96.53)"/><path class="f" d="M469,195.11c-5-2.57-10.24.29-14.12.46a11.08,11.08,0,0,1-4.68-.76l.19-.36h0l0-.09,1-2a10.42,10.42,0,0,1,3.12-3c3.26-2,9.26-2.67,11.78-7.56s2.17-11-4.3-14.3-11.61-.1-14.14,4.79.45,10.14.68,14a10.36,10.36,0,0,1-.63,4.27c-.11.21-.57,1.08-1.25,2.38a10.84,10.84,0,0,1-3.32-3.29c-2.11-3.25-2.83-9.2-7.81-11.77s-11.11-2.31-14.38,4.05.07,11.5,5,14.06,10.25-.3,14.12-.47a11,11,0,0,1,4.59.78c-1.25,2.39-2.68,5.14-4.06,7.83-3.32,6.45-15.93,7.69-15.93,7.69l22.52,11.61s-6.43-11-3.11-17.46c1.39-2.7,2.85-5.51,4.1-7.91a11,11,0,0,1,3.37,3.35c2.11,3.25,2.82,9.21,7.81,11.78s11.1,2.32,14.38-4S474,197.67,469,195.11Z" transform="translate(-77.22 -96.53)"/></svg>