<svg xmlns="http://www.w3.org/2000/svg" viewBox="0 0 96.25 38.5"><defs><style>.a{fill:#414042;}.b{fill:#231f20;}.c{fill:none;}</style></defs><title>galeria</title><path class="a" d="M18.91,12.82h-.32v2.69H17.36V9.21h1.23V12l.29-.13,1.74-2.66H22l-1.84,2.65-.49.34.5.35,2.1,3H20.78Z"/><path class="a" d="M22.7,11.27a3.83,3.83,0,0,1,.85-.26,5.51,5.51,0,0,1,1-.09,2.36,2.36,0,0,1,.78.11,1.13,1.13,0,0,1,.76.81,2.54,2.54,0,0,1,.08.65q0,.4,0,.8t0,.79q0,.39,0,.75a2.82,2.82,0,0,0,.14.69h-1l-.19-.62h0a1.61,1.61,0,0,1-.5.48,1.52,1.52,0,0,1-.82.2,1.61,1.61,0,0,1-.57-.09,1.21,1.21,0,0,1-.71-.68,1.38,1.38,0,0,1-.1-.54,1.25,1.25,0,0,1,.18-.7,1.33,1.33,0,0,1,.53-.46,2.63,2.63,0,0,1,.83-.24,5.87,5.87,0,0,1,1.08,0A1.17,1.17,0,0,0,25,12.1q-.13-.22-.6-.22a4.12,4.12,0,0,0-.74.07,2.74,2.74,0,0,0-.64.19Zm1.49,3.35a.9.9,0,0,0,.56-.16,1.1,1.1,0,0,0,.31-.34v-.58a3.24,3.24,0,0,0-.54,0,2,2,0,0,0-.45.08.77.77,0,0,0-.32.18.4.4,0,0,0-.12.3.51.51,0,0,0,.15.39A.58.58,0,0,0,24.19,14.62Z"/><path class="a" d="M27.19,11H28l.13.54h0a1.49,1.49,0,0,1,.55-.5,1.71,1.71,0,0,1,.78-.16,1.52,1.52,0,0,1,1.27.54,2.79,2.79,0,0,1,.42,1.72,3.72,3.72,0,0,1-.13,1,2.19,2.19,0,0,1-.4.79,1.75,1.75,0,0,1-.65.5,2.13,2.13,0,0,1-.88.17,2.16,2.16,0,0,1-.46,0,1.56,1.56,0,0,1-.36-.13v1.84H27.19Zm2,.86a.78.78,0,0,0-.54.17,1.11,1.11,0,0,0-.3.51v1.87a1.07,1.07,0,0,0,.27.16,1.09,1.09,0,0,0,.39.06.87.87,0,0,0,.76-.36A2.09,2.09,0,0,0,30,13.12a1.77,1.77,0,0,0-.2-.92A.69.69,0,0,0,29.2,11.88Z"/><path class="a" d="M32,9.74a.59.59,0,0,1,.19-.45.75.75,0,0,1,.54-.18.81.81,0,0,1,.55.18.57.57,0,0,1,.21.45.55.55,0,0,1-.21.44.84.84,0,0,1-.55.18.77.77,0,0,1-.54-.18A.57.57,0,0,1,32,9.74ZM32.15,11h1.17v4.5H32.15Z"/><path class="a" d="M34,11h.62v-.85l1.17-.33V11h1.1v1H35.8v1.73a1.71,1.71,0,0,0,.09.67.36.36,0,0,0,.36.2,1.19,1.19,0,0,0,.31,0l.29-.11.21.9a3,3,0,0,1-.57.2,2.69,2.69,0,0,1-.66.08,1.18,1.18,0,0,1-.91-.32,1.53,1.53,0,0,1-.29-1V12H34Z"/><path class="a" d="M37.59,11.27a3.83,3.83,0,0,1,.85-.26,5.51,5.51,0,0,1,1-.09,2.36,2.36,0,0,1,.78.11,1.13,1.13,0,0,1,.76.81,2.54,2.54,0,0,1,.08.65q0,.4,0,.8t0,.79q0,.39,0,.75a2.82,2.82,0,0,0,.14.69h-1l-.19-.62h0a1.61,1.61,0,0,1-.5.48,1.52,1.52,0,0,1-.82.2,1.61,1.61,0,0,1-.57-.09,1.21,1.21,0,0,1-.71-.68,1.38,1.38,0,0,1-.1-.54,1.25,1.25,0,0,1,.18-.7,1.33,1.33,0,0,1,.53-.46,2.63,2.63,0,0,1,.83-.24,5.87,5.87,0,0,1,1.08,0,1.17,1.17,0,0,0-.07-.72q-.13-.22-.6-.22a4.12,4.12,0,0,0-.74.07,2.74,2.74,0,0,0-.64.19Zm1.49,3.35a.9.9,0,0,0,.56-.16,1.1,1.1,0,0,0,.31-.34v-.58a3.24,3.24,0,0,0-.54,0,2,2,0,0,0-.45.08.77.77,0,0,0-.32.18.4.4,0,0,0-.12.3.51.51,0,0,0,.15.39A.58.58,0,0,0,39.07,14.62Z"/><path class="a" d="M44.83,15.51V13a1.51,1.51,0,0,0-.16-.79.59.59,0,0,0-.54-.24.84.84,0,0,0-.56.19,1.07,1.07,0,0,0-.33.48v2.92H42.08V11H43l.14.59h0a1.94,1.94,0,0,1,.55-.5,1.63,1.63,0,0,1,.88-.22,1.83,1.83,0,0,1,.59.09,1,1,0,0,1,.44.3,1.35,1.35,0,0,1,.27.56,3.66,3.66,0,0,1,.09.88v2.8Z"/><path class="a" d="M53.09,13.93q0,.38,0,.76a6.34,6.34,0,0,0,.08.84h-.84l-.16-.58h0a1.36,1.36,0,0,1-.52.51,1.58,1.58,0,0,1-.8.19,1.62,1.62,0,0,1-1.31-.56A2.69,2.69,0,0,1,49,13.33a2.76,2.76,0,0,1,.52-1.79,1.86,1.86,0,0,1,1.53-.64,2.75,2.75,0,0,1,.46,0,1.86,1.86,0,0,1,.36.1V9.21h1.17Zm-2,.72a.81.81,0,0,0,.54-.17.9.9,0,0,0,.28-.48V12.09a.89.89,0,0,0-.28-.15,1.31,1.31,0,0,0-.4,0,.87.87,0,0,0-.74.33,2,2,0,0,0-.25,1.14,1.84,1.84,0,0,0,.2.93A.69.69,0,0,0,51.1,14.65Z"/><path class="a" d="M56.6,12.11a1.53,1.53,0,0,0-.5-.1.83.83,0,0,0-.53.17.8.8,0,0,0-.28.43v2.91H54.11V11H55l.14.59h0a1.23,1.23,0,0,1,.41-.51,1.05,1.05,0,0,1,.61-.18,1.7,1.7,0,0,1,.53.1Z"/><path class="a" d="M58.4,11v2.56a1.78,1.78,0,0,0,.13.79.52.52,0,0,0,.51.24.8.8,0,0,0,.55-.2,1.22,1.22,0,0,0,.33-.49V11h1.17v3.13a7.07,7.07,0,0,0,0,.72,4.42,4.42,0,0,0,.11.64h-.88l-.21-.67h0a1.68,1.68,0,0,1-.58.57,1.65,1.65,0,0,1-.87.23,1.94,1.94,0,0,1-.61-.09,1,1,0,0,1-.45-.3,1.38,1.38,0,0,1-.27-.56,3.46,3.46,0,0,1-.09-.88V11Z"/><path class="a" d="M61.88,14.52l1.77-2.13.46-.39H61.88V11h3.53v1l-1.76,2.17-.45.35h2.21v1H61.88ZM63,9.74a.59.59,0,0,1,.19-.45.74.74,0,0,1,.54-.18.81.81,0,0,1,.55.18.57.57,0,0,1,.21.45.55.55,0,0,1-.21.44.84.84,0,0,1-.55.18.77.77,0,0,1-.54-.18A.56.56,0,0,1,63,9.74Z"/><path class="a" d="M67.87,13.54l.16.7h.05l.12-.71L68.89,11H70.1l-1.37,4.06q-.17.5-.33.92a4.22,4.22,0,0,1-.35.72,1.64,1.64,0,0,1-.42.47.9.9,0,0,1-.54.17,1.56,1.56,0,0,1-.75-.15l.22-.94a.72.72,0,0,0,.27.05.59.59,0,0,0,.4-.18,1.19,1.19,0,0,0,.29-.63L65.64,11H67Z"/><path class="a" d="M73.29,15.51V13a1.5,1.5,0,0,0-.16-.79.59.59,0,0,0-.54-.24.84.84,0,0,0-.56.19,1.07,1.07,0,0,0-.33.48v2.92H70.54V11h.93l.14.59h0a1.94,1.94,0,0,1,.55-.5,1.63,1.63,0,0,1,.88-.22,1.84,1.84,0,0,1,.59.09,1,1,0,0,1,.44.3,1.35,1.35,0,0,1,.27.56,3.66,3.66,0,0,1,.09.88v2.8Z"/><path class="a" d="M77.08,13.54l.16.7h.05l.12-.71L78.1,11H79.3l-1.37,4.06q-.17.5-.33.92a4.22,4.22,0,0,1-.35.72,1.64,1.64,0,0,1-.42.47.9.9,0,0,1-.54.17,1.55,1.55,0,0,1-.75-.15l.22-.94a.72.72,0,0,0,.27.05.59.59,0,0,0,.4-.18,1.19,1.19,0,0,0,.29-.63L74.85,11h1.4Z"/><path class="b" d="M14.86,23.86h2.61V27a2.63,2.63,0,0,1-1,.51,4.37,4.37,0,0,1-1.15.16,3.61,3.61,0,0,1-1.25-.21,2.56,2.56,0,0,1-1-.66,3.12,3.12,0,0,1-.66-1.13A5,5,0,0,1,12.17,24a4.44,4.44,0,0,1,.29-1.69,3.16,3.16,0,0,1,.75-1.13,2.84,2.84,0,0,1,1-.63,3.67,3.67,0,0,1,1.18-.2,5.48,5.48,0,0,1,1.05.09,4.82,4.82,0,0,1,.73.19l-.28,1.15a2.9,2.9,0,0,0-.56-.16,4.73,4.73,0,0,0-.79-.05,2.32,2.32,0,0,0-.79.13,1.53,1.53,0,0,0-.62.42,2,2,0,0,0-.41.76A3.76,3.76,0,0,0,13.61,24a3.72,3.72,0,0,0,.14,1.09,2.1,2.1,0,0,0,.39.75,1.54,1.54,0,0,0,.58.43,1.83,1.83,0,0,0,.71.14,2,2,0,0,0,.51-.06,1.17,1.17,0,0,0,.42-.19V24.85l-1.51-.16Z"/><path class="b" d="M21.93,26H19.78l-.53,1.55H17.88l2.52-7h1l2.52,7H22.49Zm-1.8-1.1h1.5l-.52-1.56-.21-1.1h0l-.21,1.11Z"/><path class="b" d="M29,27.51H24.53v-7H25.9v5.78H29Z"/><path class="b" d="M29.67,20.51h4.15v1.22H31v1.63h2.53v1.22H31v1.71h2.83v1.22h-4.2Z"/><path class="b" d="M34.89,20.58l.5-.07.53-.06.52,0h.46a5.17,5.17,0,0,1,1,.09,2.63,2.63,0,0,1,.85.31,1.66,1.66,0,0,1,.6.6,1.89,1.89,0,0,1,.23,1,2.29,2.29,0,0,1-.4,1.4,2.06,2.06,0,0,1-1.07.75l.49.31,1.6,2.67H38.57L37,24.77l-.72-.13v2.87H34.89ZM37,21.63h-.42a1.56,1.56,0,0,0-.31,0v2h.58a1.46,1.46,0,0,0,.91-.26,1,1,0,0,0,.34-.86.91.91,0,0,0-.28-.71A1.18,1.18,0,0,0,37,21.63Z"/><path class="b" d="M41,20.51h1.37v7H41Z"/><path class="b" d="M47.21,26H45.06l-.53,1.55H43.16l2.52-7h1l2.52,7H47.77Zm-1.8-1.1h1.5l-.52-1.56-.21-1.1h0l-.21,1.11Z"/><path class="b" d="M53.63,24.52h-.36v3H51.9v-7h1.37v3.1l.32-.14,1.93-3h1.56l-2,2.94-.54.38.56.39,2.33,3.29H55.7Z"/><path class="b" d="M57.84,22.8a4.28,4.28,0,0,1,1-.29,6.13,6.13,0,0,1,1.15-.1,2.62,2.62,0,0,1,.87.13,1.25,1.25,0,0,1,.85.91,2.81,2.81,0,0,1,.08.72q0,.44,0,.89t0,.88q0,.43,0,.83a3.16,3.16,0,0,0,.15.76H60.79l-.21-.69h0a1.77,1.77,0,0,1-.56.54,1.68,1.68,0,0,1-.92.23,1.79,1.79,0,0,1-.63-.1,1.35,1.35,0,0,1-.79-.76,1.54,1.54,0,0,1-.11-.59,1.39,1.39,0,0,1,.21-.77,1.48,1.48,0,0,1,.59-.51,2.94,2.94,0,0,1,.92-.27,6.54,6.54,0,0,1,1.2,0,1.3,1.3,0,0,0-.08-.81q-.15-.24-.67-.24a4.58,4.58,0,0,0-.83.08,3,3,0,0,0-.71.21Zm1.65,3.72a1,1,0,0,0,.62-.17,1.22,1.22,0,0,0,.34-.37v-.65a3.59,3.59,0,0,0-.59,0,2.18,2.18,0,0,0-.51.09.85.85,0,0,0-.35.2.45.45,0,0,0-.13.33.57.57,0,0,0,.17.44A.64.64,0,0,0,59.49,26.52Z"/><path class="b" d="M65.59,23.73a1.69,1.69,0,0,0-.56-.11.92.92,0,0,0-.58.19.89.89,0,0,0-.31.48v3.23h-1.3v-5h1l.15.66h0a1.37,1.37,0,0,1,.46-.57,1.17,1.17,0,0,1,.68-.2,1.89,1.89,0,0,1,.59.11Z"/><path class="b" d="M66.12,22.51h.69v-.94l1.3-.37v1.31h1.22v1.1H68.11v1.92a1.91,1.91,0,0,0,.1.75.39.39,0,0,0,.4.23,1.32,1.32,0,0,0,.34,0l.33-.12.23,1a3.3,3.3,0,0,1-.63.22,3,3,0,0,1-.73.09,1.31,1.31,0,0,1-1-.35,1.7,1.7,0,0,1-.32-1.17V23.61h-.69Z"/><path class="b" d="M71.38,22.51v2.84a2,2,0,0,0,.15.88.58.58,0,0,0,.56.27.89.89,0,0,0,.62-.22,1.35,1.35,0,0,0,.37-.54V22.51h1.3V26q0,.41,0,.81a5,5,0,0,0,.12.71h-1l-.23-.74h0a1.86,1.86,0,0,1-.64.63,1.83,1.83,0,0,1-1,.25,2.15,2.15,0,0,1-.68-.1,1.11,1.11,0,0,1-.5-.33,1.53,1.53,0,0,1-.31-.62,3.85,3.85,0,0,1-.1-1V22.51Z"/><path class="b" d="M75.25,26.41l2-2.37.51-.43H75.25v-1.1h3.92v1.1l-2,2.41-.5.39h2.45v1.1H75.25Z"/><path class="b" d="M81.91,25.32l.18.78h.06l.13-.79.76-2.8h1.34L82.86,27q-.19.56-.37,1a4.64,4.64,0,0,1-.38.8,1.82,1.82,0,0,1-.46.53,1,1,0,0,1-.61.18,1.73,1.73,0,0,1-.83-.17l.24-1a.8.8,0,0,0,.3.06.66.66,0,0,0,.45-.19,1.32,1.32,0,0,0,.33-.71l-2.09-5H81Z"/><rect class="c" width="96.25" height="38.5"/></svg>