<svg xmlns="http://www.w3.org/2000/svg" viewBox="0 0 165.04 80.16"><defs><style>.a{fill:#74706e;}.b{fill:#352c1b;}.c{fill:#f8f8f8;}.d{fill:#f5ca30;}.e{font-size:21px;fill:#1d1d1b;font-family:TimesNewRomanPS-BoldMT, Times New Roman;font-weight:700;letter-spacing:0.55em;}</style></defs><title>kzu</title><path class="a" d="M164.21,56.74c-13.67,2.8-27.63,3.28-41.43,5.11-3.59.48-7.21.73-11.83,1.19V25.67c11.53-1.26,23.84-2.54,36.13-4,4.39-.52,8.91-.24,13.13-1.94h2l-.07,1.07-.92,1.94c-4.4.66-8.78,1.43-13.19,1.95-11.62,1.37-23.26,2.62-34.69,3.9V61.24L162,55.9v-33l1.32-.21.45-.1.44.14Z" transform="translate(-3.23 -19.75)"/><path class="a" d="M54.23,19.75c2.83,6.84,1,14,1.37,21,.27,5.11.05,10.24.05,16.18l-23.2,2.39c-8.24.85-16.47,1.75-24.71,2.55-1.57.15-3.37.7-4.5-1.12v-35c2.28-.35,4.56-.72,6.85-1,13-1.8,26.24-2.14,39.14-5Zm-.38,3.39L5.58,28.09v32.4l48.27-5Z" transform="translate(-3.23 -19.75)"/><path class="a" d="M62.23,19.75c13,2.69,26.24,3.19,39.3,5.13,2.57.38,6.35-1.28,7.49,3l-2.69.68-47.2-5.95.09-2.86Z" transform="translate(-3.23 -19.75)"/><path class="b" d="M59.23,19.75l-.09,2.86-1.71.29-1.21-.17,2-3Z" transform="translate(-3.23 -19.75)"/><path class="a" d="M56.23,22.72l1.21.17c0,10.71,0,21.43,0,32.25L103,60.6c1.64.19,3.42.56,3.7-1.92l1.4,2.47c-.39,1.47-1.43,1.55-2.71,1.4-16.29-2-32.59-3.93-49.21-5.93Z" transform="translate(-3.23 -19.75)"/><path class="b" d="M108.14,61.15l-1.4-2.47-.41-30.12,2.69-.68q0,14.84.06,29.68C109.08,58.81,109.56,60.24,108.14,61.15Z" transform="translate(-3.23 -19.75)"/><path class="c" d="M162,22.92v33l-48.65,5.34V28.6c11.43-1.28,23.07-2.53,34.69-3.9,4.41-.52,8.79-1.29,13.19-1.95Zm-41.79,9.81c.62,1.87,2,.71,3.09.79,2.59,4.85.25,10.13,1.33,15.12L125,50c4.43,7.38,11.19,4.85,17.34,3.75,5.44-1,9.63-3.8,9.66-10.2,0-4.13,0-8.25,0-10.86,1.35-3.23,4.18-2,4.87-4.78l-13.8,1.64c2.08,2,4.29.59,5.68,3.1-1,5.26,2.91,12.16-3,17-3.12,2.55-7.27,3.14-11.42.33V32.51l3.81-.93,1-1.09-1-.53-1.77.15-3.3.47-6.7.59-3.26.45C122.08,31.91,120.61,30.93,120.21,32.73Z" transform="translate(-3.23 -19.75)"/><path class="b" d="M162,22.92l-.77-.17.92-1.94,1.18,1.9Z" transform="translate(-3.23 -19.75)"/><path class="c" d="M53.85,23.14V55.49l-48.27,5V28.09Zm-30,18.1V33.33l5-3.17L10.13,32.31l.07,1.13,4.41.91V53.22l-3.9,1.91L11,56l16.8-1.82.07-1L24.15,52V43.75L33,50.45c.26,1.73-2.32,1.47-1.15,3.4L49,51.77c-7.23-2.69-11.9-8.32-18.23-12.44L47.93,28.05,33.31,29.78l0,1,3.92,1.07Z" transform="translate(-3.23 -19.75)"/><path class="c" d="M106.33,28.55l.41,30.12c-.28,2.48-2.07,2.12-3.7,1.92L57.43,55.15c0-10.82,0-21.54,0-32.25l1.71-.29ZM65.54,52.24,97.33,56l1.31-9c-5.7,8.55-13.28,4.54-21.52,4.54L96.19,31.84,69.25,28.67a15.72,15.72,0,0,0-.68,8.58c4.28-6.55,9.5-5.85,15.07-4.16Z" transform="translate(-3.23 -19.75)"/><path class="b" d="M136.33,30.11,138.1,30q0,.81,0,1.62l-3.81.93V50c4.14,2.81,8.3,2.23,11.42-.33,5.94-4.86,2-11.75,3-17-1.38-2.51-3.6-1.09-5.68-3.1l13.8-1.64c-.7,2.81-3.52,1.55-4.87,4.78,0,2.61,0,6.73,0,10.86,0,6.4-4.22,9.23-9.66,10.2C136.2,54.83,129.44,57.36,125,50l-.38-1.34c-1.07-5,1.26-10.27-1.33-15.12l-3.08-.79c.39-1.8,1.87-.82,2.85-1.11a3.14,3.14,0,0,0,3.26-.45l6.7-.59A3.08,3.08,0,0,0,136.33,30.11Z" transform="translate(-3.23 -19.75)"/><path class="a" d="M136.33,30.11a3.08,3.08,0,0,1-3.3.47Z" transform="translate(-3.23 -19.75)"/><path class="a" d="M120.21,32.73l3.08.79C122.22,33.43,120.83,34.59,120.21,32.73Z" transform="translate(-3.23 -19.75)"/><path class="a" d="M126.32,31.17a3.14,3.14,0,0,1-3.26.45Z" transform="translate(-3.23 -19.75)"/><path class="a" d="M138.12,31.58q0-.81,0-1.62l1,.53Z" transform="translate(-3.23 -19.75)"/><path class="a" d="M124.63,48.63,125,50Z" transform="translate(-3.23 -19.75)"/><path class="b" d="M23.85,41.24,37.26,31.9l-3.92-1.07,0-1,14.62-1.73L30.75,39.33c6.33,4.12,11,9.75,18.23,12.44l-17.1,2.08c-1.17-1.93,1.4-1.67,1.15-3.4l-8.88-6.71V52l3.69,1.15-.07,1L11,56l-.25-.92,3.9-1.91V34.36l-4.41-.91-.07-1.13,18.75-2.15-5,3.17Z" transform="translate(-3.23 -19.75)"/><path class="b" d="M65.54,52.24l18.1-19.15c-5.58-1.68-10.8-2.39-15.07,4.16a15.72,15.72,0,0,1,.68-8.58l26.93,3.17L77.12,51.52c8.24,0,15.83,4,21.52-4.54l-1.31,9Z" transform="translate(-3.23 -19.75)"/><rect class="d" y="51.33" width="159.98" height="28.67"/><text class="e" transform="translate(5.9 73.28)">GDAŃSK</text></svg>