<svg xmlns="http://www.w3.org/2000/svg" viewBox="0 0 896.65 330.94"><defs><style>.a,.c{fill:#231f20;}.b{fill:#ffdf55;}.b,.c,.d{fill-rule:evenodd;}.d{fill:#f15f31;}</style></defs><title>marszalek</title><path class="a" d="M68.93,91.39a7.47,7.47,0,0,1-3.4,6.7q-3.4,2.22-9.14,2.22c-.48,0-.91,0-1.26,0q0,4.29.32,10.36H51.67Q52,105,52,97.19q0-6.76-.3-12.14h2.81L57.07,85c1.42,0,2.63-.06,3.63-.06a9.59,9.59,0,0,1,6,1.72,5.67,5.67,0,0,1,2.23,4.75Zm-3.28,1.14q0-5.05-6.9-5.05a26.87,26.87,0,0,0-3.79.29q.14,3.2.14,10,.68,0,1.69,0,8.86,0,8.86-5.27ZM94,110.63H89.86q0-1.32-2.48-8.27H76q-2.43,6.85-2.44,8.27h-4q0-.72,5.07-12.57t5.07-13h4.56q0,1.16,4.83,12.83T94,110.63ZM86.48,99.79q-4.62-11.54-4.62-12.26h-.22q0,.6-4.78,12.26ZM113.32,85l-.09,2.77q-3.89-.2-8-.2,0,3.77,0,9.57,0,6.41.2,13.45h-3.6q.23-6.7.24-13.45,0-5.72-.12-9.57-2.91,0-8.18.23l.1-2.8Zm23.51,25.59H133q-1.88-5.65-2.75-7.47a6,6,0,0,0-2.5-3,10.25,10.25,0,0,0-4-.53c-1.11,0-2.11,0-3,0q0,6.35.23,10.93h-3.66q.29-6.09.3-13.45,0-6.91-.3-12.14h2.77c.59,0,1.34,0,2.24-.06s1.94-.06,3.11-.06q8.6,0,8.61,5.94,0,4.93-4.84,6.94V98a6,6,0,0,1,3.5,3,89.2,89.2,0,0,1,4,9.63Zm-6-18.44q0-4.68-6.33-4.68a23.21,23.21,0,0,0-3.8.26q.14,3.42.14,9.3c.79,0,1.54,0,2.26,0q7.72,0,7.72-4.91Zm33.3,5.25q0,6.35-3.72,10.15a11.66,11.66,0,0,1-8.59,3.8,11.31,11.31,0,0,1-8.2-3.49q-3.53-3.48-3.53-9.43,0-6.42,3.72-10.19a11.72,11.72,0,0,1,8.59-3.76,11.32,11.32,0,0,1,8.2,3.49q3.53,3.49,3.53,9.43Zm-3.5.46q0-5.07-2.66-7.86a8.28,8.28,0,0,0-6.15-2.78,7.42,7.42,0,0,0-5.74,2.93A11.6,11.6,0,0,0,143.56,98q0,5.09,2.68,7.87a8.29,8.29,0,0,0,6.14,2.78,7.37,7.37,0,0,0,5.73-3,11.69,11.69,0,0,0,2.51-7.8Zm28.87,12.73h-2.75q0-.33-6.45-9.41-6.74-9.54-7.68-12h-.2q.35,4.73.36,8.12,0,6.6.29,13.32h-3.3q.33-6.39.34-13.45T169.76,85h3.77q0,.54,5.94,9,6.21,8.85,7.08,11.52h.19c-.22-3.19-.34-5.91-.34-8.14q0-7.27-.28-12.34h3.36q-.33,5.2-.34,12.14t.34,13.45Zm28.29,0h-4.15q0-1.32-2.48-8.27H199.81q-2.43,6.85-2.44,8.27h-4q0-.72,5.07-12.57t5.07-13h4.56q0,1.16,4.83,12.83t4.84,12.75Zm-7.53-10.85q-4.62-11.54-4.62-12.26h-.22q0,.6-4.78,12.26ZM237.09,85,237,87.82q-3.89-.2-8-.2,0,3.77,0,9.57,0,6.41.2,13.45h-3.6q.23-6.7.24-13.45,0-5.72-.12-9.57-2.91,0-8.18.23l.1-2.8Zm31.71,25.59h-3.73q.19-6.8.19-12.18H253.49q0,4.36.19,12.18H250q.27-7.18.28-13.45,0-6.56-.28-12.14h3.73q-.23,5.62-.24,10.92h11.86q0-4.26-.24-10.92h3.73q-.29,5.46-.29,12.14,0,7.34.29,13.45Zm29.68-13.19q0,6.35-3.72,10.15a11.66,11.66,0,0,1-8.59,3.8,11.31,11.31,0,0,1-8.2-3.49q-3.53-3.48-3.53-9.43,0-6.42,3.72-10.19a11.72,11.72,0,0,1,8.59-3.76A11.32,11.32,0,0,1,295,88q3.53,3.49,3.53,9.43Zm-3.5.46q0-5.07-2.66-7.86a8.28,8.28,0,0,0-6.15-2.78,7.42,7.42,0,0,0-5.74,2.93A11.6,11.6,0,0,0,277.93,98q0,5.09,2.68,7.87a8.29,8.29,0,0,0,6.14,2.78,7.37,7.37,0,0,0,5.73-3A11.69,11.69,0,0,0,295,97.9Zm28.87,12.73h-2.75q0-.33-6.45-9.41-6.74-9.54-7.68-12h-.2q.35,4.73.36,8.12,0,6.6.29,13.32h-3.3q.33-6.39.34-13.45T304.13,85h3.77q0,.54,5.94,9,6.21,8.85,7.08,11.52h.19c-.22-3.19-.34-5.91-.34-8.14q0-7.27-.28-12.34h3.36q-.33,5.2-.34,12.14t.34,13.45Zm29.68-13.19q0,6.35-3.72,10.15a11.66,11.66,0,0,1-8.59,3.8,11.31,11.31,0,0,1-8.2-3.49q-3.53-3.48-3.53-9.43,0-6.42,3.72-10.19a11.72,11.72,0,0,1,8.59-3.76A11.32,11.32,0,0,1,350,88q3.53,3.49,3.53,9.43Zm-3.5.46q0-5.07-2.66-7.86a8.28,8.28,0,0,0-6.15-2.78,7.42,7.42,0,0,0-5.74,2.93A11.6,11.6,0,0,0,333,98q0,5.09,2.68,7.87a8.29,8.29,0,0,0,6.14,2.78,7.37,7.37,0,0,0,5.73-3A11.69,11.69,0,0,0,350,97.9Zm28.51,12.73h-3.79q-1.88-5.65-2.75-7.47a6,6,0,0,0-2.5-3,10.25,10.25,0,0,0-4-.53c-1.11,0-2.11,0-3,0q0,6.35.23,10.93h-3.66q.29-6.09.3-13.45,0-6.91-.3-12.14H362c.59,0,1.34,0,2.24-.06s1.94-.06,3.11-.06q8.6,0,8.61,5.94,0,4.93-4.84,6.94V98a6,6,0,0,1,3.5,3,89.2,89.2,0,0,1,4,9.63Zm-6-18.44q0-4.68-6.33-4.68a23.21,23.21,0,0,0-3.8.26q.14,3.42.14,9.3c.79,0,1.54,0,2.26,0q7.72,0,7.72-4.91Zm33.3,5.25q0,6.35-3.72,10.15a11.66,11.66,0,0,1-8.59,3.8,11.31,11.31,0,0,1-8.2-3.49q-3.53-3.48-3.53-9.43,0-6.42,3.72-10.19a11.72,11.72,0,0,1,8.59-3.76,11.32,11.32,0,0,1,8.2,3.49q3.53,3.49,3.53,9.43Zm-3.5.46q0-5.07-2.66-7.86a8.28,8.28,0,0,0-6.15-2.78,7.42,7.42,0,0,0-5.74,2.93A11.6,11.6,0,0,0,385.29,98q0,5.09,2.68,7.87a8.29,8.29,0,0,0,6.14,2.78,7.37,7.37,0,0,0,5.73-3,11.69,11.69,0,0,0,2.51-7.8ZM443.25,85q0,1.43-4.25,12.85t-4.24,12.73H432.2q0-1.73-3.09-10A89.71,89.71,0,0,1,425.3,89H425a91,91,0,0,1-3.38,11.79q-2.79,8.47-2.79,9.81h-2.56q0-2-4.15-13.43T408,85h3.74q0,.81,3,10.18t3,11.48h.21q0-2.22,3-11.41T424,85h3.44q0,1.27,3.15,10.9t3.14,10.76h.22q0-1.92,2.86-10.9T439.63,85Zm21.93,0q0,.72-2.42,4.24-3.42,5-4.46,6.76-2.42,4.11-2.42,6.25,0,4,.27,8.33h-3.78q.25-4.07.26-8.37,0-2.35-2.26-6.55-1.28-2.33-4.23-6.76c-1.5-2.28-2.26-3.59-2.26-3.91h4q0,.5,3.39,6.26t3.4,7.59h.19q0-1.87,3.23-7.47T461.37,85Zm7.55,9.29a3,3,0,0,1-.77,2,2.72,2.72,0,0,1-2.15.89,2.21,2.21,0,0,1-1.8-.76,2.76,2.76,0,0,1-.64-1.83,2.86,2.86,0,0,1,.79-2,2.81,2.81,0,0,1,2.18-.86,2.19,2.19,0,0,1,1.78.73,2.64,2.64,0,0,1,.62,1.78Zm0,13.4a3,3,0,0,1-.77,2,2.72,2.72,0,0,1-2.15.89,2.21,2.21,0,0,1-1.8-.77,2.76,2.76,0,0,1-.64-1.83,2.86,2.86,0,0,1,.79-2,2.81,2.81,0,0,1,2.18-.86,2.19,2.19,0,0,1,1.78.73,2.64,2.64,0,0,1,.62,1.78Z" transform="translate(-51.67 -84.53)"/><path class="b" d="M52.7,168.3V311.76a137.9,137.9,0,0,0,1.55,17.83c.27,1.71,2.1,10,2.85,12.48,6.71,22.44,21.9,43.69,41,56a102.11,102.11,0,0,0,24.59,11.72,91.55,91.55,0,0,0,30.35,4.68,102.54,102.54,0,0,0,31.2-5,100.28,100.28,0,0,0,22.85-10.93C217.62,391.56,221,388,225,384c17.84-18.33,22.86-34.3,25-42.31.88-3.34,2.14-9.31,2.77-12.13.76-3.41,1.27-15.24,1.26-17.81-.2-47.73,0-95.64,0-143.45Z" transform="translate(-51.67 -84.53)"/><path class="c" d="M142.34,188.87a10.85,10.85,0,0,0-.14-3.74,11.32,11.32,0,0,1,0-2.5,5.93,5.93,0,0,1,6.12-5.28c2.58-.09,4.46,1,6.58,2.48a3.83,3.83,0,0,0,2.1.78c.52-.07,0-.94.71-1.21,1.24-.46,2,1.27,2.12-.26.25-2.41,3.63-3,6.58-2.5a13,13,0,0,1,3.22,1.35c.55.23.64,0,1,.23s2.39,1.56,2.94,2a22.61,22.61,0,0,0,5.61,3.36,50.72,50.72,0,0,0,5,1.73,8.91,8.91,0,0,0,4.59-.22,5.43,5.43,0,0,1-4.1,3c.67,1.09,4.38,1,5.57-.09-.4,2.74-4.91,6.63-7.09,7.22a8.47,8.47,0,0,1-3.85.14,27.51,27.51,0,0,1-.23,7.39,23.56,23.56,0,0,1-2.31,6.79c-2.69,5.08-2.27,7.08-2.82,7.47-.7.5-1-.7-1.47-.67s-.79,1.78-1.56,3.71a42.74,42.74,0,0,0-2.27,10.23c0,.44-.85.18-1.52-.2s-.95-.8-1.23-.54c-.52.49-.67,5.67-.67,6.59,0,.58,0,1.93-.74,2.21s-1.72-1.07-1.84-1.26-.25-.06-.21.28-.61,4.13-.4,4.59c0,0,.47,3.11.16,3.34-2.21,0-3-2.25-3.4-4.46-.29.21-.09,3.59,1.13,4.42.48.32.53,3,.94,3.48.26.3.12-1.8.31-2.89.69.07,1.11.8,1.84.86-.16-1.3-.28-2.59-.43-3.89.37.18.52.06.86-.09,5.23-2.27,7.59-2.87,14.09-3.06.61,0,4,.51,4.33.23s.59-1.54,1.15-2.77a15.76,15.76,0,0,1,3.28-4.93c.83-.89.25-.86.31-1.26a2.44,2.44,0,0,1,.8-1.44c.61-.64-.7-1.57-.92-2.33a10.62,10.62,0,0,1,.25-5,18.17,18.17,0,0,1,3.33-5.25c.28-.35-.2-.74-.14-.85.24-.52.91-1.15.64-1.35-.61-.46-2.24-1-2.24-2.73a9.1,9.1,0,0,1,.21-2.21,20.68,20.68,0,0,1,.74-3c1.95-6,5.47-14.24,5.3-19.76a11,11,0,0,0-.61-3.65c-.25-.49-.92-3.62-3.25-5,6.5-.23,13,5.82,14.09,13.6a14.8,14.8,0,0,0,.12-4.24,3.7,3.7,0,0,1,2.15,1.5,34,34,0,0,0-.21-14.49c4.43,4.79,6.47,8.29,6.82,10.56.71-.34,2-3.58,7.06-3.65,9.62-.14,12.77,15.84,18,24.13,3.09,4.92,4.88,5.58,10.44,6A10.86,10.86,0,0,1,246,216a8.65,8.65,0,0,1-5.82,2c-1.62,0-5.65-1.81-7.92-3.5,0,.37-.08.71-.09,1.07,0,0,1.8,1.44,4.58,3.63,2.57,2,5.78,4.69,9.42,3.28-2.17,2.38-8.61-1-13.39-4.11,3.61,3.72,6,6.26,9,7.72.85.41,4.81,1.34,7.08-.08.24,4.8-4.93,7.87-8.88,8.27-4.93.5-11.15-3.67-13.42-6.37l-.06.86a89.76,89.76,0,0,0,10.05,8.06c5,3.31,5.52,4,8.67,3.86-2.73,1-4.92-.48-8-2.29-3.84-2.28-8.14-5.2-11.65-7.12-.63-.35-.9-.06-.43.37,4.41,4,9,8.48,14.34,11.52s7.81.83,9-.06c-.92,4.44-4.91,8.83-9.19,9-5.83.24-12.4-4.9-15.57-8l-.89.18a160.5,160.5,0,0,0,18.36,14.58A8.33,8.33,0,0,0,245.4,260c-2,.83-5.63-1.16-9.57-3.73-5.4-3.52-11.32-8.06-13.75-9.82,0-.09,0,1.07,0,1.07,6.53,5.74,9.33,8.42,13.35,11.44,5.12,3.84,9.76,5.6,14,4.28-3.17,7.36-10.58,6.73-11.86,6.86-9,.92-14.27-6.81-21.36-10.2a95.73,95.73,0,0,0,23,16.61c-4.38-.38-18.32-10.65-22.49-13.67l.09,1.16a86.24,86.24,0,0,1,11.66,9.54c5.27,4.58,10.57,7,14,7.19-3.55,3.45-7.68,4.77-13.05,4.38s-6.25-.35-24.57-13.31c-.36.17-.59.35-1,.52,7,6.18,16.18,14.46,23.82,17.75-6.88-1.28-18.18-11.12-25.73-17.44-.35,0-.7,0-1-.06a.61.61,0,0,0,.09.52c2.28,2.3,8.35,8.37,14.59,13.51,5.19,4.27,7.06,6.93,13.84,8.14-3.84,4.13-11,4-16.39,2.92-11.71-2.34-19.7-11.5-28.15-19.62l-1.72-.31a1.27,1.27,0,0,0,.15.83c3.66,3.85,8.53,8.65,12.85,12.88a94.2,94.2,0,0,0,9.53,8.43c-4.53-2.11-11-7.52-15.83-12.17a15.78,15.78,0,0,1-3.88,1.38c.27.22.68.59.85.72,4.72,3.46,9.26,10.39,9.62,10.9,0,0-3.56-1.14-10.21-.88a28.76,28.76,0,0,0-12.21,2.88,26.15,26.15,0,0,0-10.61,9.35c-1.8,2.79-4.06,8.76-4.18,12.26,0,.28-.26.62-.15.65s.65-.3.73-.66c.56-2.42.7-6.31,4-11.6a25.23,25.23,0,0,1,10.53-9.53,32.23,32.23,0,0,1,11.87-2.72,48.22,48.22,0,0,1,11.24,1.33,37.26,37.26,0,0,1,11.86,5.06c2.63,1.73,5.72,3.73,9.26,6.31a93.06,93.06,0,0,1,9.74,7.95c1.82,1.88,6.87,7.83,7.75,13.2s2.62,11.91-1.77,16.62a16.7,16.7,0,0,1-7.75,4.22,17.89,17.89,0,0,0,1.2-3.77c3.57-2.19,4.38-3.79,4.72-5.64a18.54,18.54,0,0,0,0-6.18c-1.19-7.55-6.75-16.34-13.07-20.29a20.58,20.58,0,0,1-4.36-2.78c-.46-.38.92,3.61,1,4.8.28,4.33,2.3,8.08,4.72,11.59a7.87,7.87,0,0,0,4.49,3.49,19.05,19.05,0,0,0,5.95.12l.65,3.34c-5.16,1.42-7.08.41-7.33.65s1.57,1.27,2.57,3.8a9.57,9.57,0,0,1,.77,4.8c-1.27,7.91-6.42,10.1-7.87,16-.74,3,0,5.7-.19,6.87a13.56,13.56,0,0,1-2.34,6.6,10.47,10.47,0,0,0-1.43,4.44,12.13,12.13,0,0,1-1-4.65c-1.6,4.78-6,6.77-9.5,5.17,3-.34,4.53-2.23,4.72-5.6a4.4,4.4,0,0,1-2.08,1c1.71-1.34,1.55-3.66,2-6.51a35.33,35.33,0,0,1,1.83-7.16,17.72,17.72,0,0,1,2.79-4.73,25.08,25.08,0,0,1,3.38-3.41,33.52,33.52,0,0,0,4.27-4.08,11.41,11.41,0,0,0,1.57-2.89c.74-3.33-1.67-7.71-5.13-6.79a3.6,3.6,0,0,0-2.73,3.44,5.37,5.37,0,0,0,5.68,6c-1.2,1.23-2.67,2.76-2.67,2.76-4.21.9-7.51-4.52-7.15-8.2.58-6,4.43-7.54,8.6-8.2.55-.09-3.46-1.36-6.41-8.05-3.21-7.28-1.92-12.44-7.13-19-1-1.24-4.19-3-7.24-5.33A36,36,0,0,0,186.58,304a25.05,25.05,0,0,0-14.16,5,22,22,0,0,0-7.78,13.4,30.51,30.51,0,0,1,3.46-7.52,21.56,21.56,0,0,1,4.69-5.35c1.16-.88,5.62-4.43,13.92-4.83a24.54,24.54,0,0,1,12.71,2.88,19.72,19.72,0,0,1,2.38,7.21c.3,2.28.67,10.57.64,11.47a16.59,16.59,0,0,1-1.64,4.43c-.34.6.27,8.21.27,9.63s-.58,7.29-2.52,10.67-6.17,8.14-15.18,7c1,7.57,4.48,8.2,7.18,8.61.28,0,1,3.58,2.5,6,.27.44-4.11,4.8-3.72,6.79s2.28,2,2.57,3.88a10.63,10.63,0,0,1-.15,2.31c-.07.5-.33.41-.36.85-.08,1.32-.34,1.76-.6,1.83s-.25-.29-.48-.52c-.05-.05-.26.31-.34.23s0-.46-.07-.67-.2-.13-.31-.22-.17,2.32-1.19,3.84a20.64,20.64,0,0,1-2.07,2.94c0-1.41-.54-3.24-1.46-3.06,1.17,1.65.15,5.23-3.36,7.37-.64.39,1.06-1.21-1-3.52a8.14,8.14,0,0,1-3.53,3.85,11.17,11.17,0,0,0-2.62,1.4c-1.85,3.83-4.44,6.22-7.5,6-.37,0-.18-.49-.18-.49a7.86,7.86,0,0,0-4.22,4.91c-2-.73-2.4-3.11-1.41-6.91a1.36,1.36,0,0,1-1.2-.67c-2.42,2.68-5.24,3.27-8.83,1.59-2.63,2.94-3.25,4.85-2.4,6-4.23-1.31-5.4-3.83-4.17-7.19a4.73,4.73,0,0,1-1-1.71c-1.69,0-2.77-.36-3.38-1.07-.91.38-1,3.19-.95,6.45-5-3.76-7-7.8-2.66-12.18,0-1.1-1.28-4.32,1.56-5.65,1.17-.55,1.69-.46,3.53-.77a21.92,21.92,0,0,0,3.35-.84l3.3.9s2.73-2.2,5.07-2.15c3.21.07,3.71,3,6.11,3.25,2.84.26,5.06-1.25,6.14-1,1.54-2.84,5.52-10.75,5.71-13.13-1.21.21-1.38.66-3.19-1.48a6.86,6.86,0,0,1-5.14,4c.7-1.63,1.27-3.13.54-4.45-2.08,3.69-4.74,5.4-7.64,5.91.9-1.67,1.16-2.58,1-3.22-4.63,2.8-7.91,1.43-10.59-1.61,6.62.7,9.43-2.78,9.71-8.64-1.82,1-4.35,3.1-5.83,2.73-1.86-.46-4.56-2.63-6.18-3.69-.79-.52-1.34,1.24-2.07,1.92a3.42,3.42,0,0,1,3.38-3.26c1.66,0,2.21,1.3,3.26.92A7.71,7.71,0,0,0,153,359c.39-2.27-1.19-7.64-1.46-8.83s-1.77-7.29-1.3-11.13a27,27,0,0,1,1.57-7.1,18.43,18.43,0,0,1-4.52.91c-3,.49-4.41.65-5.88.93s-6,.77-6.79,1.88c-1.69,2.48-3.24,6.59-2,9.59.47,1.09,2,1.61,2.76,3s.81,2.92-.38,6.14-1,3.38-1.27,3.61-.66-.65-.84-.19-2.13,1.25-2.34,1.42a2.27,2.27,0,0,0-.08,2.11,5,5,0,0,1,.15,2.19c.06,1-.65,3.26-2.09,3.67a20.74,20.74,0,0,0-3.43,1.78,5,5,0,0,0,.42-5.3c-.06-.74.18-1.52-.19-2.23a3.17,3.17,0,0,0-.39,2c.85,3.15-1.11,7.48-4.45,8a3.53,3.53,0,0,0,1.38-2.07c-.18-1.36-1.63-2.06-2.3-3.19a2.9,2.9,0,0,1-.58-1.73c-1.16,2.34-2.78,3.78-5.07,3.88-.12.42-.61.84-1.34,1.27-.12-.25,0-.64-.18-.81-.5-.39-1-.7-1-1.57,0-1.15,3-3.22,2.84-6-1.6,2.2-3.49,4-6.22,4.53a5.34,5.34,0,0,0-1.54,1.11,4.8,4.8,0,0,0,.61-1.46c-.25-1.59.47-3.17,1.15-4.76-1.92,0-6.67-.12-7.37.72s-3.06,4.63-4.68,5.19-6-1.19-6-1.19a10.33,10.33,0,0,0-2.53,4.76c-2.13-.91-2.77-3.44-1.73-7.83a1.61,1.61,0,0,1-1-.23c-2.95,1.6-5,1.17-6.6-.19-1.28.55-2.45,3.62-3,6.52-3.23-3.95-2.65-8-.35-11.82a1.2,1.2,0,0,0-1.5-1.07c-.11-1-.34-1.72-1-1.5-1-.32-3.81,2.31-4.45,3.84-1.78-2.62-1.64-5.52.36-8.65-.24,0-.32-3.65,2.53-6a6.58,6.58,0,0,1,6.1-1.57c.84.15,3,.72,3.68.84s5-1.6,7.29-.88c1.88.58,2.48,3.87,7.06,5.49.4.14.62.83,1,.84,3.83.1,11.65.1,15,1.07.75.22,4.56-3.46,4.61-4.34s-1.8-3.9-2.34-5.95a10.29,10.29,0,0,1-5.56-.42,5.35,5.35,0,0,0,3.45-5.6c-.4.1-5.84,4.34-6.37.92-.08-.5.12-1.14-.08-1.11-.52.08-4,5.93-9-1.92-1.41-2.21.38-6.43-3-4.87-2,.89,3.53-3.37,4.72.81.31,1.07-.19,1.19.46,1.46a7.43,7.43,0,0,0,4-.12,7.16,7.16,0,0,0,3.07-6.83c-.06-.22-.27,0-.5.23s-.15.84-1.54.84a6.85,6.85,0,0,1-4-1.3,4.07,4.07,0,0,1-1.34-2.42c0-.42.06-.94.5-.69,1.34.76,2.86,1.71,5.6-.61.49-.41.86-2.37,1.5-3.49s4.62-6.24,13.32-7.94c3.91-.77,10.47.17,12.93,0,11.55-.61,19.92-1.73,21.76-1.8a24.7,24.7,0,0,0-8.83-3.34,61.39,61.39,0,0,1-15.24-2.69c-5.44-2.23-10.13-4.12-13.85-5.19-1.09-.31-10.05-4.69-11.13-9.24a3.43,3.43,0,0,1-1.73-.88,5.54,5.54,0,0,1-5.3-.23c-1.25-.29-7.48-.5-8,.38s-1,1.39-.42,4.84C89,288.48,88,289,88,289c-1.08.28.27,1.92.42,2.46.32,1.15-.81.77-.27,2.49a2.26,2.26,0,0,1-.37,1.68c-.23.53-.13,1-1,1.58-1,.78-1.43.42-1.62.76-.3.53-3.07,1.17-3.42.81-4.42,2.14-9.26,1.48-11.13-2.26,1.87.6,5.75.94,6.68-.46-1.3-1.37-1.51-4.85.6-6a5.71,5.71,0,0,0,2.81-3c.1-.48.88-.58,1-.84s1.3-2.42,0-2.84c-.65-.22.19.73-1.23,1.3a7.5,7.5,0,0,1-3.11.35c-.19,0-.81,1.07-2,1.27a15.15,15.15,0,0,1-2.11.19s-.8,1.53-3.49,1.38c-.05,1.7-4.13,6.34-7.06,2.57-2.75.93-6.21.36-7-4.84,2.83,4.22,5.14,1.83,4.65-1.36a8.24,8.24,0,0,1,1-3.56c.48-1.86,4.5-1.64,5.18-.81,1.38-.55,2.63-.79,3.3.31a3.09,3.09,0,0,1,4.34-.42,3.2,3.2,0,0,1,4-.46s2.59-.49,4.57-.77a14.78,14.78,0,0,1,4.3,0,3.81,3.81,0,0,0,2.8-.54c.46-.42-1,0-1.57,0-2.28,0-4.28-.71-6.51.2a3.13,3.13,0,0,1-3.28-.51,3.34,3.34,0,0,1-4-.69c-1.6.85-3.14.14-4.53-1.27-1.42.4-2.38,1.14-3.36,1a10.71,10.71,0,0,1-5.22-2.17c-.73-.57-.75-1.81-.93-3s-2-1.06-2.48-.94S55.12,272,55.12,272a9,9,0,0,1,6.14-5.45c2.68-2,5.1-1.49,7.37.61,1.58,0,2.69.3,2.84,1a2.66,2.66,0,0,1,2.69.84c-.42-.92-1.07-1.42-1.23-2.15-.88.08-1.77-.53-2.65-1.57-5.11-.76-4.81-3.23-5-5.56-3.2-2-5.16-1.44-6.52.42-.18-2.65,7.3-5.61,9.9-3.15,4.53-3,7.14-1.1,8.29,4.57a6.36,6.36,0,0,1,2.15,3.65c1.29,1.05,2.73,2.08,2.65,3.34,1.31.21,2.41.39,3,3.06.82.86,2.93,2.38,6.83,2.35s3.9.12,3.9.12a8.66,8.66,0,0,1,5.95-.58,10.08,10.08,0,0,1-.42-3,14.6,14.6,0,0,1-3.68,0A2.37,2.37,0,0,0,95.75,272c-.75-3,1.79-3.58,3.15-4.34a6.52,6.52,0,0,0,2.42-3.88c-.05-2.25-5.33-13-10.17-13.66,1-2.14,2.87-3.27,6-3-.17-1.35-1.71-1.18-2.45-2.81s-.75-4.29-.51-6.56c-2.5-1-3.42-4.94-3.11-8.21C89,227.4,88.16,223.26,86.51,219c-.29-.74-1.39-.91-2.19-1-.36,0-.51.51-.77.77a2.45,2.45,0,0,1-2.15,2.53,3.09,3.09,0,0,1-1.69,3.22c.48,4.78-5.49,7.15-9.36,4.26-5.1.45-7.43-.25-8.56-4.22,1.32,1.08,2.88,1.84,6.26.35.12-4.11,2.72-5.47,6.83-5.18.12-.66.56-.81,1.19-.65.08-.51.53-.64,1.23-.54a8.75,8.75,0,0,1,3.65-3.68c-.49-.48-.74-.39-1.07-.88-1.46.31-2.57.1-3.11-.92a4,4,0,0,1-3.57-.15c-1.95,2.58-7.06,2.81-7.6-1.38,0,0-.5-.58-1-.58-4.4.05-6.72-.89-7.94-5.76,1.59,2,3.84,3,7.48,1.54-1.4-4.53,3.59-6,6.79-4.57a5.83,5.83,0,0,1,2.53,2.23c1.75-.27,3.46-.31,4.8,2.3a4,4,0,0,1,2.42,1.27c4.29.33,5.24,4.86,7.45,5.37-1.55-1.74-3.71-4.13-4.34-5-3-.49-4.09-1.65-4.41-2.76a3.23,3.23,0,0,1-2.15-2.92,3.53,3.53,0,0,1-2.46-2.92c-4.47,1.74-6.39-1.75-6-4.91a3.87,3.87,0,0,0-.42-2.5c-2.86-2-5-.69-7.14.58,3.7-4.68,7.09-6.28,10.17-4.72,2.78-2.59,5.16-2.14,7.09.66,1.13,1.63,1.08,4.16,2.39,5.94,1.42,1.21,2.48,2.61,2.26,4.64,1.16.22,2.17,1,2.61,3.53,2.3.52,3.78,9.6,6.14,13.51-1.2-3.52-2.37-8.35-3.91-12.09a4.28,4.28,0,0,1-.81-3.8c-1.31-.77-1.82-2.18-1.5-4.49-3-1.48-4-4-1.8-7.71a1.55,1.55,0,0,1,.19-.88c.78-3.08-4.18-3.85-5.53-2.38,1.19-3.05,7.67-3.69,9.67.27,1.71-.49,4.27-.06,4.59.77.59,1.53,1.49,2.59,2.05,4,.24.63.19,2-.88,4.22a6.24,6.24,0,0,1,.27,6.52,5.77,5.77,0,0,1,.27,5,2.05,2.05,0,0,0-.09,1.15c.23,1.31.41,4.39.6,6.94a5.54,5.54,0,0,0,1.1,2.5,1.73,1.73,0,0,0,0,1,18.53,18.53,0,0,1,2.65,6.87c2.2,1.51,3.92,3.87,4.49,8.25,3.74,1.64,2.88,6,3.76,6.74h0A13.68,13.68,0,0,0,106,245a17.72,17.72,0,0,0-6.18-2.74c-1.17,1.13-1.39,2.92-.61,5.43-3.38-.21-5,.24-5.26,1.21,2.11-.29,4.19-.58,5.83,0-.36-2.19-.48-4.27.08-5.64.89.08,3.26,1.07,6.91,2.84a16.06,16.06,0,0,1,1.33-7.06h0a5.06,5.06,0,0,1,.91-1.2,5.9,5.9,0,0,0,1.49-2.47c0,2.15.41,4.17,1.46,4.68a19.88,19.88,0,0,0,1.38,2.69c.19,0,1.88-2,2.61-2.61s3.44-2.8,3.88-3.31a4.29,4.29,0,0,1-1.7-2.56c0-.68.54-.41.81-.41,3.88,0,9-5,9.43-6.19-.84-.57-1-.54-1.12-1.08a2.71,2.71,0,0,1,.14-1.62c.2-.24,2.21.11,2.89,0a36.94,36.94,0,0,0,5.87-3.46c.57-.57.91-.56.86-.84s-.54-.59-.41-.82.13-.41.84-.51.78,0,1.18-.2c6-3.71,8.23-9.86,8.74-15.5.27-3-1.33-5.13-4.35-6.4,4.23-2,7.78,1.18,7.78,1.18-.62-3.73-6.38-4.78-11.82-4.3-4.14.36-8,.51-9.5.17a10.09,10.09,0,0,1-8.22-9.6c-.48-7.06,5.56-10.69,9.24-10.52,3.48.17,6.12,2.84,6.06,5.68a5.63,5.63,0,0,1-5.6,5.76c.86,3.86,4.2,4.51,8.87,4.22,8.51-.52,14.93,1.22,17.15,7.71-.71-5.68-3.33-8.57-7.22-9.44.22-1.71-.85-2.67-3.3-2.84-1.45-.1-2.72,1.69-3.15,2.49a3,3,0,0,1-1,1.11ZM85.87,364.43c-.09-.55,1.69-5.95,4.3-5.74,2.82.22,4.66,4.76,1.23,5.74,1.91-1.31,1.17-4.75-1.26-4.73-1.2,0-2.82,1.57-4.27,4.73ZM128,344.9c.21.61.55,1.2.4,1.57s-.27-.3-.31.37,3,4.4,2.92,4.24a.86.86,0,0,1-.61.68c-.23.09-3.7-4-2.39-6.85Zm-3.44,11.45a21.46,21.46,0,0,1,5.16-1.32c-.21-.12.38-1.6.77-2,.08-.4.25-1.47.61-1.5s.31.92.12,1.38-.58,2.76-.58,2.76c.08.45-4.34,1.06-6.08.68Zm-3.81.58a3.06,3.06,0,0,1,2.67-.74,6.41,6.41,0,0,1-2.67.74Zm-2.33,4.7c.34,2.76-2.1,6.06-2.67,5.4-.39-.44,1.57-1.66,2.67-5.4Zm-34.13-2.77c.06-2.15,1.64-4.73,6-5.68a.23.23,0,0,1,.15.22c2-1.21,4.45-.5,6.6.88,1.44.12,6,0,6,0a10.06,10.06,0,0,1-5.55.73c-1,0-1.74-1.18-4.39-1.38-1.46-.11-3.82.64-6.22,2.38a8.89,8.89,0,0,0-2.55,2.88Zm-.14.37c-.24,1.26.93,2.53.4,2.92-1,.72-.83-2.71-.4-2.92Zm2.94-12.36c2.89.61,4.86,0,7,1.15-3.2.62-7.82-.55-7-1.15Zm-8.75-4.49c2.94,2.87,2.4,4.52,8.45,4.72a2.91,2.91,0,0,0,.3-.87c-6.42-.92-4.81-2.42-7.09-3.58a7.5,7.5,0,0,0-1.66-.26Zm-4.72,20.45c.87-6.41,5-8.78,6.56-7.85,1.74,1.06,3,2.49-2.72,6.94,7.77-3.43,4.37-7.49,3.47-8-4.27-2.25-7.77,5.36-7.32,8.86Zm1.32-9c0-4.49,4.68-7.09,10.16-2.28.4.35,1.65-.45,2.53-.53s7.83.09,7.94.36.15.6-.08.57-8.08-.15-8.86.06c-.33.09-1.17.72-1.42.53-4.11-3.18-8.73-3.48-10.28,1.3ZM69,349a4.27,4.27,0,0,1,4-3.58c3.25-.08,2.8,4.38,2.38,4.43s-.31.11-.53.06c-.62-.14.71-6.39-5.81-.91Zm41.77-11.38c-.15-.05,0-.51.16-.46,2.48.56,4.4-2.19,5.68-5.22.05,3.56.27,5.45,1.13,5.76.68.24,6-2.44,7.32-3.79-.36,1.61-6.47,5-7,4.78-1.74,0-1.82-4.55-1.82-4.55-.75,2.27-3.38,4.19-5.45,3.48Zm-3.12-9.78s-.73,4.6.3,4.92c.69.21,2.52-1.29,3.36-1.71a1.82,1.82,0,0,1,.1.25,12.14,12.14,0,0,1,3.11-2.64c-1,1.23-2,2.3-2.56,3.19-.79.51-4,2.42-5.14,2.08-1.55-.67,0-3.57.84-6.09Zm-8.24-7.94a5,5,0,0,0,5.22.72c-.27.45-.42,1.2-1.68,1.2a4,4,0,0,1-3.54-1.92Zm-3.78,7.31c2.5,6.26,5,7.15,8.78,3.54-5.18,7-8.37-.58-8.78-3.54Zm63.21,62.21c-5.11.62-9.77-1.79-10.13-1.3-.81,1.1,8.14,2.7,10.13,1.3Zm-24,10c.24-2.42,2.08-5.23,4.11-5.59,3.13.14,3.69,4.38,4.23,4.21s-.19-4.45-3.87-5.43a.7.7,0,0,0-.9.69c-1.86.79-4.41,4.09-3.56,6.11Zm9.22,1.91c.1-3.72,1-7.12,6-7.22,3.13-.06,6.16,2.61,7.47,5.57.2-2.19-1.84-4.38-2.77-4.86a36.67,36.67,0,0,0,7.68-2.21,34.51,34.51,0,0,0,4.53-1.73c-1.76.11-4.29,1.28-4.76,1.34-2.32.3-5,1.61-6.71,1.72-1.1.07-4.33-1.07-6-.92-4.47.38-6.86,3.93-5.41,8.3Zm2.12-.55c.08.18,2-2.68,4.29-2.14s2.71,1.91,2.77,2.85-1.95,1.42-1.71,1.75,2.38-.77,2.42-1.3-1.1-4-3.28-4.43c-1.7-.29-5,2.15-4.48,3.27Zm16-5c-.35,0-2.77,1.14-2.87,1.55s.14.43,0,.77a7.83,7.83,0,0,0-.61,2.2c0,.67.26,1.61.24,1.83s-.92,1.36-.71,1.59,1.49-.9,1.48-1.06a4.75,4.75,0,0,1,.41-5,5.66,5.66,0,0,1,1.61-1.08c.28-.08.73-.47.45-.77Zm1.46-.31a6.35,6.35,0,0,0,2.69-1,7.69,7.69,0,0,0,2.26-2,32.73,32.73,0,0,1-5,2.93Zm4,9.62a2.82,2.82,0,0,0-.06-4.37c-1.58-1.28-3.66-.87-3.58-.39s2.12-.06,3.11,1c.59.63,1.32,1.59.53,3.76Zm-6.14-1.51c1-1.75,2.62-3,2.24-3.3s-2.18,1.57-2.24,3.3Zm-1.73-3.17c.45-1.24,1.93-2.85,1.3-3.21s-1.34,2.36-1.3,3.21ZM172.18,398a10.19,10.19,0,0,0-5.63-2.5,6.58,6.58,0,0,0-4.39,1c2.36-.56,5-1.07,10,1.46Zm-5.29-3.48c2.46-1.94,2-2.52,4.68-3.6-1.61,1.57-2,2.44-4.68,3.6Zm15.39-4.48c-1.65,3.46-.68,4-1.2,4.72s-.8-2.4,1.2-4.72Zm1.51-1.92s1.63,4.7,1.22,4.87-1.2-4.77-1.22-4.87Zm3.09-5.56c.53,2.23,1.89,3.09,2.09,3.57s.34,1.73,0,2c-.74-2.46-2.71-4.46-2-5.56Zm1.61-3.91c-.22,4.12,2.37,3,2.54,6,1.38-3-2.15-3.1-2.54-6ZM185.71,370a4.07,4.07,0,0,0,1,1.37,5.23,5.23,0,0,1,.1,2.57c-1,2.12-2,2-1.82,3.88a27.78,27.78,0,0,1,2.69-3.33,26,26,0,0,0-.72-3.76c0,.19-1.25-.54-1.27-.72Zm.65-4.63a8.17,8.17,0,0,0,3.74,1.41,3.4,3.4,0,0,1,.5,1.94,4.23,4.23,0,0,0-1.8-1.41c-1.36-.32-2.69-1.21-2.45-1.94ZM182.62,364c.7,1.32,1.32,3.12,2.16,4s2.9,1.92,2.61,2.42-2.83-1.63-3.38-2.42a9.12,9.12,0,0,1-1.39-4Zm1.46-18.2a40.68,40.68,0,0,0-1.61,9.23,15.64,15.64,0,0,0,.77,5.95c-1.16-1.23-2-3.26-1.51-7.22a26.24,26.24,0,0,1,2.35-8ZM168.55,373c.31-.32,1,.83,1.69.91,1.41.18,6.1-2,6.12-6,.91,3.49-3.36,6.54-5.47,7-.95.2-2.6-1.58-2.35-1.85Zm-3.78,2.61c1.3-3.23.35-6.53.6-6.59.73-.17.94,6.23-.6,6.59Zm-4.43-.47c3.58-5.55,1.18-5.83,1.8-6.2s2.19,3.21-1.8,6.2Zm-8,.34c6.15-1.86,6.55-6.68,7.32-6.59.95.1-2.29,7.27-7.32,6.59Zm-2.44-9.58c0-.23.92-.08,2.12-.3s2.33-1.64,4.63-2.72c-.2,2.12-6.45,4.69-6.74,3Zm-17-19.18c3.12,1.12,2.48,6.23,1.81,6.14-.33,0,.31-2.15.12-3.22a5.79,5.79,0,0,1-1.93-2.92Zm38.48-30.25c-5.17,9.58-20.18,5.67-20.56,23.22,2.09-15.92,20-15.33,20.56-23.22Zm-21.21-15c4.37.3,10.8,6,13.68,9.23a1.83,1.83,0,0,0-.41.52c-4.76-4.21-8.87-8.25-13.27-9.75ZM163,267.68c1,1.31,5.31,7.3,10.13,7.36a4.47,4.47,0,0,0-.79-3.14,15.85,15.85,0,0,0,2.91,1.13c-3.52-3.17-4.77-5.57-4.95-7.49,5.35,9.39,13.47,10.14,16.28,10,1.53-1.13-2-4.55-1.68-5s1.36-.08,1.88-.08c-.69-3.58-4.33-6.81-5.42-9.21,2.13,2.09,5.59,5.26,6.52,10.05a1.55,1.55,0,0,1-1.34.21,5.79,5.79,0,0,1,.86,4.5c-2.82.89-6.62,0-11-1.94a4.05,4.05,0,0,1-2.75-.63,7.64,7.64,0,0,1-.05,2.83c-3.85-.17-9.25-4.08-10.58-8.53Zm22-3c5.07,3.9,10.42,6.92,17.17,5.58-.23-1.57-1.41-3.45-2.7-5.37a10.77,10.77,0,0,0,2.67.47c-1.46-5-3.14-6.31-5.65-8.61,4.51,2.66,12.32,7,18.17,5.84-.7-2.45-3.51-6-3.51-6,.82-.1,1.45,0,2.09-.16-1.18-3-3-4.5-6.75-7.28,5.53,2.88,11.13,3.74,14.71,1.13-.42-2.23-3.35-4.85-3-5.29.45-.63,2.12-.26,2.12-.26a69.15,69.15,0,0,0-5.76-4.35c3.76,1.25,7.28,1.71,10.21,1.07a15.12,15.12,0,0,0-3.25-5.65,8.14,8.14,0,0,0,2.38.52,59.25,59.25,0,0,0-6.41-6.13c5-.37,6.83-1,7.28-1.36-.21-1.36-2.26-2.82-2.12-3.17s1.93,1,2.28.47c.45-.68-1.6-2.51-3.42-3.64s-3.39-1.24-3.18-1.86,5,2.33,9.56-.89a20.06,20.06,0,0,0-3.77-4.55,10.6,10.6,0,0,0,3.46-.73c-2-3.56-7.21-1.86-7.3-2.85-.06-.6,4.59-.69,7.89-5.54,0,0-1.8-1.38-2.72-1.18-.39.09-.68,0-.5-.24a3.13,3.13,0,0,1,1.62-1.18c-.49-1.11-4.53-.62-4.58-1-.08-.7,3.81-1.15,6.34.21-.1.69-.69,1.24-1.83,1.65a10.17,10.17,0,0,1,3.09,1.75,19.73,19.73,0,0,1-5.5,4.84c2.46.94,4.31,2.12,4.74,3.9a4.46,4.46,0,0,1-2.3,1.31,15.3,15.3,0,0,1,2.51,3.64c-.49,1.91-5.73,2.85-5.73,2.85s2.84,2.53,2.67,3.72c-.08.58-.32,1.28-1,.68a14.55,14.55,0,0,1,.63,2.23c0,.55-3.19,1.47-6.52,1.73,1.12.43,6.14,4.38,6.23,5.81,0,.54-.81.34-1.44.21.7,1.67,1.78,3.24,2,5a10,10,0,0,1-6.1.63,12.49,12.49,0,0,1,1.88,2.83,7.16,7.16,0,0,0-2.17.24c.45.33,3.07,4.43,2.8,4.92-1.25,2.31-7.83,2.51-10.58,1.44a12.35,12.35,0,0,1,2.72,5.6,3.71,3.71,0,0,1-1.52,0c1.9,1.68,2.51,4.63,2.72,5.68-6.86,1.24-10.74-.77-14.5-2.91.68,1.6,2,5.3,1.44,6.15-.2.29-.63-.05-1.15-.44a.84.84,0,0,0,.05.71,9.22,9.22,0,0,1,1.57,4.27c-5.19,1.56-14.62-1.19-18-6.07-.2-.28,0-.29,0-.27ZM212.51,209c.42-.14,1.41.29,1.69.26,2.17-.26,2.8-2.66,3.82-4.26s4.24-5.48,5-6.34a6.07,6.07,0,0,0,1-2.7c.07-.26-.22-.82-.56-.52a8.7,8.7,0,0,1-2.51.38s1.05-1.5.83-2-2.21,1-3,1.54a9.61,9.61,0,0,0-2.13,2.17,22.35,22.35,0,0,0-1.35,3.37c-.34,1,.11,1.57-.37,2.43a1.82,1.82,0,0,1-2.06,1c-.64-.26-1.3-.63-1-2.4,1.07-1.2,1.5-1.22,2.77-2.52,1-1,1-2,2.81-4.22.72-2.15-.22-4.86-2.28-7.72-.87,2.69-1.34,5-3,7.34-.29.4-.65-1.1-.52-1.57.82-3.07,2.63-6.49-.41-12.47a12.67,12.67,0,0,1,1.39,11.8c.92-1.24,1.62-3.63,2.36-6.1,3.06,2.39,4.07,5.46,3,8.65-.46-.23,4-3.17,4.64-2.7a2.68,2.68,0,0,1,.11,2.4,11,11,0,0,1,2.21-.67c.41.1.13,3.13-.56,3.78a76.28,76.28,0,0,0-6.37,8.2c-.83,3.35-2.92,4.35-5.69,3.78-.79-.16-1.35,1.5-.75,2s2.92-1,3.59-.87,2.47.07,3.3.94,2.06,3.16,1.91,4.12-3.33,3.84-6.14,3.67c-1.19-.07-1-1.42-2.06-1.5-1.58-.12-1.53,2.45-.25,2.51a10.12,10.12,0,0,1,2.69-.15c1.78.23,3.89,2.51,4.34,4.18-.17,1.76-3.18,4.44-5,4.69a3.77,3.77,0,0,1-1.8-.16c-.69-.28-1-1.69-1.61-1.84A1.26,1.26,0,0,0,210,230a13.62,13.62,0,0,0,3.38.15c1-.08,2.46,1.38,2.8,3.07a7.47,7.47,0,0,1,.23,3.45c-1,.73-5,2-6.79,1.61s-1.69-1.38-2.49-1.5c-2.14-.31-2.14,2.3-1,2.46,2.08.27,1.51-.59,3.72-.35s2.57,5,2.42,6.56c-1.61,2.26-6.29,2.49-7.14,2.26-2.3-.77-2.16-2.13-2.8-2.65-1.91-1.56-3,1.35-2.42,1.57a13,13,0,0,1,2.69,1.11c2.68,2,3,5.76,3,5.76-3.74,2.82-8.7,2.65-10.59,1.15-1.3-1-1.29-2.58-2-3.42-1.12-1.32-3.44.39-2.57,1.15.58.5,2.52.5,3.26,1.73a3.54,3.54,0,0,1,.46,2.84,21.15,21.15,0,0,1-2.57,3.72c-2.65,0-8.42-.19-9.17-2-.94-2.2-.32-3.12-.54-4.14-.18-.87-3.06-.83-3,.42.09,1.09,1.66.56,2,1.65,1.3,3.79,0,4.77-2.84,7.22-5.11-1.11-6.68-2-7.48-4.68-.18-.6.54-1.8.35-2.23-.63-1.39-3.27-.57-2.11,1,.55.73,1.23.9,1.61,2.15a5.72,5.72,0,0,1-2,5.68c-2.07.27-6.54-.74-7.37-2.53-.58-1.25-.63-2.94-1.11-3.61-1.41-2-3.17-.21-1.69,1.42.75.82,1.93,1.13,2.57,2.11,1.45,2.23,1,3.48.69,4.34a6.66,6.66,0,0,1-3.8-.38c4.21,7.66,18.32,24.77,31.2,19.11,0,0,.92.42.5.58-8,2.55-13,.89-18.2-2.91-5.76-4.18-10.8-10.4-15-17.82a5.78,5.78,0,0,0,.88-.81,3,3,0,0,0,3.72,1.3c.74-3.71-2.3-3.86-3.26-5.26-1.64-2.38,1.4-4.82,2.65-2.72a10.9,10.9,0,0,1,1.19,3.8c.45,1.71,5.48,2.61,6.95,2.26,1.17-.9,2-3.62,1.15-4.72a13.17,13.17,0,0,1-1.54-1.84c-1.52-3.9,4.15-3.1,4-1.11-.07,1.07-1.07,1.57-.5,2.8,1.1,2.38,5.39,2.86,6.68,2.88,1.61-1,3-4.26,2.49-5-1.1-1.58-2.1-.52-2.61-2-1.11-3.15,4.54-3.92,4.91-1,.19,1.45-.28,2.19,0,3,.52,1.66,4.94,2.16,8.14,1.8,1.21-.64,2.58-3.15,2.11-4.14-.7-1.51-3.21-1.41-3.68-2.34-1.56-3.06,3.28-4.24,4.41-2.3.63,1.08.47,1.75,1.27,3,1.32,2.06,7.06,1,9.52-.31-.15-2-1.47-4.63-2.8-5.3-1.16-.58-2,.36-2.53-.38-2.13-3.12,2.4-5.21,3.84-3.53.29.34.11,1.71.84,2.23,2.23,1.56,5.86,0,7.56-1.38,0-1.8-.65-4.21-1.42-4.76s-3,.19-4,0c-3.31-.6-1.25-4.8.19-4.68,2,.17,1.92,1.19,2.8,1.57,2.3,1,5.49-.5,6.6-.84,0-2.46-1-5.24-2.26-5.49s-3,.4-4.07-.08c-2.79-1.26-.61-4.35,1.27-3.88,1.61.41,1.41,1.45,2.11,1.73,2,.8,4.41-2.11,5-3.26-.08-1.5-2-3.8-3.57-4-.73-.11-2.29.55-3,.23-2.45-1-.91-4.26.88-4.3,1.35,0,1.4,1.51,2.26,1.57,3,.23,4.23-1.6,5-3.38-1-2.78-2.53-3.67-4.22-3.65-1.3,0-1.69,1.19-3,1.27-2.5.14-2.05-3.26.21-4Zm2.29-8.81c-1,1.54-2.67,2.37-1.54,3.26.7.55,1.11-1.57,1.54-3.26Zm-15.36,15.9c.3,0-.18.75.41,1.2s2,0,2.1.31c.17.87-2.54.16-3,.32-.25-1.16,0-1.89.53-1.82Zm6.45-22.44c-3,7.76-6.17,11.19-7.22,16.63-.68,3.53.93,5.61,1.93,5.84.67-.88-1.36-.57-.55-5.34.55-3.27,2.79-8.17,6.25-16.24.17-.41-.22-1.36-.41-.88Zm-13.51,21.18c-.11-.06-1.38-.06-1.6.62s.21,1.68.57,1.58-.06-.83.13-1.15,1.33-.78.89-1Zm5,21.06c-.62.46-5,5.53-5.18,6.87s-1.64,3.11-1.93,3.07-1.19-.79-2.06-.61c-2,.61-1,3-1.53,3-.71.05-.82-.5-.82-.9,0,0-.29.75-.9.82a44.24,44.24,0,0,1-4.57,0,29.46,29.46,0,0,0-5.74-.21c-2,.14-10.27,2.8-13,2.33-1.72-.3-4.39-.26-6.48-3.3,0,0,3.63,2.23,6.9,2.06,5.39-.28,9.17-2.71,13-2.78,5-.09,6.57,1.38,8.59,1.08.7-.1.26-1,1.35-1.32.6-.17.78.15,1.3-.08.89-.4,0-1.25,1.9-1.51,1.71-.23,1.79.43,2,.32s.39-.13.45-.93.4-.35.56-.82c.24-.7.05-1.45.32-2.09a15.54,15.54,0,0,1,5.79-5.52c-.37-.29-1-.63-1.08-1s.18-1.35.53-1.4.77.32.69.66-.66,1,0,1.22l1.11.32c.58.16.78.34.61.61-.41.64-1.11-.51-1.8,0Zm1.37-17.79c.8.24-1.83,3.33-1.93,7.61-.08,3.61,2.3,7.51,1.88,7.72-.59.29-3.41-3.71-3.49-7.53-.07-3.34,2.27-8.18,3.54-7.8Zm-16.52,22c.28.28,1.28.38,1.46,0,0-.05,0-.23-.09-.26,0-.22-.3,0-.4,0,0-.57-.32-.83-.45-.21,0,0,0,0,0,.13s-.46-.26-.51.18c0,0-.05.1,0,.16Zm7.31-10.3c0,.14-1.52.31-1.55.81s.32.51.3.79-.75.85-1,.62.25-.45.28-.6-.34-.45-.3-.77a2.73,2.73,0,0,1,1.11-1.45c0-.26-.38-.37-.26-.53.29-.38.37.14.72.45s.79.31.67.68Zm-52.73,59.59c.07,0,.17.52.57.52,2.86,0,6.13-1.58,8.57-3.47,1.13-.88,2.81-4.46,4.14-7.23a13.05,13.05,0,0,1-4.91,9c-1.89,1.21-6.37,2.73-8.21,2-.15-.06-.67-.55-.15-.82Zm2.34-4.89a7.9,7.9,0,0,0,1.06-.8,15.46,15.46,0,0,1-1.44,4.74c-.47.6-.95.89-1.09,1.15s-.4.25-.43-.17.59-1.11,1-1.55a7.94,7.94,0,0,0,.89-3.36Zm-2-22.91c-.88-.5-2,4.06-4,6-1,.94-4.36,3.65-10.85,3.28.31,1.25,1.55,2.38,4.77,3.24a7.23,7.23,0,0,1-3.36,4.34c.32,1.46,2.28,2.35,4,2.53-2.64,1.81-2.76,4.77-6.52,8.53,5.23,1.34,10.31-3.26,11.31-4.79.16.7-1.52,3.37-1.87,4.08,1.61.11,7.35-2.25,7.72-3.13.11-.29,0-.78-.23-.6s-6.32,2.9-6.32,2.9a10,10,0,0,0,1.41-4.68c-3.11,3.29-6.36,5.89-10.16,5.66,2-2,2.72-6.26,5.74-7.61.06,0,.35-.82-.09-.91-2.11-.39-4.22-1.6-4-1.73,0,0,1.92-.69,2.21-1.18.62-.49,1.37-3.9,1.09-3.9-2.28-.72-3.37-1.09-3.73-1.81,5.48.12,8.17-1.81,9.1-2.64,2-1.76,1.75-4.82,3.73-7.52ZM124.5,284.46c.16-.15.22-.93.11-.83a20.55,20.55,0,0,1-4.34-.4c-1.57.75-5.28,2.38-8.73-.46a5.24,5.24,0,0,0,.6-2c-.58-.1-.63,1.13-1.31,1.58-1.22.8-2.49.63-3.57.72a3.86,3.86,0,0,1-3.27-1c-.32-.06-1.06-.09-1.18.11.14,1.18,6.69,3.57,8.7,1.29,1.38,2.26,5.86,2.71,9.22.37a8.44,8.44,0,0,0,2.59.27c.6.07,1.1.34,1.18.27Zm-5.43-1.12a3.35,3.35,0,0,1,1.38-1.35,6,6,0,0,1,1.15-1.58,5.64,5.64,0,0,1-.69,2.38,7.06,7.06,0,0,1-1.84.55Zm.56-22.49a20.91,20.91,0,0,0-3.14,6.45,1.72,1.72,0,0,1-.38-.91c0-.38.15-1.27,0-1.33-1.12-.22-.32,2.48.34,3.41.37-1.17.81-2.27,1.18-3.44.06.15.16.33.23.48a19.15,19.15,0,0,0,1.77-4.64Zm-3.33-1.29c-.68,0-2.22,3.76-2.32,5.71,0,.38-2.53,3.2-2.05,3.42s2.72-2.32,2.72-2.66c-.22-2,1.11-5.42,1.65-6.47Zm-11.6,4c-1.47,5.48-5.48,3.1-6.14,5.84,2.34-1.3,5.82.31,6.14-5.84Zm1.26-8.75c-2.77,2.26-3.61,7.82-3.8,9.8,1.85-5.14,2.62-7.55,3.8-9.8Zm11.42-8.95c-1,.94-4,6.62-3.58,7.57.22.44.71-.86.93-.63s-.58,2.1-.19,2.8c1.27.46,7-5.22,6.34-5.78-.34-.28-4.46,4.75-5.26,4.35s.23-2.23-.37-2.64c-.16.06-.18.31-.34.37a41,41,0,0,0,2.46-6Zm-3.88-2.57c-2.84,4.19-6,7.73-10,9.43.63.88,2.94,2.18,3.65,1.23.57-.76-1.57-.37-2.65-1a19.36,19.36,0,0,0,8.95-9.69Zm-9.56,31.45c3.07-.81,6.12-1.14,9,.69,2.5-2,4.49-2.28,6.6-1.05,1.71-.21,2.17,2.14,2.53,3a11.23,11.23,0,0,0,0-2.61c.94-.78,2.3-.44,2.81-.72s-.68-.46-1.06-.69c-1,.12-1.73.57-2.44.66a15,15,0,0,0-4.19-1.75,4.32,4.32,0,0,0-4.08,2.3,9.1,9.1,0,0,0-9.25-.32c-.23.16-.14.51.06.46Zm37.91-28.54c-2,1.86-2.77,7.22-1.84,9.1.16.33,1.57-.88,1.92-.73s.3.79.73,1c1.35.53,4.08-3.84,3.49-4.22-1.07.54-1.38,2.87-2.92,3.34-1,.3-.35-1.38-.46-1.5a13,13,0,0,0-1.92,1c-1.19.34-.11-4.86,1-7.91ZM126.7,247c-2.08,2-2.07,6.17-1.54,9.71,1.65-.12,3-2.65,3.19-2.46s-.65,1.62-.15,1.84c1.29.58,6-5.18,6-7.64-.91,1.93-4.29,6.79-5.1,6.33-.23-.13.58-2.23.31-2.26-1.14-.15-2.6,3.11-3.22,2.84-.76.45-.45-4.62.54-8.37Zm35.36-5.07c.09.19.13.33.18.45a2.69,2.69,0,0,1-.18-.45Zm-12.31-7.06a9.2,9.2,0,0,0-1.56,3.68c-.09,1.42-.33,4.1-.12,3.95a1.26,1.26,0,0,1,.78.27c.29.28.11.74.27,1.21a10.26,10.26,0,0,0,4.18-2.85,30.49,30.49,0,0,0-3.6,2,2.06,2.06,0,0,0-.31-.86c-.23-.27-.78-.2-.78-.2-.29,0,.14-3.25.63-3.87.16-.63.39-2.23.51-3.28Zm-10.91,1.64c-.93,1.67-1.71,3.54-1.06,4.89.25-.05.5-.14.74-.2,0,.35.08.82.12,1.17a21.41,21.41,0,0,0,5.24-6c-.61,1.07-1,4.91-5.94,7a1.41,1.41,0,0,1,0-1.29c-.29,0-.61.08-.9,0-.54-2.25.65-5,1.8-5.67Zm-9.15-2.82c-1.06.59-1.29,1.49-2.35,2.11a4.94,4.94,0,0,0-2.07,3.76c0,.31.55-.94,1.13-1.45-.59,2.15-.91,5.3-.63,5.47s1.17-.78,1.17-.78c1.91.13,3.54-1.16,3.71-1.92a10.09,10.09,0,0,1-2.93,1.17.38.38,0,0,0-.31-.47c-.39-.06-.42.32-.57,0-.83-2,1-4.86,2.84-7.87ZM119,235.14l.16-.9c1.3,2,3.66.95,6.53-1-1.83,2.24-5.36,4-6.69,1.92Zm8.78-9.67c-.22.15,1.59,1.71,2.37,1.5a8,8,0,0,0,2.54-.87c.51,0-1.94,1.57-2.84,1.63-.6,0-.23-.3-.47-.37-1.16-.2-2.19-1.6-1.6-1.9Zm10.11,1.5c-.39.18-1.26,1.56-2,2.2a4.66,4.66,0,0,0-.53,2.27c.1.5.77.6.77.8s-.2.44.1.6c.47.24,5.64-4.38,5-5.07-.36-.41-4.33,4.27-4.47,4.17s.13-1,.13-1-.93.27-.8-.33,2-3.44,1.8-3.67Zm2.94-8.86a4.92,4.92,0,0,1-2.24,1.89c2,.61,3.89-.58,5.54-2.18-1.05,2.61-4.5,4.11-6.8,2.1a7.16,7.16,0,0,0,3.5-1.81Zm33.95-5.53c-1.27,2.1-1.69,4-1.18,4s.15-1.66,1.18-4ZM162.1,233.94c.14,1,1.5,3.31,2.23,3.37.57,0-.13.67-.63.13a5.11,5.11,0,0,1-1-1.26c-.21-.51-.08.39-.17.36a4.35,4.35,0,0,1-.4-2.6Zm-4.37.4c.31.37,0,.63.6.67s.61-3.5,1-4.14-.41,5.47-.87,5.67c-.78.35-1.81-3.45-.77-2.2Zm-1-5.2c-.49,2.37-1,5.74-.27,5.67s.77-.07.73.23-.07.13-.37.33-.5.37-.7.33a2.06,2.06,0,0,1-1-1.9c0-1.27,1.33-3.17,1.27-5.07,0-1,.5-.39.33.4Zm-8.24-2.94c-.23,0-.33,1-.5,1.3s-1.2,1.45-1.4,1.87a8.64,8.64,0,0,0-.4,4.1c.23.17.38-.34.63-.2s.11.67.33.77c1,.48,5.11-4.77,4.6-5.7-.34-.63-.3.29-.5.7-.32.65-3.29,4.21-3.7,4-.15-.07.1-.67-.07-.83s-.68,0-.83-.13c-.34-.34.73-3.09,1.6-4.5.2-.32.55-1.34.23-1.37Zm16.59-1.49a27.07,27.07,0,0,0,2,4.39c-.49-.14-.63-.71-.87-.91s-.74-.47-.86-.75a6.09,6.09,0,0,1-.26-2.73Zm-9.1-3.47a4.61,4.61,0,0,0,.37,2,4.2,4.2,0,0,1,2-.4,14.54,14.54,0,0,0-2.56,1.64,5.12,5.12,0,0,1,.14-3.19Zm-9-2.41c-.17.94-.46,1.74-.06,2.3a7.56,7.56,0,0,0,3.82-2.3c-.64,1.66-2.09,3-4.79,3.82a4.24,4.24,0,0,1,1-3.82Zm-43,60.81a4.24,4.24,0,0,0-1.41,2.51c.34-.2.48-.26,1.87-.28-.5-.08-.87-1.63-.46-2.23Zm-6.27.18s-1.41,1.71-1,2,.69.05.74-.18-.16-.49-.1-.69l.33-1.18ZM85,287c.81-6.46,4.16-6.39,4.13-7.35S84.63,281.28,85,287Zm-5.71-6.6c.23.31,1.2-.33,2-.36s2.74-.44,2.81-.69-1.82.18-2.35.23-2.69.2-2.48.82Zm.61-8.78a20.38,20.38,0,0,0,4.81,2c-.76.4-4,.39-4.81-2Zm-2.53,21c.51,2.55,4.6,4.83,5.9,5.33a7.57,7.57,0,0,1-1.83.26c-.49-.66-.88-.61-1.5-.84-1.88-.72-2.85-3.88-2.58-4.75Zm-14.09-2.53c-.72-.15-2.12-3-2.3-5.37a11.73,11.73,0,0,0-.28-1.92c0-.33.11-.56.38-.52a5.24,5.24,0,0,1,.57,1.87,10.26,10.26,0,0,0,2,5.75c.09.12-.33.22-.41.2Zm-2.41-19.1.66.88s.64-4.74.57-4.84-.28-.26-.4-.09-.83,4.05-.83,4.05Zm5.74-11.76c0,.53-.08,1.11-.09,1.64a15.69,15.69,0,0,1,4.55-4.58c-.06-.48-4.58,2.37-4.46,2.94Zm2.57-35c.24,0,.11.7.59,1.74s1.34,2,1,2.25-1.71-1.6-2-2.68c-.08-.27.17-1.31.41-1.31ZM65.92,211.1A13.38,13.38,0,0,0,66,209a6.8,6.8,0,0,0-.18-2.31,4.78,4.78,0,0,0-.22,2,13.07,13.07,0,0,1-.28,2.26,1.91,1.91,0,0,0,.56.17Zm3.93-18.31c.24.07.49-.91.85-2.13s1.14-2.22.68-2.36-1,1.18-1.36,2.39-.41,2-.17,2.09Zm16.7-5.74c.86-.57,1.72-.73,1.57-1s-1.27.2-2.14.76-1.52,1.22-1.33,1.53,1-.68,1.89-1.25Zm8.51,50.52c0,.29,0,.66,0,.81.38.13,2.19.08,2.21-.19s-1.4-.13-2.23-.61ZM92,229.36l-.06.67a6.18,6.18,0,0,0,1.92-1,7.94,7.94,0,0,1-1.86.35ZM158.64,180a13.21,13.21,0,0,0,1.6,4.2c-1.81,3.38-1.38,7.79-.92,13.51a23,23,0,0,1-2.22,8.63,8.59,8.59,0,0,0-4.52.05c-1.31-3-1.13-7.66-6.36-9.28,5.84-.3,5.93,7.16,6.57,7.71s4.06.37,4.35-.46c2.09-5.83,3-11.54-4.52-17.2,2,.65,4.48,3.48,5.73,5.19-.5-3.1,0-7.71.84-7.84,0-.16,0-.32,0-.49-.41-.38-1.72-3.11-1.35-3.73.14-.23.59-.58.76-.3Zm2.27,9.94c-.59,4.08,5,4.84.76,15.83,2.81-4.13,2.58-8.84,2.31-9.52-.57-1.45,3.53-1.77,3.9-1.21,0,0,.45-.08.14-.48-.48-.62-3.27-.63-3.72-.9a12.44,12.44,0,0,1-3.38-3.72Zm-.68-3.66c.23,1.28,3.28,2.6,5.7.21.15-.15.55-.36.31.23-1,2.48-7,2.15-6-.44Zm.69-1.72c.23,0,.51,2.09,1.69,2,.69-.08,1.23-1,1.57-1.63.27.42,1.57.42,1.86.86.11.16,0,.56-.31.42s-.42-.38-1.11-.36a2.2,2.2,0,0,1-1.92,1.48c-2.33.57-2.21-2.72-1.78-2.72Zm1-.51c.58-.09.68,1.13.65,1.49,0,.08-.22,0-.23,0-.13-.79-.75-.73-.63-1.25.05-.23.19-.23.21-.23Zm3-.44c1.54.05,2,3,6.66,3.4.17,0,.17.32-.06.33-2.65.12-3.56-.32-4-.61s-1.82-2.21-2.88-2.61c-.17-.06-.29-.52.23-.5Zm-4.43-3.48c-.32,1.63,1.54,2.79,3.14,3.1.54.1.42.43,0,.37-1.34-.19-3.78-.32-3.54-3.34,0-.25.44-.4.39-.13ZM149,179.93c2.86.24,5.83,1.17,5.93,2.76a4.2,4.2,0,0,1-.48,1.59c-.66-1.45-3.41-3.41-5.45-4-.4-.11-.34-.41,0-.38Zm4.67,2.16a3.33,3.33,0,0,1,.68.76c.1.18-.15.26-.24.06a1.8,1.8,0,0,0-.62-.68c-.27-.18-.1-.4.18-.15ZM183.45,352a26,26,0,0,1,2.89-9.5c1.67-3.24,4.83-4.38,5.09-5.52.29.18,0,1.19.2,2.62.4,3.76.26,7.8-1.32,10.29-1,1.54-4.2,2.9-6.85,2.11Zm53.27-17.77c3.74-3.58,5.76-8.54,4.38-15.7-4.92,5.77-10.36,6-13.21,1a7,7,0,0,1,4.18-10.32,10.18,10.18,0,0,1,7.1,1,11.36,11.36,0,0,0,.12-3.26c-2.42-7.48-1.47-12.6-.65-12.43.53.11.19,2.16.92,2.72a14.45,14.45,0,0,1,.23-5.3c.39-1.44,2.4-3.51,3.44-5.71.92-1.94.88-4.12,1.09-4.12.64,0,.82,2.71.81,4.38-.27,3.4-1.11,4.27-1.69,6.33.61-.18,1.75-2.91,2-2.42.14.28-.16.74-.24,1.35a7,7,0,0,0,.09,2.22c3.72,5.16.94,15-1.34,16.73-.32.76-.7,1.62-.92,2.19,1.3,1.87,3.07,6.92,2.23,12.66-.79,5.4-3,10-7.71,12.63-.27-2-.81-3.88-.8-4Zm4.83-16c.37.11.49-.83.8-1.92s.76-2.09.4-2.19-.53,1-.84,2.06-.73,1.95-.36,2.05Zm-2.63-7.58c.28.35,0,4.06-.53,3.85s.14-2.79.53-3.85Zm-.44,4.34s-2.8-2.88-4.64-2.76-1.84.61-2.19,1.11a4.58,4.58,0,0,0-.58,2.53c0,1,.38,2.46.88,2.8a3.28,3.28,0,0,0,2.19.54,6.48,6.48,0,0,0,3.22-1.42,5.57,5.57,0,0,0,1.11-2.8Z" transform="translate(-51.67 -84.53)"/><path class="d" d="M154.94,203.23c.63-.12,1.73-2,1.57-2.91-.81-4.72-2.89-6.75-4.55-7.79-4.09-2.55-12-2-15-2-5.79-.06-7.16-3.37-7.31-6.32,2.35,1.3,5.85-.14,5.74-4.23-.1-3.32-2.88-4.44-4.93-4.54-1.67-.09-8.24.73-8.15,8.88.12,11.71,14.59,9.34,16.62,9s7.62,0,9.16.66c2.51,1.11,3.5,2,4.34,4.54.52,1.55,1,5,2.56,4.7Z" transform="translate(-51.67 -84.53)"/><path class="c" d="M252.75,169.1c0,1.72,0,139.11.26,142.87,0,.53-.21,8.47-1.13,17.67-.17,1.69-1.78,8.73-2.66,12.06-4.62,17.37-16.27,33.39-25,41.73a123.27,123.27,0,0,1-17.64,14.34c-8.33,5.31-19,9.47-22.79,10.83a92.32,92.32,0,0,1-30.17,4.89A93.91,93.91,0,0,1,123,408.89a112.53,112.53,0,0,1-24.5-11.64c-7.2-4.4-15.85-12.05-20.38-18C73,372.5,64.62,363.58,57.9,342.1c-.59-1.88-2.47-10.43-2.69-12.19-1.15-9.18-1.7-17.32-1.7-17.85,0,0-.17-141-.17-142.7l199.42-.26ZM51.67,167.28V311.93a138.79,138.79,0,0,0,1.57,18c.27,1.72,2.12,10.06,2.88,12.58,3.42,11.41,8.8,23.72,20.93,38.27a102.06,102.06,0,0,0,20.5,18.18,103.24,103.24,0,0,0,24.84,11.82,92.64,92.64,0,0,0,30.66,4.72,103.76,103.76,0,0,0,31.52-5.07,101.39,101.39,0,0,0,23.08-11c10.61-7,14-10.53,18-14.61,18-18.48,23.09-34.58,25.23-42.66.89-3.37,2.17-9.39,2.8-12.23.77-3.44,1.28-15.37,1.27-18-.2-48.13,0-96.44,0-144.64Z" transform="translate(-51.67 -84.53)"/><path class="a" d="M328.8,240.49h7.91l-1.92-36H324.1l-3.8,12c-.41,1.35-.82,2.75-1.22,4.21s-.79,2.93-1.16,4.41-.72,2.92-1,4.32h-.21c-.4-2.12-.87-4.28-1.38-6.46s-1.08-4.33-1.67-6.43l-3.53-12H299.23l-2.3,36h7.54l.69-13.69q.11-2.26.21-4.79c.07-1.68.13-3.38.2-5.1s.12-3.4.18-5h.11c.3,1.58.63,3.17,1,4.8s.72,3.22,1.11,4.8.78,3.08,1.17,4.52L313,239.9h6.36l4.38-14.07q.69-2.13,1.41-4.47t1.39-4.76c.45-1.6.87-3.18,1.27-4.72h.11c0,1.75,0,3.48,0,5.21s.07,3.39.12,5,.1,3.15.15,4.6l.59,13.8Zm14.22-36v36h8.13v-36Zm36.63,14.17H366.4v-7.49h14.06v-6.69H358.27v36h22.94V233.8H366.4v-8.56h13.26v-6.63ZM412,233.1a13.13,13.13,0,0,1-2,.61,20.22,20.22,0,0,1-2.37.41,21.9,21.9,0,0,1-2.52.15,12.61,12.61,0,0,1-6.19-1.44,9.58,9.58,0,0,1-3.94-4.07,13.56,13.56,0,0,1-1.37-6.26,14.7,14.7,0,0,1,.88-5.25,10.22,10.22,0,0,1,2.43-3.73,10.07,10.07,0,0,1,3.64-2.22,13.33,13.33,0,0,1,4.49-.73A17.86,17.86,0,0,1,409,211a15,15,0,0,1,2.92.93l1.71-6.42a9.4,9.4,0,0,0-2-.78,21.28,21.28,0,0,0-3-.59,28.16,28.16,0,0,0-3.86-.24,23.64,23.64,0,0,0-6.24.8,19.58,19.58,0,0,0-5.4,2.37A16.84,16.84,0,0,0,388.9,211a17.25,17.25,0,0,0-2.79,5.32,21.72,21.72,0,0,0-1,6.71,20.93,20.93,0,0,0,1.19,7.16,16,16,0,0,0,3.58,5.73,16.19,16.19,0,0,0,5.9,3.81,23.08,23.08,0,0,0,8.21,1.38,32.22,32.22,0,0,0,4-.25,26.24,26.24,0,0,0,3.14-.59,12.22,12.22,0,0,0,2.07-.71L412,233.1Zm4.33,7.38h28v-6.74H427.25v-.21L444,209.14v-4.71H417.89v6.74H433.5v.21L416.34,236.1v4.39Zm49.89,0v-15l11.87-21H469l-3.64,8.66c-.53,1.27-1,2.46-1.46,3.57s-.86,2.22-1.26,3.33h-.11c-.28-.78-.57-1.53-.85-2.26s-.59-1.46-.9-2.21-.66-1.57-1-2.43l-3.63-8.66h-9.36l11.39,21.29v14.76Zm12.83-1.71a14.45,14.45,0,0,0,2.64,1.08,25.32,25.32,0,0,0,3.55.84,25.72,25.72,0,0,0,4,.33,21.19,21.19,0,0,0,6.43-.9,12.56,12.56,0,0,0,4.52-2.43,9.74,9.74,0,0,0,2.66-3.56,10.6,10.6,0,0,0,.87-4.3,9.89,9.89,0,0,0-1-4.52,10.09,10.09,0,0,0-3.06-3.53,20.54,20.54,0,0,0-5.24-2.7,41.36,41.36,0,0,1-3.82-1.6,6.62,6.62,0,0,1-2.17-1.54,3,3,0,0,1-.12-3.65A4,4,0,0,1,490.1,211a7.66,7.66,0,0,1,2.92-.5,18.43,18.43,0,0,1,3.18.28,18.09,18.09,0,0,1,2.52.67,16.39,16.39,0,0,1,1.78.76l1.82-6.52a17.54,17.54,0,0,0-3.86-1.29,25.12,25.12,0,0,0-5.34-.53,19,19,0,0,0-5.7.82,12.94,12.94,0,0,0-4.29,2.27,9.76,9.76,0,0,0-3.65,7.71,8.8,8.8,0,0,0,1.25,4.63,11.35,11.35,0,0,0,3.46,3.51,23.49,23.49,0,0,0,5.24,2.56,22.54,22.54,0,0,1,3.49,1.47,5.66,5.66,0,0,1,1.94,1.59,3.25,3.25,0,0,1,.6,2,3.32,3.32,0,0,1-.65,2.06,4.19,4.19,0,0,1-1.93,1.35,8.92,8.92,0,0,1-3.15.49,18.82,18.82,0,0,1-3.41-.33,21.89,21.89,0,0,1-3.1-.84,18.56,18.56,0,0,1-2.52-1.08l-1.66,6.69Zm53.1,1.71v-6.85H517.83V222.51l6.74-4.55V212.3l-6.74,4.55V204.44H509.7v17.81l-4,2.78v5.62l4-2.73v12.57ZM556,231.23l2.78,9.25h8.82l-11.23-36H545.69l-11,36h8.4l2.57-9.25Zm-9.14-6.1,2.14-7.65c.2-.7.38-1.45.57-2.26s.37-1.6.55-2.41.36-1.57.53-2.29h.11c.18.72.36,1.48.57,2.27s.4,1.6.61,2.4.42,1.56.63,2.28l2.25,7.65ZM584,240.49,587.4,225c.28-1.2.54-2.41.78-3.6s.46-2.41.68-3.64.42-2.53.63-3.88h.11q.21,2,.48,3.91c.18,1.24.37,2.45.57,3.64s.43,2.38.66,3.58l3,15.51h8.82l9.3-36h-8.29l-2.94,14.71c-.38,2.17-.76,4.31-1.12,6.4s-.69,4.16-1,6.17h-.11q-.4-3-.87-6c-.31-2-.66-4-1.06-6.12l-2.89-15.19h-8.66l-3,14.71c-.46,2.26-.89,4.45-1.29,6.59s-.76,4.18-1.06,6.14h-.11l-.63-3.92c-.23-1.4-.47-2.83-.72-4.31s-.52-2.93-.78-4.39l-2.73-14.82h-8.72l8.56,36Zm42.14-1.71a14.45,14.45,0,0,0,2.64,1.08,25.32,25.32,0,0,0,3.55.84,25.72,25.72,0,0,0,4,.33,21.19,21.19,0,0,0,6.43-.9,12.56,12.56,0,0,0,4.52-2.43,9.74,9.74,0,0,0,2.66-3.56,10.6,10.6,0,0,0,.87-4.3,9.89,9.89,0,0,0-1-4.52,10.09,10.09,0,0,0-3.06-3.53,20.54,20.54,0,0,0-5.24-2.7,41.36,41.36,0,0,1-3.82-1.6,6.64,6.64,0,0,1-2.17-1.54,3,3,0,0,1-.12-3.65,4,4,0,0,1,1.75-1.27,7.66,7.66,0,0,1,2.92-.5,18.42,18.42,0,0,1,3.18.28,18.09,18.09,0,0,1,2.52.67,16.39,16.39,0,0,1,1.78.76l1.82-6.52a17.54,17.54,0,0,0-3.86-1.29,25.11,25.11,0,0,0-5.34-.53,19,19,0,0,0-5.7.82A12.94,12.94,0,0,0,630.2,207a9.76,9.76,0,0,0-3.65,7.71,8.8,8.8,0,0,0,1.25,4.63,11.37,11.37,0,0,0,3.46,3.51,23.49,23.49,0,0,0,5.24,2.56,22.54,22.54,0,0,1,3.49,1.47,5.67,5.67,0,0,1,1.94,1.59,3.25,3.25,0,0,1,.61,2,3.32,3.32,0,0,1-.65,2.06,4.19,4.19,0,0,1-1.93,1.35,8.92,8.92,0,0,1-3.15.49,18.82,18.82,0,0,1-3.41-.33,21.89,21.89,0,0,1-3.1-.84,18.56,18.56,0,0,1-2.52-1.08l-1.66,6.69Zm37.27,1.71h8.13v-29.2h9.84v-6.85h-27.7v6.85h9.73v29.2Zm22.3,0h8.08V226.26h2.41a7,7,0,0,1,2.81.51,4.13,4.13,0,0,1,1.89,1.77,12,12,0,0,1,1.24,3.51q.78,3.36,1.41,5.48a21.68,21.68,0,0,0,1.05,3h8.34a12,12,0,0,1-.59-1.61q-.32-1.07-.7-2.49c-.25-.95-.51-2-.78-3s-.54-2.1-.83-3.15a14,14,0,0,0-1.8-4.23,6.64,6.64,0,0,0-3-2.48v-.16a9.88,9.88,0,0,0,2.3-1.21,10.15,10.15,0,0,0,2.05-1.91A9.26,9.26,0,0,0,711,217.7a8.85,8.85,0,0,0,.56-3.13,10.58,10.58,0,0,0-.86-4.38A8.28,8.28,0,0,0,708.2,207a12,12,0,0,0-4.79-2.18,30.21,30.21,0,0,0-6.87-.65c-2.21,0-4.23.07-6.09.21s-3.44.31-4.77.54v35.57Zm8.08-30a7.25,7.25,0,0,1,1.32-.2c.6,0,1.39-.07,2.37-.07a8.28,8.28,0,0,1,3.22.56,4.39,4.39,0,0,1,2.05,1.66,4.89,4.89,0,0,1,.72,2.73,4.81,4.81,0,0,1-.78,2.74,4.93,4.93,0,0,1-2.21,1.78,8.85,8.85,0,0,1-3.48.64h-3.21v-9.84Zm23.37-6.1v20.11a22.46,22.46,0,0,0,1.71,9.37,11.4,11.4,0,0,0,4.9,5.42,15.91,15.91,0,0,0,7.77,1.74,17,17,0,0,0,8.08-1.78,11.9,11.9,0,0,0,5.14-5.44,21.05,21.05,0,0,0,1.8-9.2V204.44h-8.13v20.7q0,4.8-1.71,7.11a5.69,5.69,0,0,1-4.92,2.3,5.55,5.55,0,0,1-4.8-2.36q-1.7-2.35-1.72-7.05v-20.7Zm36.47,36h8.08V228.72l3-3.8,8.88,15.57h9.47l-12.51-20.7,11.92-15.35H772.42l-8.13,12c-.43.64-.86,1.28-1.27,1.93s-.84,1.33-1.24,2h-.11V204.44H753.6v36ZM327.53,297.83H322V273.11L311.57,299,300.7,273.11v24.72h-2.64V267.09h6.45l8.66,21,8.33-21h6v30.74Zm29.42,0h-6.07l-3.2-8.19H337.08l-3.15,8.19H331.2l12.61-31.4,13.13,31.4ZM346.83,287.7l-4.47-11.2-4.47,11.2Zm35.68,10.12h-6.4l-8.24-15.58q4.71-.33,6.78-1.77a5.24,5.24,0,0,0,2.07-4.64q0-6.78-8-6.78h-2.35v28.76h-5.7V267.09h10.07q11.58,0,11.58,9a6.8,6.8,0,0,1-2.07,5.23,9.05,9.05,0,0,1-5.93,2.12l8.14,14.41Zm23.58-8.76a8.93,8.93,0,0,1-2.87,6.83,10.2,10.2,0,0,1-7.25,2.68,10.66,10.66,0,0,1-9.46-5l2.26-1.6q2.17,4.09,6,4.09a5.4,5.4,0,0,0,4-1.55,5.47,5.47,0,0,0,1.53-4,5.1,5.1,0,0,0-1.93-4.19,22.82,22.82,0,0,0-5-2.54,13.55,13.55,0,0,1-5.08-3.25,7.4,7.4,0,0,1-1.69-5,8.74,8.74,0,0,1,2.66-6.54,9.47,9.47,0,0,1,6.9-2.59q6.64,0,9.08,5.46l-2,1.37q-1.6-4.47-5.88-4.47a4.93,4.93,0,0,0-3.67,1.43A5.11,5.11,0,0,0,392.2,274a4.44,4.44,0,0,0,1.51,3.44,14,14,0,0,0,4,2.35,21.94,21.94,0,0,1,6.07,3.48,7.71,7.71,0,0,1,2.26,5.84Zm27.67-22-17.32,28.43h17v2.31H408.67L426,269.39H410.41v-2.31ZM460,297.83h-6.07l-3.2-8.19H440.16L437,297.83h-2.73l12.61-31.4L460,297.83ZM449.9,287.7l-4.47-11.2L441,287.7Zm32.9,10.12h-19V283.94l-2.59,1.74v-2.31l2.59-1.88v-14.4h5.7v10.73l6.12-4.19v2.5l-6.12,4.14v15.25H482.8v2.31Zm22.36,0h-19V267.09h19v2.31H491.84v11.25h12.38v2.31H491.84v12.57h13.32v2.31Zm28.38,0h-6.73l-9.08-15.39,11.34-15.35h3.53L523,280.27l10.54,17.56Zm-16.14,0h-5.7V267.09h5.7v30.74Zm-186,24.39-12.19,31.49-6.5-16.43-6.26,16.43-12.75-31.49h6l8.33,21.33,3.44-9-5-12.29h6l8.24,20.95,7.76-20.95Zm32.85,15.44a15.44,15.44,0,0,1-4.63,11.51,15.28,15.28,0,0,1-11.09,4.54,15.12,15.12,0,0,1-11.11-4.57,16.73,16.73,0,0,1,.07-23,15.22,15.22,0,0,1,11-4.54,15.57,15.57,0,0,1,9.32,3.06,15.21,15.21,0,0,1,6.4,13Zm-6.12,0q0-6.45-2.78-10.36a8.07,8.07,0,0,0-13.65,0q-2.78,4-2.78,10.36t2.73,10.24a8.07,8.07,0,0,0,13.74,0q2.73-3.84,2.73-10.24Zm18.73,7.72q0,4.1-2,5.93t-6.24,1.83q-1.32,0-3-.14v-2H367q2.49,0,3.39-1.11a6.13,6.13,0,0,0,.89-3.79V322.21h5.65v23.16ZM403.68,353h-19V322.21h19v2.31H390.36v11.25h12.38v2.31H390.36v12.57h13.32V353Zm39.82-30.74-12.19,31.49-6.5-16.43-6.26,16.43L405.8,322.21h6l8.33,21.33,3.44-9-5-12.29h6l8.24,20.95,7.77-20.95Zm21.93-8.43L462.09,319h-2.78l2.12-5.23Zm10.92,23.87a15.67,15.67,0,0,1-15.72,16.05,15.12,15.12,0,0,1-11.11-4.57,16.73,16.73,0,0,1,.07-23,15.22,15.22,0,0,1,11-4.54,15.56,15.56,0,0,1,9.32,3.06,15.21,15.21,0,0,1,6.4,13Zm-6.12,0q0-6.45-2.78-10.36a8.07,8.07,0,0,0-13.65,0q-2.78,4-2.78,10.36t2.73,10.24a8.07,8.07,0,0,0,13.74,0q2.73-3.84,2.73-10.24Zm38.45.61a14.25,14.25,0,0,1-4.12,10.64q-4.12,4-10.89,4H482V322.21h7.53q9,0,14.07,4.28t5,11.77Zm-6.12-.75q0-6.31-3.27-9.65t-9.44-3.34h-2.16v26.13h3.39q5.27,0,7.58-2,3.91-3.44,3.91-11.11Zm33.61-15.3-17.32,28.43h17V353H511.08l17.37-28.43H512.82v-2.31ZM559,324.52h-8V353h-5.65V324.52h-8v-2.31H559v2.31Zm37.46-2.31-12.19,31.49-6.5-16.43-6.26,16.43-12.75-31.49h6l8.33,21.33,3.44-9-5-12.29h6l8.24,20.95,7.77-20.95Zm24,30.74h-6.07l-3.2-8.19H600.6L597.45,353h-2.73l12.61-31.4L620.46,353Zm-10.12-10.12-4.47-11.2-4.47,11.2Zm49.28-11.49a8.28,8.28,0,0,1-2.61,6.52,10.32,10.32,0,0,1-7.13,2.33h-6.12V353h-5.7V322.21h11q5,0,7.77,2.47a8.47,8.47,0,0,1,2.78,6.66Zm-5.7.38q0-7.53-7.63-7.53h-2.54v14.12h2.54q7.62,0,7.63-6.59Zm40.1,5.93a15.67,15.67,0,0,1-15.72,16.05,15.12,15.12,0,0,1-11.11-4.57,16.73,16.73,0,0,1,.07-23,15.22,15.22,0,0,1,11-4.54,15.56,15.56,0,0,1,9.32,3.06,15.21,15.21,0,0,1,6.4,13Zm-6.12,0q0-6.45-2.78-10.36a8.07,8.07,0,0,0-13.65,0q-2.78,4-2.78,10.36t2.73,10.24a8.07,8.07,0,0,0,13.74,0q2.73-3.84,2.73-10.24ZM729.09,353h-5.55V328.24l-10.4,25.85-10.87-25.85V353h-2.64V322.21h6.45l8.66,21,8.33-21h6V353Zm37.09-15.3a15.44,15.44,0,0,1-4.63,11.51,15.28,15.28,0,0,1-11.08,4.54,15.12,15.12,0,0,1-11.11-4.57,16.73,16.73,0,0,1,.07-23,15.23,15.23,0,0,1,11-4.54,15.56,15.56,0,0,1,9.32,3.06,15.21,15.21,0,0,1,6.4,13Zm-6.12,0q0-6.45-2.78-10.36a8.07,8.07,0,0,0-13.65,0q-2.78,4-2.78,10.36t2.73,10.24a8.07,8.07,0,0,0,13.74,0q2.73-3.84,2.73-10.24ZM793.67,353h-6.4L779,337.37q4.71-.33,6.78-1.77a5.24,5.24,0,0,0,2.07-4.64q0-6.78-8-6.78h-2.35V353h-5.7V322.21h10.07q11.58,0,11.58,9a6.8,6.8,0,0,1-2.07,5.23,9.05,9.05,0,0,1-5.93,2.12L793.67,353Zm23.58-8.76a8.94,8.94,0,0,1-2.87,6.83,10.2,10.2,0,0,1-7.25,2.68,10.66,10.66,0,0,1-9.46-5l2.26-1.6q2.17,4.09,6,4.09a5.39,5.39,0,0,0,4-1.55,5.47,5.47,0,0,0,1.53-4,5.09,5.09,0,0,0-1.93-4.19,22.76,22.76,0,0,0-5-2.54,13.55,13.55,0,0,1-5.08-3.25,7.4,7.4,0,0,1-1.69-5,8.74,8.74,0,0,1,2.66-6.54,9.47,9.47,0,0,1,6.9-2.59q6.64,0,9.08,5.46l-2,1.37q-1.6-4.47-5.88-4.47a4.93,4.93,0,0,0-3.67,1.43,5.11,5.11,0,0,0-1.41,3.74,4.45,4.45,0,0,0,1.51,3.44,14,14,0,0,0,4,2.35,21.94,21.94,0,0,1,6.07,3.48,7.71,7.71,0,0,1,2.26,5.84ZM844.92,353h-6.73l-9.08-15.39,11.34-15.35H844l-9.6,13.18L844.92,353Zm-16.14,0h-5.7V322.21h5.7V353Zm25.6,0h-5.65V322.21h5.65V353Zm27.06,0h-19V322.21h19v2.31H868.13v11.25H880.5v2.31H868.13v12.57h13.32V353Zm31.39-4a17.49,17.49,0,0,1-11.67,4.75A14.71,14.71,0,0,1,890,349.26q-4.26-4.45-4.26-11.65a16.08,16.08,0,0,1,4.31-11.49,14,14,0,0,1,10.61-4.57q7.72,0,11.39,6.36l-1.83,1.27q-2.82-5.6-8.38-5.6a8.53,8.53,0,0,0-7.32,3.79q-2.71,3.79-2.71,10.43,0,6.4,2.61,9.91a9.26,9.26,0,0,0,13.2,1.34V338.59h5.18V349Zm35.49-11.3a15.44,15.44,0,0,1-4.63,11.51,15.28,15.28,0,0,1-11.09,4.54,15.12,15.12,0,0,1-11.11-4.57,16.73,16.73,0,0,1,.07-23,15.22,15.22,0,0,1,11-4.54,15.57,15.57,0,0,1,9.32,3.06,15.21,15.21,0,0,1,6.4,13Zm-6.12,0q0-6.45-2.78-10.36a8.07,8.07,0,0,0-13.65,0q-2.78,4-2.78,10.36t2.73,10.24a8.07,8.07,0,0,0,13.74,0q2.73-3.84,2.73-10.24Z" transform="translate(-51.67 -84.53)"/></svg>