<svg xmlns="http://www.w3.org/2000/svg" xmlns:xlink="http://www.w3.org/1999/xlink" viewBox="0 0 245.01 358"><defs><style>.a{fill:none;}.b{clip-path:url(#a);}.c{fill:#008fa9;}.d,.e,.f{fill-rule:evenodd;}.e{fill:#c0151b;}.f{fill:#231f20;}.g{font-size:22.42px;fill:#58595b;font-family:PTSans-Regular, PT Sans;}.h{letter-spacing:-0.01em;}.i{letter-spacing:-0.01em;}.j{letter-spacing:0.01em;}.k{letter-spacing:-0.04em;}.l{font-family:PTSans-Bold, PT Sans;font-weight:700;}.m{letter-spacing:-0.05em;}.n{letter-spacing:-0.02em;}.o{letter-spacing:-0.01em;}</style><clipPath id="a"><rect class="a" x="5.59" y="-3.6" width="224.6" height="358.75"/></clipPath></defs><title>mkb_full</title><g class="b"><path class="c" d="M209.77,155.45a25.59,25.59,0,0,1-51.18,0H144a25.59,25.59,0,1,1-51.18,0H78.17A25.62,25.62,0,0,1,52.58,181h0A25.62,25.62,0,0,1,27,155.45H12.37a40.19,40.19,0,0,0,73.11,23.08,40.16,40.16,0,0,0,65.8,0,40.19,40.19,0,0,0,73.11-23.08Z"/><path class="c" d="M209.77,27.26a25.59,25.59,0,0,1-51.18,0H144a25.59,25.59,0,1,1-51.18,0H78.17A25.62,25.62,0,0,1,52.58,52.85h0A25.62,25.62,0,0,1,27,27.26H12.37A40.19,40.19,0,0,0,85.48,50.34a40.16,40.16,0,0,0,65.8,0,40.19,40.19,0,0,0,73.11-23.08Z"/><path class="c" d="M209.77,91.66a25.59,25.59,0,0,1-51.18,0H144a25.59,25.59,0,1,1-51.18,0H78.17a25.62,25.62,0,0,1-25.59,25.59h0A25.62,25.62,0,0,1,27,91.66H12.37a40.19,40.19,0,0,0,73.11,23.08,40.16,40.16,0,0,0,65.8,0,40.19,40.19,0,0,0,73.11-23.08Z"/><path class="c" d="M209.77,219.67a25.59,25.59,0,1,1-51.18,0H144a25.59,25.59,0,1,1-51.18,0H78.17a25.59,25.59,0,1,1-51.18,0H12.37a40.19,40.19,0,0,0,73.11,23.08,40.15,40.15,0,0,0,65.8,0,40.19,40.19,0,0,0,73.11-23.08Z"/><path class="d" d="M178.28,219.51a26.12,26.12,0,0,1-2.78-4.5c-1.7-4.56,1.08-8.83,6.23-9.46a13.76,13.76,0,0,1,5.85.58c5.16,1.73,6.57,7.6,3,11.71a10.91,10.91,0,0,0-1.16,1.44c4.93-1.92,8.66-1.23,10.78,2.05s1.54,8.62-1,11.13c-3,3-7.73,2.72-12.44-.64-1.14,1.73-.93,2.62,2.25,9.1h-9.15c1.62-2.8,3.62-5.5,2.09-9.25-2.47,2.38-5.31,3.56-8.48,2.69a10.94,10.94,0,0,1-4.57-2.64c-2.49-2.43-2.63-7.78-.62-10.63C170.48,218,173.44,217.5,178.28,219.51Z"/><path class="e" d="M52.55,47.37c-4.36-4.54-8.76-8.85-12.84-13.45-2.71-3.06-4.54-6.68-4-11,.56-4.19,3.72-7.34,7.53-7.51,4.7-.21,7.81,2.19,8.8,6.8A4.15,4.15,0,0,0,52.81,24c.12-.52.28-1,.36-1.57.68-4.26,4.33-7.56,8.14-7.34a8.65,8.65,0,0,1,8.19,8.35c.2,4.61-2,8.29-4.89,11.49C60.74,39.13,56.64,43.16,52.55,47.37Z"/><path class="f" d="M183.91,74.72c3.46,3.48,6.83,6.93,10.27,10.3,2.75,2.7,5.17,5.54,5.91,9.5a8.78,8.78,0,0,1-3.73,9.11c-2.94,1.89-6,1.64-9.19-.75a5.75,5.75,0,0,0-.76-.38c-.94,3.64.78,6.37,2.71,9.26h-9.51c1.84-2.75,3.42-5.57,2.34-9a23.55,23.55,0,0,1-4.35,1.72c-5.8,1-10.36-3.8-9.35-9.64a14.53,14.53,0,0,1,3.89-7.61c3.27-3.47,6.63-6.86,9.92-10.31C182.79,76.2,183.42,75.32,183.91,74.72Z"/><path class="e" d="M52.54,175.77,36.43,156.6l16.11-19.53L68.73,156.6Z"/><text class="g" transform="translate(42.22 303.69)">Międ<tspan class="h" x="47.2" y="0">z</tspan><tspan x="57" y="0">ynarod</tspan><tspan class="i" x="122.53" y="0">o</tspan><tspan class="j" x="134.3" y="0">w</tspan><tspan class="k" x="150.92" y="0">y</tspan><tspan class="l"><tspan class="m" x="0.46" y="26.91">K</tspan><tspan x="13.29" y="26.91">ongres Bał</tspan><tspan class="n" x="115.48" y="26.91">t</tspan><tspan class="o" x="122.79" y="26.91">y</tspan><tspan x="133.35" y="26.91">cki</tspan></tspan></text></g></svg>