<svg xmlns="http://www.w3.org/2000/svg" viewBox="0 0 874.66 243.78"><defs><style>.a{fill:#231f20;}.b{fill:#ec1c24;}.c{fill:#fff;}</style></defs><title>pjatk</title><path class="a" d="M349.37,208V169.84h18.25a7.41,7.41,0,0,1,5.44,2.29,7.54,7.54,0,0,1,2.28,5.48v9.64a7.72,7.72,0,0,1-7.72,7.71h-13v13a2.55,2.55,0,0,1-2.57,2.57,2.57,2.57,0,0,1-1.87-.75A2.46,2.46,0,0,1,349.37,208Zm5.2-18.13h13a2.49,2.49,0,0,0,1.81-.75,2.45,2.45,0,0,0,.76-1.82v-9.64a2.48,2.48,0,0,0-.76-1.83,2.53,2.53,0,0,0-1.81-.75h-13Z" transform="translate(-62.67 -128.11)"/><path class="a" d="M406.54,173.6l5.67,11.54a11.49,11.49,0,0,1,0,10.2l-5.67,11.42a6.29,6.29,0,0,1-6.13,3.76,6.58,6.58,0,0,1-3.69-1.07,7,7,0,0,1-2.47-2.69l-5.69-11.42a11.16,11.16,0,0,1-1.14-5.08,11.34,11.34,0,0,1,1.14-5.12l5.69-11.54a6.46,6.46,0,0,1,6.16-3.76A6.31,6.31,0,0,1,406.54,173.6Zm-7.84,2.57L393.37,187a7.64,7.64,0,0,0-.74,3.18,7.33,7.33,0,0,0,.74,3.22l5.48,11a1.56,1.56,0,0,0,1.56,1,1.64,1.64,0,0,0,1.5-1l5.51-11a7.45,7.45,0,0,0,.77-3.22,6.9,6.9,0,0,0-.77-3.18L402,176.17a1.71,1.71,0,0,0-1.62-1.19A1.87,1.87,0,0,0,398.7,176.17Z" transform="translate(-62.67 -128.11)"/><path class="a" d="M425.61,210.52V172.41a2.57,2.57,0,0,1,5.14,0v33h18.18a2.58,2.58,0,0,1,1.86.75,2.53,2.53,0,0,1,0,3.64,2.58,2.58,0,0,1-1.86.75Z" transform="translate(-62.67 -128.11)"/><path class="a" d="M469.53,169.84h13.39a7.3,7.3,0,0,1,6.83,7.07,2.52,2.52,0,0,1-.78,1.87,2.41,2.41,0,0,1-1.73.76,2.25,2.25,0,0,1-1.81-.59,6.57,6.57,0,0,1-.93-2.22,1.93,1.93,0,0,0-2-1.62H469.8c-.61,0-.92.19-.92.6a1.36,1.36,0,0,0,.38.86l19.13,24.38a6.08,6.08,0,0,1,1.38,3.79,5.67,5.67,0,0,1-1.67,4,5.07,5.07,0,0,1-3.72,1.75H470.5a7.1,7.1,0,0,1-6.83-6.71c0-1.92.9-2.87,2.7-2.87a2.4,2.4,0,0,1,1.77.75,2.44,2.44,0,0,1,.73,1.76,1.85,1.85,0,0,0,.57,1.38,2,2,0,0,0,1.42.55h12.8c.55,0,.82-.22.82-.66a1.27,1.27,0,0,0-.37-.8L465,179.54a6,6,0,0,1-1.36-3.79,5.76,5.76,0,0,1,1.72-4.15A5.56,5.56,0,0,1,469.53,169.84Z" transform="translate(-62.67 -128.11)"/><path class="a" d="M501.8,208V172.47a2.56,2.56,0,0,1,.75-1.87,2.44,2.44,0,0,1,1.82-.76,2.56,2.56,0,0,1,2.57,2.58v12.17l16.47-14.07a2.83,2.83,0,0,1,1.93-.67,2.38,2.38,0,0,1,1.81.79,2.55,2.55,0,0,1,.74,1.81,2.32,2.32,0,0,1-.84,1.76l-18.66,15.85,18.68,16.15a2,2,0,0,1,.75,1.65,2.68,2.68,0,0,1-.75,1.85,2.43,2.43,0,0,1-1.85.83,2.85,2.85,0,0,1-1.87-.71l-16.41-14.13V208a2.46,2.46,0,0,1-.75,1.82,2.56,2.56,0,0,1-3.62,0A2.45,2.45,0,0,1,501.8,208Z" transform="translate(-62.67 -128.11)"/><path class="a" d="M559,173.6l5.66,11.54a11.49,11.49,0,0,1,0,10.2L559,206.76a6.29,6.29,0,0,1-6.13,3.76,6.58,6.58,0,0,1-3.68-1.07,7,7,0,0,1-2.46-2.69L541,195.34a11.14,11.14,0,0,1-1.13-5.08,11.32,11.32,0,0,1,1.13-5.12l5.7-11.54a6.44,6.44,0,0,1,6.15-3.76A6.32,6.32,0,0,1,559,173.6Zm-7.84,2.57L545.85,187a7.65,7.65,0,0,0-.73,3.18,7.34,7.34,0,0,0,.73,3.22l5.48,11a1.56,1.56,0,0,0,1.56,1,1.63,1.63,0,0,0,1.5-1l5.51-11a7.42,7.42,0,0,0,.77-3.22,6.88,6.88,0,0,0-.77-3.18l-5.38-10.84a1.71,1.71,0,0,0-1.63-1.19A1.87,1.87,0,0,0,551.18,176.17Z" transform="translate(-62.67 -128.11)"/><path class="a" d="M604,190v2.26a2.58,2.58,0,0,1-.75,1.86,2.43,2.43,0,0,1-1.82.78H580.68a2.45,2.45,0,0,1-1.83-.78,2.58,2.58,0,0,1-.74-1.86V190a2.55,2.55,0,0,1,2.57-2.57h20.75a2.59,2.59,0,0,1,1.77.71A2.39,2.39,0,0,1,604,190Z" transform="translate(-62.67 -128.11)"/><path class="a" d="M618.73,202.75v-8.14a2.57,2.57,0,1,1,5.14,0v8.2a2.39,2.39,0,0,0,.77,1.78,2.6,2.6,0,0,0,1.87.74h5.2a2.56,2.56,0,0,0,1.85-.76,2.41,2.41,0,0,0,.79-1.82V172.41a2.52,2.52,0,0,1,.74-1.83,2.4,2.4,0,0,1,1.77-.75,2.47,2.47,0,0,1,1.83.83,2.59,2.59,0,0,1,.8,1.87v30.22a7.33,7.33,0,0,1-2.36,5.51,7.6,7.6,0,0,1-5.42,2.27h-5.2a7.81,7.81,0,0,1-7.78-7.78Z" transform="translate(-62.67 -128.11)"/><path class="a" d="M654.5,206.94l10.35-35.19a2.51,2.51,0,0,1,2.6-1.91,2.25,2.25,0,0,1,2.42,1.62l10.25,35.73a2.43,2.43,0,0,1,.12.77,2.49,2.49,0,0,1-.74,1.82,2.28,2.28,0,0,1-1.69.75,2.42,2.42,0,0,1-2.57-1.87l-2-7H661.44l-2.24,7.48a1.54,1.54,0,0,1-.77.93,2.7,2.7,0,0,1-1.48.44,2.49,2.49,0,0,1-1.88-.76,2.59,2.59,0,0,1-.74-1.87A3.08,3.08,0,0,1,654.5,206.94Zm12.92-25.2L663,196.47h8.7Z" transform="translate(-62.67 -128.11)"/><path class="a" d="M692.46,208V169.84h18.25a7.42,7.42,0,0,1,5.44,2.29,7.55,7.55,0,0,1,2.28,5.48v9.64a7.73,7.73,0,0,1-7.72,7.71h-13v13a2.56,2.56,0,0,1-2.57,2.57,2.55,2.55,0,0,1-1.87-.75A2.45,2.45,0,0,1,692.46,208Zm5.21-18.13h13a2.6,2.6,0,0,0,2.57-2.57v-9.64a2.58,2.58,0,0,0-2.57-2.58h-13Z" transform="translate(-62.67 -128.11)"/><path class="a" d="M749.62,173.6l5.67,11.54a11.45,11.45,0,0,1,0,10.2l-5.67,11.42a6.26,6.26,0,0,1-6.11,3.76,6.61,6.61,0,0,1-3.7-1.07,7,7,0,0,1-2.47-2.69l-5.69-11.42a11.2,11.2,0,0,1-1.13-5.08,11.38,11.38,0,0,1,1.13-5.12l5.69-11.54a6.45,6.45,0,0,1,6.16-3.76A6.29,6.29,0,0,1,749.62,173.6Zm-7.83,2.57L736.47,187a7.62,7.62,0,0,0-.74,3.18,7.31,7.31,0,0,0,.74,3.22l5.48,11a1.55,1.55,0,0,0,1.56,1,1.62,1.62,0,0,0,1.49-1l5.52-11a7.53,7.53,0,0,0,.76-3.22,7,7,0,0,0-.76-3.18l-5.39-10.84a1.7,1.7,0,0,0-1.62-1.19A1.89,1.89,0,0,0,741.79,176.17Z" transform="translate(-62.67 -128.11)"/><path class="a" d="M794.61,172.47v38.05h-6.92l-13.83-31.59v29a2.56,2.56,0,0,1-2.58,2.57,2.44,2.44,0,0,1-1.81-.76,2.47,2.47,0,0,1-.76-1.81V169.84h6.82l13.87,31.53v-28.9a2.67,2.67,0,0,1,2.63-2.63,2.45,2.45,0,0,1,1.82.76A2.57,2.57,0,0,1,794.61,172.47Zm-7.53-13.68a1.82,1.82,0,0,1,1-.31,1.85,1.85,0,0,1,1.6,1,3.85,3.85,0,0,1,.63,2.16,3,3,0,0,1-1.29,2.79l-8.27,5.11a1.82,1.82,0,0,1-1,.31,1.87,1.87,0,0,1-1.61-1,3.92,3.92,0,0,1-.63-2.16,3,3,0,0,1,1.29-2.79Z" transform="translate(-62.67 -128.11)"/><path class="a" d="M812.62,169.84H826a6.7,6.7,0,0,1,4.64,2.07,6.6,6.6,0,0,1,2.19,5,2.52,2.52,0,0,1-.77,1.87,2.42,2.42,0,0,1-1.74.76,2.22,2.22,0,0,1-1.8-.59,6.42,6.42,0,0,1-.94-2.22,1.93,1.93,0,0,0-2-1.62H812.9c-.62,0-.92.19-.92.6a1.36,1.36,0,0,0,.37.86l19.12,24.38a6.08,6.08,0,0,1,1.38,3.79,5.62,5.62,0,0,1-1.67,4,5,5,0,0,1-3.71,1.75H813.59a7.07,7.07,0,0,1-6.82-6.71c0-1.92.9-2.87,2.68-2.87a2.41,2.41,0,0,1,1.78.74,2.44,2.44,0,0,1,.74,1.76,1.82,1.82,0,0,0,.57,1.38,1.92,1.92,0,0,0,1.42.55h12.79c.55,0,.82-.22.82-.66a1.35,1.35,0,0,0-.37-.8l-19.09-24.38a6,6,0,0,1-1.35-3.79,5.73,5.73,0,0,1,1.72-4.15A5.53,5.53,0,0,1,812.62,169.84Z" transform="translate(-62.67 -128.11)"/><path class="a" d="M844.89,208V172.47a2.57,2.57,0,0,1,.75-1.87,2.45,2.45,0,0,1,1.82-.76,2.56,2.56,0,0,1,2.57,2.58v12.17l16.47-14.07a2.82,2.82,0,0,1,1.93-.67,2.38,2.38,0,0,1,1.81.79,2.57,2.57,0,0,1,.73,1.81,2.29,2.29,0,0,1-.85,1.76l-18.65,15.85,18.69,16.15a2.06,2.06,0,0,1,.76,1.65,2.7,2.7,0,0,1-.75,1.85,2.42,2.42,0,0,1-1.85.83,2.82,2.82,0,0,1-1.87-.71L850,195.69V208a2.56,2.56,0,0,1-4.38,1.81A2.45,2.45,0,0,1,844.89,208Z" transform="translate(-62.67 -128.11)"/><path class="a" d="M883.22,206.94l10.36-35.19a2.51,2.51,0,0,1,2.59-1.91,2.24,2.24,0,0,1,2.42,1.62l10.26,35.73a2.42,2.42,0,0,1,.12.77,2.5,2.5,0,0,1-.73,1.81,2.29,2.29,0,0,1-1.68.76,2.42,2.42,0,0,1-2.58-1.87l-2-7H890.18l-2.23,7.48a1.6,1.6,0,0,1-.77.93,2.73,2.73,0,0,1-1.48.44,2.48,2.48,0,0,1-1.87-.76,2.58,2.58,0,0,1-.74-1.87A3.48,3.48,0,0,1,883.22,206.94Zm12.93-25.2-4.43,14.73h8.72Z" transform="translate(-62.67 -128.11)"/><path class="a" d="M349.51,273l10.35-35.19a2.52,2.52,0,0,1,2.6-1.91,2.24,2.24,0,0,1,2.41,1.62l10.26,35.73a2.56,2.56,0,0,1,.12.77,2.51,2.51,0,0,1-.72,1.81,2.28,2.28,0,0,1-1.69.76,2.41,2.41,0,0,1-2.57-1.87l-2-7H356.46l-2.24,7.48a1.54,1.54,0,0,1-.76.93,2.74,2.74,0,0,1-1.49.44,2.48,2.48,0,0,1-1.87-.76,2.61,2.61,0,0,1-.74-1.87A3.26,3.26,0,0,1,349.51,273Zm12.92-25.2L358,262.49h8.7Z" transform="translate(-62.67 -128.11)"/><path class="a" d="M387.43,274V238.48a2.57,2.57,0,0,1,.74-1.87,2.46,2.46,0,0,1,1.82-.76,2.55,2.55,0,0,1,2.57,2.58v12.17L409,236.52a2.8,2.8,0,0,1,1.93-.67,2.37,2.37,0,0,1,1.81.79,2.56,2.56,0,0,1,.73,1.81,2.29,2.29,0,0,1-.84,1.76L394,256.07l18.68,16.15a2,2,0,0,1,.77,1.65,2.69,2.69,0,0,1-.76,1.85,2.4,2.4,0,0,1-1.84.83,2.83,2.83,0,0,1-1.87-.71L392.56,261.7V274a2.54,2.54,0,0,1-2.57,2.57,2.51,2.51,0,0,1-1.81-.76A2.43,2.43,0,0,1,387.43,274Z" transform="translate(-62.67 -128.11)"/><path class="a" d="M425.75,273l10.36-35.19a2.51,2.51,0,0,1,2.6-1.91,2.23,2.23,0,0,1,2.41,1.62l10.26,35.73a2.72,2.72,0,0,1,.12.77,2.48,2.48,0,0,1-.74,1.81,2.26,2.26,0,0,1-1.68.76,2.42,2.42,0,0,1-2.57-1.87l-2-7H432.7l-2.24,7.48a1.57,1.57,0,0,1-.76.93,2.75,2.75,0,0,1-1.49.44,2.5,2.5,0,0,1-1.88-.76,2.61,2.61,0,0,1-.74-1.87A3.36,3.36,0,0,1,425.75,273Zm12.93-25.2-4.41,14.73H443Z" transform="translate(-62.67 -128.11)"/><path class="a" d="M466.24,235.85H476.4a7.1,7.1,0,0,1,3.87,1.29,7.85,7.85,0,0,1,2.77,3l5.08,10.28a12.09,12.09,0,0,1-.1,11.61l-5.11,10.16a7.74,7.74,0,0,1-2.82,3.14,7.47,7.47,0,0,1-4.1,1.18h-9.83a2.45,2.45,0,0,1-1.82-.76,2.49,2.49,0,0,1-.75-1.8,2.58,2.58,0,0,1,.75-1.86,2.44,2.44,0,0,1,1.82-.77h2.7V241.05h-2.63a2.44,2.44,0,0,1-1.83-.79,2.56,2.56,0,0,1-.74-1.84,2.51,2.51,0,0,1,.74-1.81A2.47,2.47,0,0,1,466.24,235.85Zm7.77,5.2v30.34h1.8a2.75,2.75,0,0,0,2.57-1.68l5.08-10.1a8.36,8.36,0,0,0,1-3.34,7,7,0,0,0-.76-3.18l-5.28-10.47a2.81,2.81,0,0,0-2.69-1.56Z" transform="translate(-62.67 -128.11)"/><path class="a" d="M525.17,241.06H507v12.52h7.84a2.62,2.62,0,0,1,2.57,2.57,2.6,2.6,0,0,1-.75,1.87,2.49,2.49,0,0,1-1.82.76H507v12.61h18.24a2.59,2.59,0,0,1,2.57,2.58,2.43,2.43,0,0,1-.78,1.81,2.58,2.58,0,0,1-1.85.76H501.84V235.85h23.33a2.67,2.67,0,0,1,2.63,2.63,2.47,2.47,0,0,1-.78,1.81A2.59,2.59,0,0,1,525.17,241.06Z" transform="translate(-62.67 -128.11)"/><path class="a" d="M550.31,251.83v-1.32l-5.33-7.6v31a2.56,2.56,0,0,1-4.39,1.8,2.51,2.51,0,0,1-.76-1.8V235.85h6.66l6.32,9.22,6.53-9.22h6.52V274a2.4,2.4,0,0,1-.78,1.81,2.56,2.56,0,0,1-1.86.76,2.48,2.48,0,0,1-1.81-.76,2.51,2.51,0,0,1-.76-1.8V243l-5.2,7.35v1.44a2.45,2.45,0,0,1-.77,1.81,2.54,2.54,0,0,1-3.62,0A2.52,2.52,0,0,1,550.31,251.83Z" transform="translate(-62.67 -128.11)"/><path class="a" d="M580.6,235.85h20.82a2.65,2.65,0,0,1,2.57,2.58,2.52,2.52,0,0,1-.77,1.84,2.43,2.43,0,0,1-1.81.79h-7.78v30.34h7.78A2.56,2.56,0,0,1,604,274a2.43,2.43,0,0,1-.77,1.81,2.48,2.48,0,0,1-1.81.76H580.6a2.57,2.57,0,1,1,0-5.14h7.9V241.06h-7.9a2.58,2.58,0,0,1-2.57-2.57,2.56,2.56,0,0,1,.75-1.87A2.45,2.45,0,0,1,580.6,235.85Z" transform="translate(-62.67 -128.11)"/><path class="a" d="M616.36,273l10.35-35.19a2.51,2.51,0,0,1,2.6-1.91,2.25,2.25,0,0,1,2.41,1.62L642,273.2a2.54,2.54,0,0,1,.13.77,2.48,2.48,0,0,1-.74,1.81,2.29,2.29,0,0,1-1.69.76,2.41,2.41,0,0,1-2.56-1.87l-2-7H623.31l-2.24,7.48a1.52,1.52,0,0,1-.76.93,2.72,2.72,0,0,1-1.48.44,2.5,2.5,0,0,1-1.88-.76,2.61,2.61,0,0,1-.73-1.87A3.32,3.32,0,0,1,616.36,273Zm12.91-25.2-4.41,14.73h8.7Z" transform="translate(-62.67 -128.11)"/><path class="a" d="M682.51,242.86v-6.95h26v7a2.44,2.44,0,0,1-.77,1.82,2.47,2.47,0,0,1-1.8.75,2.57,2.57,0,0,1-1.86-.76,2.47,2.47,0,0,1-.77-1.81v-1.87h-5.2V274a2.45,2.45,0,0,1-.77,1.83,2.5,2.5,0,0,1-1.8.75,2.58,2.58,0,0,1-1.87-.75,2.49,2.49,0,0,1-.76-1.83V241.06h-5.21v1.8a2.57,2.57,0,1,1-5.14,0Z" transform="translate(-62.67 -128.11)"/><path class="a" d="M744,241.06H725.84v12.52h7.83a2.44,2.44,0,0,1,1.8.76,2.48,2.48,0,0,1,.77,1.8,2.56,2.56,0,0,1-.74,1.87,2.48,2.48,0,0,1-1.83.77h-7.83V271.4h18.24a2.55,2.55,0,0,1,1.8,4.39,2.58,2.58,0,0,1-1.85.75H720.7V235.85H744a2.67,2.67,0,0,1,2.63,2.63,2.45,2.45,0,0,1-.77,1.8A2.53,2.53,0,0,1,744,241.06Z" transform="translate(-62.67 -128.11)"/><path class="a" d="M772.92,271.4h9.28a2.54,2.54,0,0,1,1.85.75,2.41,2.41,0,0,1,.79,1.82,2.44,2.44,0,0,1-.79,1.82,2.56,2.56,0,0,1-1.85.75h-9.61a7.38,7.38,0,0,1-3.8-1.17,7,7,0,0,1-2.73-2.6l-5.94-11.47a11.65,11.65,0,0,1-1.19-5.08,10.43,10.43,0,0,1,1.13-5l6-11.35a8,8,0,0,1,2.67-2.8,6.23,6.23,0,0,1,3.49-1.22h10.16a2.46,2.46,0,0,1,1.82.76,2.51,2.51,0,0,1,.76,1.81,2.59,2.59,0,0,1-.76,1.85,2.41,2.41,0,0,1-1.82.78H772.6a2.27,2.27,0,0,0-2,1.44l-5.71,10.65a6.27,6.27,0,0,0-.67,3,6.76,6.76,0,0,0,.73,3.19l5.44,10.48A2.61,2.61,0,0,0,772.92,271.4Z" transform="translate(-62.67 -128.11)"/><path class="a" d="M796.81,274V238.42a2.51,2.51,0,0,1,.75-1.81,2.58,2.58,0,0,1,4.4,1.81v15.15h15.68V238.42a2.5,2.5,0,0,1,.75-1.81,2.55,2.55,0,0,1,3.65,0,2.58,2.58,0,0,1,.75,1.87V274a2.43,2.43,0,0,1-.79,1.8,2.55,2.55,0,0,1-3.63,0,2.53,2.53,0,0,1-.73-1.82V258.72H802V274a2.43,2.43,0,0,1-.79,1.8,2.52,2.52,0,0,1-1.85.77,2.59,2.59,0,0,1-2.57-2.57Z" transform="translate(-62.67 -128.11)"/><path class="a" d="M861,238.48v38.05h-6.9L840.2,244.94v29a2.57,2.57,0,1,1-5.14,0V235.85h6.8l13.9,31.54v-28.9a2.61,2.61,0,0,1,4.46-1.87A2.58,2.58,0,0,1,861,238.48Z" transform="translate(-62.67 -128.11)"/><path class="a" d="M875.69,235.85h20.82a2.49,2.49,0,0,1,1.79.76,2.44,2.44,0,0,1,.78,1.81,2.55,2.55,0,0,1-.77,1.85,2.41,2.41,0,0,1-1.8.78h-7.77V271.4h7.77a2.57,2.57,0,0,1,0,5.13H875.69a2.47,2.47,0,0,1-1.82-.75,2.5,2.5,0,0,1-.76-1.82,2.47,2.47,0,0,1,.76-1.82,2.45,2.45,0,0,1,1.82-.75h7.91V241.06h-7.91a2.42,2.42,0,0,1-1.82-.77,2.5,2.5,0,0,1-.76-1.8,2.59,2.59,0,0,1,.76-1.87A2.45,2.45,0,0,1,875.69,235.85Z" transform="translate(-62.67 -128.11)"/><path class="a" d="M911.23,274V238.48a2.59,2.59,0,0,1,.76-1.87,2.56,2.56,0,0,1,4.39,1.81v12.16l16.48-14.06a2.81,2.81,0,0,1,1.93-.68,2.36,2.36,0,0,1,1.8.79,2.56,2.56,0,0,1,.74,1.81,2.31,2.31,0,0,1-.85,1.76l-18.65,15.86,18.69,16.14a2,2,0,0,1,.75,1.66,2.69,2.69,0,0,1-.75,1.84,2.39,2.39,0,0,1-1.85.83,2.86,2.86,0,0,1-1.88-.7l-16.41-14.12V274a2.48,2.48,0,0,1-.74,1.82,2.51,2.51,0,0,1-1.82.75,2.6,2.6,0,0,1-2.58-2.57Z" transform="translate(-62.67 -128.11)"/><path class="a" d="M349.56,339V303.47a2.57,2.57,0,0,1,.75-1.87,2.57,2.57,0,0,1,4.4,1.81v12.17l16.47-14.06a2.81,2.81,0,0,1,1.93-.68,2.36,2.36,0,0,1,1.8.79,2.56,2.56,0,0,1,.74,1.81,2.26,2.26,0,0,1-.85,1.76l-18.65,15.86,18.69,16.14a2.06,2.06,0,0,1,.75,1.65,2.67,2.67,0,0,1-.75,1.84,2.39,2.39,0,0,1-1.85.83,2.83,2.83,0,0,1-1.87-.7L354.71,326.7V339a2.57,2.57,0,0,1-5.14,0Z" transform="translate(-62.67 -128.11)"/><path class="a" d="M406.78,304.6l5.67,11.54a11.48,11.48,0,0,1,0,10.19l-5.67,11.42a6.26,6.26,0,0,1-6.11,3.77,6.66,6.66,0,0,1-3.69-1.07,7,7,0,0,1-2.46-2.7l-5.7-11.42a11.07,11.07,0,0,1-1.13-5.09,11.25,11.25,0,0,1,1.13-5.11l5.7-11.54a6.45,6.45,0,0,1,6.16-3.76A6.3,6.3,0,0,1,406.78,304.6Zm-7.84,2.57L393.62,318a7.69,7.69,0,0,0-.73,3.19,7.35,7.35,0,0,0,.73,3.21l5.48,11a1.56,1.56,0,0,0,1.56,1,1.62,1.62,0,0,0,1.49-1l5.51-11a7.5,7.5,0,0,0,.76-3.21,6.92,6.92,0,0,0-.76-3.19l-5.39-10.84a1.71,1.71,0,0,0-1.62-1.19A1.91,1.91,0,0,0,398.94,307.17Z" transform="translate(-62.67 -128.11)"/><path class="a" d="M436.21,316.81V315.5l-5.33-7.59v31a2.56,2.56,0,0,1-2.57,2.57,2.45,2.45,0,0,1-1.82-.77,2.48,2.48,0,0,1-.75-1.8V300.84h6.65l6.32,9.22,6.52-9.22h6.53V339a2.47,2.47,0,0,1-.79,1.82,2.59,2.59,0,0,1-1.85.75,2.62,2.62,0,0,1-2.57-2.57V308l-5.2,7.34v1.44a2.57,2.57,0,0,1-4.4,1.81A2.5,2.5,0,0,1,436.21,316.81Z" transform="translate(-62.67 -128.11)"/><path class="a" d="M464,339V300.84h18.25a7.41,7.41,0,0,1,5.44,2.3,7.53,7.53,0,0,1,2.28,5.48v9.65a7.75,7.75,0,0,1-7.71,7.72h-13v13a2.56,2.56,0,0,1-2.57,2.57,2.57,2.57,0,0,1-1.87-.75A2.47,2.47,0,0,1,464,339Zm5.2-18.12h13a2.6,2.6,0,0,0,2.57-2.57v-9.65a2.59,2.59,0,0,0-2.57-2.57h-13Z" transform="translate(-62.67 -128.11)"/><path class="a" d="M502,333.81V303.47a2.54,2.54,0,0,1,.76-1.85,2.45,2.45,0,0,1,1.81-.78,2.62,2.62,0,0,1,2.57,2.57v30.4a2.38,2.38,0,0,0,.76,1.75,2.48,2.48,0,0,0,1.81.75h10.53a2.52,2.52,0,0,0,1.83-.74,2.39,2.39,0,0,0,.75-1.77V303.47a2.57,2.57,0,0,1,.75-1.87,2.55,2.55,0,0,1,3.64,0,2.58,2.58,0,0,1,.75,1.87v30.28a7.51,7.51,0,0,1-2.28,5.48,7.41,7.41,0,0,1-5.44,2.3H509.76a7.73,7.73,0,0,1-7.71-7.71Z" transform="translate(-62.67 -128.11)"/><path class="a" d="M540.17,307.85V300.9h26v7a2.59,2.59,0,0,1-2.57,2.57,2.55,2.55,0,0,1-1.85-.76,2.48,2.48,0,0,1-.78-1.81V306h-5.21V339a2.58,2.58,0,0,1-2.57,2.57,2.56,2.56,0,0,1-1.87-.75,2.47,2.47,0,0,1-.77-1.82V306h-5.2v1.8a2.51,2.51,0,0,1-.75,1.83,2.59,2.59,0,0,1-3.64,0A2.51,2.51,0,0,1,540.17,307.85Z" transform="translate(-62.67 -128.11)"/><path class="a" d="M601.68,306H583.49v12.53h7.84a2.62,2.62,0,0,1,2.57,2.57,2.56,2.56,0,0,1-.75,1.87,2.46,2.46,0,0,1-1.82.77h-7.84v12.62h18.25a2.46,2.46,0,0,1,1.8.75,2.52,2.52,0,0,1,0,3.64,2.55,2.55,0,0,1-1.85.75H578.35V300.84h23.32a2.68,2.68,0,0,1,2.63,2.63,2.42,2.42,0,0,1-.79,1.8A2.5,2.5,0,0,1,601.68,306Z" transform="translate(-62.67 -128.11)"/><path class="a" d="M616.54,339V300.84h18.18a7.39,7.39,0,0,1,5.44,2.3,7.5,7.5,0,0,1,2.28,5.48v2.94a7.53,7.53,0,0,1-2.27,5.5,7.41,7.41,0,0,1-5.45,2.28h-3.27l10.49,18.06a3,3,0,0,1,.49,1.6,2.36,2.36,0,0,1-.8,1.79,2.59,2.59,0,0,1-1.82.75,2.51,2.51,0,0,1-2.32-1.37l-12.05-20.83h-3.71V339a2.43,2.43,0,0,1-.79,1.82,2.57,2.57,0,0,1-1.85.75,2.55,2.55,0,0,1-2.57-2.57Zm5.14-24.77h13a2.55,2.55,0,0,0,2.58-2.57v-3a2.56,2.56,0,0,0-2.58-2.57h-13Z" transform="translate(-62.67 -128.11)"/><path class="a" d="M673.63,304.6l5.67,11.54a11.55,11.55,0,0,1,0,10.19l-5.67,11.42a6.27,6.27,0,0,1-6.12,3.77,6.66,6.66,0,0,1-3.69-1.07,6.88,6.88,0,0,1-2.46-2.7l-5.7-11.42a11,11,0,0,1-1.13-5.09,11.18,11.18,0,0,1,1.13-5.11l5.7-11.54a6.45,6.45,0,0,1,6.15-3.76A6.3,6.3,0,0,1,673.63,304.6Zm-7.83,2.57L660.47,318a7.79,7.79,0,0,0-.73,3.19,7.44,7.44,0,0,0,.73,3.21l5.49,11a1.55,1.55,0,0,0,1.56,1,1.61,1.61,0,0,0,1.49-1l5.52-11a7.45,7.45,0,0,0,.76-3.21,6.88,6.88,0,0,0-.76-3.19l-5.39-10.84a1.72,1.72,0,0,0-1.62-1.19A1.87,1.87,0,0,0,665.81,307.17Z" transform="translate(-62.67 -128.11)"/><path class="a" d="M708.28,316.76v17.11l1.49,2.52h2.15l1.56-2.58V303.47a2.66,2.66,0,0,1,2.63-2.63,2.5,2.5,0,0,1,1.8.76,2.46,2.46,0,0,1,.77,1.81v31.23a3.49,3.49,0,0,1-.65,1.62l-2.38,3.95a2.4,2.4,0,0,1-2.24,1.32h-4.83a2.78,2.78,0,0,1-2.95-2.08,2.74,2.74,0,0,1-2.8,2.08h-4.54a3,3,0,0,1-2.82-1.44l-2.19-3.7a3.47,3.47,0,0,1-.61-1.75V303.47a2.65,2.65,0,0,1,2.63-2.63,2.37,2.37,0,0,1,1.76.78,2.59,2.59,0,0,1,.74,1.85v30.46l1.5,2.45h2.21l1.62-2.58V316.76a2.55,2.55,0,0,1,2.58-2.57,2.57,2.57,0,0,1,2.57,2.57Z" transform="translate(-62.67 -128.11)"/><path class="a" d="M746.45,322v16.95a2.45,2.45,0,0,1-.77,1.83,2.5,2.5,0,0,1-1.8.75,2.57,2.57,0,0,1-1.87-.75,2.47,2.47,0,0,1-.77-1.82V322l-10.34-13.1v-5.44a2.57,2.57,0,0,1,.74-1.87,2.56,2.56,0,0,1,3.67,0,2.5,2.5,0,0,1,.79,1.86V307l7.72,9.91,7.83-9.9v-3.57a2.57,2.57,0,0,1,.77-1.85,2.46,2.46,0,0,1,1.81-.78,2.55,2.55,0,0,1,1.79.72,2.48,2.48,0,0,1,.77,1.92v5.39Z" transform="translate(-62.67 -128.11)"/><path class="a" d="M783.06,336.39h9.29a2.54,2.54,0,0,1,1.85.75,2.5,2.5,0,0,1,0,3.64,2.55,2.55,0,0,1-1.85.75h-9.61a7.37,7.37,0,0,1-3.8-1.17,7,7,0,0,1-2.72-2.6l-5.94-11.47a11.66,11.66,0,0,1-1.19-5.08,10.37,10.37,0,0,1,1.14-5l6-11.35a7.91,7.91,0,0,1,2.66-2.8,6.26,6.26,0,0,1,3.5-1.21h10.16a2.58,2.58,0,0,1,2.57,2.57,2.56,2.56,0,0,1-.75,1.85,2.41,2.41,0,0,1-1.82.78h-9.8a2.26,2.26,0,0,0-2,1.44l-5.71,10.65a6.06,6.06,0,0,0-.67,3,6.63,6.63,0,0,0,.72,3.19l5.45,10.47A2.59,2.59,0,0,0,783.06,336.39Z" transform="translate(-62.67 -128.11)"/><path class="a" d="M807,339V303.41a2.5,2.5,0,0,1,.76-1.81,2.58,2.58,0,0,1,4.39,1.81v15.16h15.69V303.41a2.56,2.56,0,0,1,4.38-1.81,2.57,2.57,0,0,1,.75,1.87V339a2.44,2.44,0,0,1-.77,1.8,2.56,2.56,0,0,1-3.64,0,2.55,2.55,0,0,1-.72-1.82V323.71H812.15V339a2.43,2.43,0,0,1-.77,1.8,2.57,2.57,0,0,1-1.86.77,2.52,2.52,0,0,1-1.8-.75A2.47,2.47,0,0,1,807,339Z" transform="translate(-62.67 -128.11)"/><path class="a" d="M92.1,206.81c-.84.56-1.69,1.69-3.1,1.27-.43-2.26-2.11-1.42-3-1.55a5,5,0,0,1,.14-1.41c1.27-.15,2.38-.28,3.8-.42v-5.64c-4.22-.14-8.31-.27-12.25-.27v-1.28l8.59-.43c1.27-.12,2.39-.28,3.66-.41,0-1.13.14-2.12.14-3.25a5.58,5.58,0,0,0,3.81-1.55c0-.42,0-.42-11.56-.42,0-1.55,0-1.55.3-1.55,5.06-.29,10-.42,15.07-.71.7.57,1.68,1,1.26,2.53-3,.56-4.09,2.11-6.34,3.8v1c2.54,0,5.36,0,8.18.14,1.26-1.13,4.93-2.82,4.93,1.25-2.54.29-4.93.57-7.33.86,0,.27,0,.27-5.78.27v7.75ZM80.55,184.56c-.28,0-.56,0-.56-.84H78.86c-.29,2.1-1.13,3.66-2.26,6.05A11.38,11.38,0,0,1,77,191c.7-.13,1.27-.27,2-.42a31.22,31.22,0,0,1,1.55-3.8c6.9-.28,13.81-.43,20.57-.57-.28,1-.56,2.11-.86,3.25.86,0,.86,0,5.08-2.1C103.93,180.6,99,186,97,184c1.55-2,3.94-3.65,4.22-4.5a7,7,0,0,0-3.1-1.7c-1.26,2.26-2.11,4.5-3.24,6.76Zm3-.29c-1.27-3-2.55-4.09-3-5.21a.75.75,0,0,1,.57-.42c2.11.55,4.51,1.53,4.08,5.62Zm7-1.27c-2.39,0-3.52-5.06-3.66-5.78,2.11.29,5.21,1.28,4.5,5.63A1.49,1.49,0,0,0,90.54,183Z" transform="translate(-62.67 -128.11)"/><path class="a" d="M74.21,222.79c0,.13-9.86.13-11,.13a5.4,5.4,0,0,1-.14-1.4c3.66-.29,7.18-.42,10.84-.57.15-3,.28-6.06.42-8.87a22.07,22.07,0,0,1,2.81.28c-.41,1.55-.41,1.55-.41,8.59,0,.28,9.72.28,9.72,0a4.28,4.28,0,0,1,1.13-1.26c1.26,0,1.69.27,3.66,1.68A3.17,3.17,0,0,0,91,222.5c-4.23.14-8.59.42-12.82.56,2.12,7.6,5.2,10.84,12.82,15.21v.85c-8.31,3.23-12.26-9.3-14.22-13.66C74.35,233.2,71,239,62.67,241.51c.7-2.53,3.8-3.81,6.33-5.63C71.68,232.78,74.08,226.16,74.21,222.79Z" transform="translate(-62.67 -128.11)"/><path class="a" d="M68.79,283c-.28-3.8-.42-7.75-.42-11.55a4.87,4.87,0,0,0-.42-.85c-1.69,2-3.39,4.09-5.07,6.21,0-4.51,3.52-8.46,4.79-12.54-1.55-.14-3.24-.14-4.93-.14v-1.27a35.21,35.21,0,0,1,5.49-.42v-4.51c-1.69.28-3.52.44-5.35.71a1.8,1.8,0,0,1-.14-.84c3.38-2.12,8.45-6.2,12.95-3.66v1.41c-1.68.43-3.37,1-4.93,1.4-.14,1.69-.14,3.38-.14,5.22,1.83,0,2-1.13,3.66-1.27a28.28,28.28,0,0,0,2.39,1.83v.85c-2.11.28-4.09.57-5.91.7.15.7.15,1.26.29,1.83,2.4,1.27,3.8.58,3.8,4.51a11.6,11.6,0,0,0-2-.28c-1.13-1.69-1.13-1.26-2.26-1.54,0,4.51,0,9,.14,13.65a8.29,8.29,0,0,0-2,.56Zm15.2-.41c.57-.29,1.28-.56,2-.86.14-3.24.28-6.61.42-10,1.55-.42,3.09-.85,4.79-1.41,0-2.82-1-3-2.26-3.23a7.06,7.06,0,0,0-.85,2.11H86.25c0-4.23-1.12-13.38.56-15.21v-1.4c-1.12-.15-2.25-.15-3.23-.29V270c-3.94.85-8.17.85-11,2.68a2.6,2.6,0,0,0,.29,1c1.55.14,1.55.14,9.57-1.55,0-.42,0-.42,1.55-.42v10.85Zm-7.32-19c1,.28,1.27,4.5,5.08,5.22-.43-4.65-.43-3.82-3.81-6.35a3.26,3.26,0,0,0-1.27.28v.85Zm3.95-3c-1.55-2.25-3.39-3.94-3.39-5.92,2.11.29,5.36,1.28,4.8,5.5C81.6,260.33,81,260.48,80.62,260.61Z" transform="translate(-62.67 -128.11)"/><path class="a" d="M74.17,314.88H85.87V295H74.6a5.85,5.85,0,0,1,.14-1.55c4.79-.15,9.58-.15,14.51-.29,2.82-.14,5.62-1.12,8.31-1.69.42.29,2.53,1,2,3.11a12.34,12.34,0,0,0-2.4.15c-2.81.13-5.63.27-8.45.42v19.16h8.45c2.11-1.69,2.11-2.25,5.35,0-.15,1.39-.15,1.39-.56,1.69l-20,.42c-2.68-.15-5.21-.15-7.76-.15Z" transform="translate(-62.67 -128.11)"/><path class="a" d="M148.59,368.79V340.49a23.91,23.91,0,0,1,3.23.56c0,1.27-.84,2.83-.57,5.78l3.39,2.12a23.88,23.88,0,0,0,.28,3.09H153.8c-1.27-2-2-2.38-3-2.8,0,.85.15,1.69.15,2.67-.28,0-.28,17.6,0,17.6-.15.43-.28,1.13-.43,1.7a8.36,8.36,0,0,1-1.68.28,12.71,12.71,0,0,1-.28-2.68Zm-3.39-11.68c3.39-1.7,2.25-4.51,2.25-7.33a4.39,4.39,0,0,0-1.26-.14c-.29,2.53-1.55,4.08-1.55,7,.14.14.42.29.56.43Zm8.6-5.08a8,8,0,0,0-.29,2c6.61-.16,13.38-.16,20.14-.29,0-1.13,0-2.11-.85-2.39-2.81,0-5.77.12-8.44.28v-1.13c2.53-.14,5.07-.29,7.6-.42v-1.84c-2.81-1.69-5.63-.15-7.46,0a7.41,7.41,0,0,1-.14-1.83c3-.15,5.91-.15,8.73-.28.29-1.27-.14-1.83-1-2.68-3.38.28-5.21,1-7.74,1a14,14,0,0,1,.85-3.52c-3.81-.85-3.68-.43-3.68,3.22-2.52.29-4.92.42-7.31.85v1.26c2.38,0,4.79.15,7.31.3v1.54c-.55.43-.55.43-5.62.71a2.27,2.27,0,0,0-.15,1c2.39.71,2.39.71,5.77.71a3.87,3.87,0,0,0-.13,1.13l-6.48.41Zm2.95,14.37V355a94.08,94.08,0,0,0,10.14.71c1.13-.84,1.83-1,3.8.56a4.92,4.92,0,0,0,.14,1.42c-.43.14-.56.42-.84.56-.29,4.08-.42,8-.56,12.12a2.74,2.74,0,0,1-2.54,1c-.84-2.26-2-1.56-2.82-1.84a3,3,0,0,1,.15-1.12A19.52,19.52,0,0,1,167,368h.56v-3.67c-8.44,0-8.44,0-8.44.42-.14,4.65-.14,4.65-.57,6.77-.84.14-1.4.27-2,.42,0-2,0-3.8.15-5.5Zm10-7.32c.15-.28.15-.7.29-1-2.53-.14-5.06-.14-7.6-.14-.28,0-.28,0-.28,1.55,7.59,0,7.59,0,7.59-.42Zm.29,2h-7.18a4.28,4.28,0,0,0-.7.84,1.76,1.76,0,0,0-.57.86h9V361Z" transform="translate(-62.67 -128.11)"/><path class="a" d="M195.44,362.46v-.71h5.49v-.56c-.14-7.33-.14-7.33-.43-7.47-1.55,2.12-2.95,4.22-4.37,6.33a19.69,19.69,0,0,0-2.4,2.4,30.44,30.44,0,0,1-5.77,4.36c0-3.52,3.38-5.07,5.5-7.32,1.82-2.68,3.65-5.49,5.48-8.31.42,0,.42,0,.42-1.55-7.6,0-7.6,0-7.6.43-2.39-.15-2.39-.15-3.25-.57v-1c3.66-.28,7.47-.43,11.27-.57a2.71,2.71,0,0,1,1.13-.14c0-2.25.14-4.5.28-6.76,1.83,0,1.83,0,2.68.57v6.06c0,.28,8.73.28,8.73,0,1.41-1.42,5.21-1.7,4.37,1.83-4.09,0-8.17.28-12.12.57,3.24,6,6,8.44,13,12.39a3,3,0,0,0,.15,1.13c-4,2.12-4.93-.14-6.9-1.55-1-.84-2-1.84-3-2.68-1.27-2.12-2.53-4.07-4-6.06-.13-.28-.27-.41-.41-.7,0,2.82,0,5.78.14,8.59H206a2.32,2.32,0,0,1,4.23,1.69l-6.48.84c0,1.83.56,7.31-2.4,7.61q-.21-3.82-.42-7.61l-5.35-.42A2.05,2.05,0,0,1,195.44,362.46Z" transform="translate(-62.67 -128.11)"/><path class="a" d="M261.15,337.32c-1.55-8,.13-17.75-.57-25.64-.69-.28-1.26-.56-1.68-.71a3.23,3.23,0,0,1-.14-1c1.69,0,2.53-.56,4.79,1.12-.28,3-.28,5.77-.43,8.87,2.41.42,11.41,2.11,10.43,7.46h-1.83c-3.52-3.66-5.08-4.08-8.32-5.48-1.4.84-.56,11.83-.56,15.06A5.86,5.86,0,0,0,261.15,337.32Z" transform="translate(-62.67 -128.11)"/><path class="a" d="M273,318c-3.37-3.65-3.37-3.65-3.51-4.5a10.18,10.18,0,0,1,4.63,1.42c.15,1,.3,2,.57,3.09Z" transform="translate(-62.67 -128.11)"/><path class="a" d="M276.78,315.62c-1.41-1.26-2.69-2.67-4.09-3.94,3.38-.42,4.8-.28,5.35,3.94Z" transform="translate(-62.67 -128.11)"/><path class="a" d="M277.89,300.74c-3.1-2.25-3.24-3.66-3.52-5.62,1,0,1.41.28,2.4,1.4,6.05,0,17-11,21.69-15.06h1.13C298.46,285.81,281.84,299.47,277.89,300.74Z" transform="translate(-62.67 -128.11)"/><path class="a" d="M279.16,285.53c-1.27-3-2.53-4.78-4.22-5.63a5.83,5.83,0,0,1-.29-1.55c3,.71,7,1.55,6.34,6.76C280.29,285.26,279.73,285.39,279.16,285.53Z" transform="translate(-62.67 -128.11)"/><path class="a" d="M283.11,270.36a2.49,2.49,0,0,1,.13-1c5.93-4.64,12-9.73,14.37-17-3.94.28-18.72,4.5-17.47-2,5.92,3.94,16.07-3.66,21.7.85a4.44,4.44,0,0,0-.14,1.4,2.12,2.12,0,0,0-1.28.56C296.35,260.36,291.14,267.69,283.11,270.36Z" transform="translate(-62.67 -128.11)"/><path class="a" d="M284.1,247.13c-2.12-1.69-1.82-2.68-1.82-3.8,3.8,1.12,10.55.69,15.48,0a7.5,7.5,0,0,1,2,.84c.15.56.28,1.13.43,1.83A83.23,83.23,0,0,0,284.1,247.13Z" transform="translate(-62.67 -128.11)"/><path class="a" d="M285.58,209.46c-.28-.69-1.83-1.81-1.83-2.38,1.27,0,4.5-.71,4.5,2.68a1.93,1.93,0,0,0-.56.41c0,3.67,0,7.46.15,11.26-.15,7.47.29,9.16,0,12.39a6.77,6.77,0,0,0-1.69.57V209.46Z" transform="translate(-62.67 -128.11)"/><path class="a" d="M229.74,357.95V331.33c3.8,2,13.52-1.27,16.2,1.4-.43,3.81-.43,3.81-.43,22.67-.41.57-.41.57-2,.85a26.54,26.54,0,0,1-.56-2.68H232.42a30.87,30.87,0,0,0-1,4.22,5.76,5.76,0,0,0-1.69.16ZM243,341.46v-6.91c0-.27-10.84-.27-10.84,0-.15,2.4-.15,4.66-.15,6.91Zm-10.84,10.28c3.66-.29,7.18-.42,11-.56-.15-2.55-.15-5.07-.15-7.61-3.66,0-7.31,0-11,.14C232,346.4,232,349.07,232.13,351.75Z" transform="translate(-62.67 -128.11)"/><path class="a" d="M127.7,333.95a8,8,0,0,0-2,.84,5.56,5.56,0,0,0-3-1.84,3.93,3.93,0,0,1-.29-1.25c1.13-.16,2.12-.43,3.24-.57.42,0,.42,0,.42-5.64h-5.78v.44c-.28,0-.28,9.15,0,9.15,2.4,0,5.5.42,8.45-.28a9.09,9.09,0,0,0,1.27.7c0,3-2.11,5.92-3.23,8.73a7.72,7.72,0,0,0,4.92,3.24,7,7,0,0,0-.7,1.82c-3.38,1.13-4.93-2.4-6.34-2.4-1.55,1.84-4.64,4.93-6.89,4.93-.15-3.38-.15-6.62-.15-9.85.28,0,.28,0,.28-2.39-2.1.27-4.37.42-6.33.84h-.84a17.23,17.23,0,0,0-.15,2.81h2.54c.84-1.68,3.38-1.26,3.94,1.56-2.11.27-4.37.42-6.48.84-.14,5.92-.14,5.92-.56,6.62a7.4,7.4,0,0,0-1.83.14c-.15-2.25-.28-4.65-.28-6.76-1.69-.28-3.38-.42-4.93-.57a7.07,7.07,0,0,1,.28-1.68H108v-3c-1.84-.15-3.66-.28-5.36-.28v-1.27a17.27,17.27,0,0,1,2.82-.56,8.11,8.11,0,0,0-1.12-4.65,16.66,16.66,0,0,0-2.54-.27V332c2.11-.14,4.22-.27,6.2-.27V329H103.2a8.77,8.77,0,0,1,.14-2c1.56-.14,3.1-.14,4.65-.14v-4.5a11.57,11.57,0,0,1,3.1.42c-.15,1.26-.28,2.53-.43,3.8,2-.13,2-.13,3.25-1,.84.41,1.68,1,2.53,1.4v1.28c-2,.12-3.8.41-5.78.69a16.61,16.61,0,0,0,.28,2.39c2.4,0,3.38-1.12,6.76,0v-8.17a33,33,0,0,0,10,.15c1,1.12,1.12,8.16,0,10.57ZM113,338.15c1.13-.56,2.13-1.4,4.09-.13.14-1.55.28-3.11.56-4.65-3,.43-3.66,2.11-4.65,4.78Zm-5.06.29a16.9,16.9,0,0,1,2.82-.29c.42-1.4,1-2.94,1.55-4.35-2.4-.71-3.81-.29-5.5-.15,0,1,1.13,2.4,1.13,4.79Zm16.47,3.81h.85c.42-1.84.85-3.67,1.41-5.36l-4.37.42c.28,1.41.28,1.41,2.11,4.94Zm-4.08,6.33c4.79-5.21,2.53-5.21-.14-10.84C120.23,341.4,120.23,345.05,120.38,348.58Z" transform="translate(-62.67 -128.11)"/><path class="a" d="M259.21,196.57a18.92,18.92,0,0,0,.57,2.38c3.52-1,6.05-8.87,6.05-11.82C265.84,187.13,260.2,194.58,259.21,196.57Z" transform="translate(-62.67 -128.11)"/><path class="a" d="M281.75,181.2l-.15-.12h-.28l-1,1c-2.39.15-4.93.28-7.32.42.15-1.83.28-3.52.56-5.21-1.83-1-1.83-1-4.65-1.27v1c.84.7,2.82,3.1,1.55,5.63-3.66-.15-8.73,0-11.13-.7,0,5.91,6.34,2.66,11.26,2.66.14,4.09.29,8,.57,12.12a2.7,2.7,0,0,0-.14,1.13c-.84-.16-.84-.16-5.21-2.55v1.41c1.27,1.13,2.81,1.83,3.94,4.79a9.47,9.47,0,0,1,2.12-.15c2.68-4.07,1.13-13.52,1.13-17.31,3.8,0,7.46,0,11.41.13-.37-2-.74-2.21-1.48-2.71l-.09,0A4.29,4.29,0,0,0,281.75,181.2Z" transform="translate(-62.67 -128.11)"/><path class="a" d="M276.4,187.55a2.58,2.58,0,0,0-.15,1.12c2.12,1.27,4.64,5.63,6.06,9.17a5.26,5.26,0,0,1,1.56-.29C283.44,192.06,280.77,188.67,276.4,187.55Z" transform="translate(-62.67 -128.11)"/><path class="a" d="M286,175.3c-4.18-4.18-9.31,1.7-4.38,5.78a3.63,3.63,0,0,1,1,.12,2.57,2.57,0,0,0,.35.25C286.52,179.65,286,178.36,286,175.3Zm-1.68,2.95c-.58.58-.58.58-2.6.87a3.86,3.86,0,0,1-.58-2.59c1.16-1.16,1.16-1.45,3.46-.28A4.85,4.85,0,0,0,284.3,178.25Z" transform="translate(-62.67 -128.11)"/><path class="a" d="M117.77,178.89l-16.32-20.45,9.79-7.81a5.06,5.06,0,0,1,3.9-1.1,5.15,5.15,0,0,1,3.57,2l4.13,5.17a5.32,5.32,0,0,1-.83,7.44l-7,5.58,5.56,7a1.76,1.76,0,0,1-.28,2.48,1.8,1.8,0,0,1-1.33.4A1.69,1.69,0,0,1,117.77,178.89Zm-5-12,7-5.58a1.72,1.72,0,0,0,.65-1.18,1.68,1.68,0,0,0-.37-1.3l-4.13-5.17a1.67,1.67,0,0,0-1.19-.65,1.7,1.7,0,0,0-1.29.37l-7,5.58Z" transform="translate(-62.67 -128.11)"/><path class="a" d="M141.16,159.49l-2-5.23a1.77,1.77,0,0,1,2.38-2.23,1.69,1.69,0,0,1,.93,1l2,5.27a1.63,1.63,0,0,0,.92,1,1.79,1.79,0,0,0,1.38,0l3.34-1.26a1.79,1.79,0,0,0,1-.93,1.67,1.67,0,0,0,.06-1.36l-7.33-19.49a1.73,1.73,0,0,1,0-1.35,1.65,1.65,0,0,1,1-.91,1.71,1.71,0,0,1,1.38.09,1.83,1.83,0,0,1,1,1l7.3,19.41a5,5,0,0,1-.18,4.11,5.21,5.21,0,0,1-2.93,2.77L148,162.6a5.36,5.36,0,0,1-6.87-3.12Z" transform="translate(-62.67 -128.11)"/><path class="a" d="M173.7,153.62l7-24.19a1.72,1.72,0,0,1,1.78-1.32,1.54,1.54,0,0,1,1.66,1.11l7.16,24.48a1.76,1.76,0,0,1-.41,1.78,1.57,1.57,0,0,1-1.16.52,1.66,1.66,0,0,1-1.77-1.27l-1.42-4.78-8.09,0-1.51,5.14a1.06,1.06,0,0,1-.53.64,1.83,1.83,0,0,1-1,.31,1.72,1.72,0,0,1-1.29-.52,1.79,1.79,0,0,1-.51-1.28A2.33,2.33,0,0,1,173.7,153.62Zm8.78-17.34-3,10.12,6,0Z" transform="translate(-62.67 -128.11)"/><path class="a" d="M212.37,136.36l1.53-4.51,16.87,5.74-1.55,4.55a1.78,1.78,0,0,1-2.24,1.1,1.77,1.77,0,0,1-1-.91,1.7,1.7,0,0,1-.11-1.35l.41-1.21-3.38-1.15L215.59,160a1.68,1.68,0,0,1-.9,1,1.73,1.73,0,0,1-1.34.09,1.77,1.77,0,0,1-1-.9,1.69,1.69,0,0,1-.1-1.35l7.28-21.38-3.38-1.15-.4,1.17a1.7,1.7,0,0,1-.89,1,1.77,1.77,0,0,1-2.37-.81A1.7,1.7,0,0,1,212.37,136.36Z" transform="translate(-62.67 -128.11)"/><path class="a" d="M233.23,168.14l14.58-19.51a1.77,1.77,0,0,1,1.18-.72,1.68,1.68,0,0,1,1.32.33,1.76,1.76,0,0,1,.36,2.47l-5,6.69,14.83-1a2,2,0,0,1,1.34.42,1.64,1.64,0,0,1,.67,1.17,1.79,1.79,0,0,1-.34,1.3A1.55,1.55,0,0,1,261,160L244.21,161l3.64,16.55a1.4,1.4,0,0,1-.26,1.22,1.84,1.84,0,0,1-1.17.7,1.64,1.64,0,0,1-1.36-.31,1.91,1.91,0,0,1-.74-1.15l-3.22-14.51-5,6.74a1.77,1.77,0,0,1-2.83-2.11Z" transform="translate(-62.67 -128.11)"/><path class="b" d="M182.52,172.93a77.63,77.63,0,1,0,77.7,77.56C260.22,207.84,225.31,172.93,182.52,172.93Z" transform="translate(-62.67 -128.11)"/><path class="c" d="M182.59,184.68a65.79,65.79,0,0,0-65.79,65.79H248.38A65.79,65.79,0,0,0,182.59,184.68Z" transform="translate(-62.67 -128.11)"/></svg>