<svg xmlns="http://www.w3.org/2000/svg" viewBox="0 0 874.74 226.67"><defs><style>.a{fill:#00a1b0;}.a,.b,.c,.e{fill-rule:evenodd;}.b{fill:#ee3e33;}.c,.d{fill:none;stroke:#ee3e33;stroke-miterlimit:10;stroke-width:1.25px;}.e{fill:#fff;}</style></defs><title>radiogdansk</title><path class="a" d="M76.08,136.66H923.76c7.43,0,13.6,10.12,13.6,22.62V340.56c0,12.5-6.17,22.78-13.6,22.78H76.08c-7.43,0-13.45-10.28-13.45-22.78V159.28C62.63,146.79,68.64,136.66,76.08,136.66Z" transform="translate(-62.63 -136.66)"/><path class="b" d="M890.55,322.53c-65.64-21.67-120.06-34.17-174.79-32.27-68.18,2.37-150.11,27-214.81,25.94-66.59-1.27-90.48-16-100.29-25l-1.11.79s13.76,38.28,74.66,45.71c61.37,7.43,143.63-14.39,235.85-23.57,70.86-7.12,110.25,1.42,179.85,10.12Z" transform="translate(-62.63 -136.66)"/><path class="c" d="M399.56,292s13.76,38.28,74.66,45.71c61.37,7.43,143.63-14.39,235.85-23.57,70.86-7.12,110.25,1.42,179.85,10.12" transform="translate(-62.63 -136.66)"/><path class="c" d="M890.55,322.53c-65.64-21.67-120.06-34.17-174.79-32.27-68.18,2.37-150.11,27-214.81,25.94-66.59-1.27-90.48-16-100.29-25" transform="translate(-62.63 -136.66)"/><line class="d" x1="338.03" y1="154.54" x2="336.92" y2="155.33"/><line class="d" x1="827.28" y1="187.6" x2="827.91" y2="185.86"/><path class="e" d="M191.07,261c-6-1.11-7.43-8.54-12-19.3-4.43-10.44-7.91-17.24-14.08-20.25,13.29-2.69,20.88-10.44,20.88-19.93,0-12.34-10.76-21.51-28.79-22.46v5.22c7.12,2.53,12,9.49,12,17.87,0,7.91-4.75,13.92-12,16.29V232.2c4.11,6.49,8.23,16.93,13,31.16,3.48-.16,6.64-.32,10.12-.32,3.32,0,7,.16,10.44.32Zm-34-81.94h-3c-14.08,0-25.15,3.8-34,10l1.11,1.74a59.6,59.6,0,0,1,13.92-5.06l-13.29,60.42c-2.21,9.81-4.75,14.39-11.39,14.87l-.79,2.37c6.49-.16,12.5-.32,18.51-.32,5.69,0,11.55.16,16.93.32l.32-2.37c-5.22-1.11-7.43-3.64-7.43-8.54a43,43,0,0,1,1.27-7.28l4.59-21.2c.47,0,1.11-.16,1.42-.16,4.43,0,8.23,2.85,11.86,8.38V218.44a21.92,21.92,0,0,1-7.28,1.11,24.14,24.14,0,0,1-4.75-.47l7.59-35.75a20,20,0,0,1,4.43.95Z" transform="translate(-62.63 -136.66)"/><path class="e" d="M253.71,209.58H249.6c-10.44,0-19,.47-25.63,2.06v5.85a16.83,16.83,0,0,1,9.17-2.69,28.12,28.12,0,0,1,4.59.47l-6.8,31.16a24.92,24.92,0,0,1-7,7.12v5.38a45.31,45.31,0,0,0,5.06-4.75l-2.37,10.6c8.23-.95,16-1.42,22.78-1.9l.16-2.37c-4.11-.32-5.54-1.9-5.54-5.22a37,37,0,0,1,1.27-7.59ZM224,211.64c-4.11.95-7.59,2.06-10.28,3.8-12.5,7.28-19,18.67-19,31.79,0,10.91,6.17,17.72,15,17.72,4.75,0,9.33-2.06,14.24-6v-5.38a13,13,0,0,1-6,1.74c-4.9,0-7.91-3.8-7.91-10.6,0-11.86,5.85-22.46,13.92-27.21Z" transform="translate(-62.63 -136.66)"/><path class="e" d="M324.42,178.58c-7.75,1.27-15.82,2.37-23.89,3.48l-.47,2.21c4.75.79,6.49,2.37,6.49,6.17a26.88,26.88,0,0,1-.95,6.33l-2.69,12.81h-.79A55.58,55.58,0,0,0,288,211.17V217a21.37,21.37,0,0,1,10.44-2.69,23.36,23.36,0,0,1,3.32.16l-7.43,33.85A25.71,25.71,0,0,1,288,254v5.54a46.36,46.36,0,0,0,5.06-4.75l-2.37,10.12a191.78,191.78,0,0,1,22.3-1.58l.47-2.37c-3.8-.79-5.69-2.69-5.69-6a15.1,15.1,0,0,1,.47-3.32ZM288,211.17a37.44,37.44,0,0,0-14.24,7c-9.65,7.59-15.34,18.67-15.34,29.58,0,10.76,6.17,17.24,15.66,17.24,4.9,0,9.49-1.74,13.92-5.38V254a13,13,0,0,1-6,1.74c-5.06,0-7.75-3.64-7.75-10.6,0-13.13,5.54-23.41,13.76-28.16Z" transform="translate(-62.63 -136.66)"/><path class="e" d="M356.37,189A7.68,7.68,0,1,0,341,189a7.68,7.68,0,1,0,15.34,0Zm-2.69,20.56a186.17,186.17,0,0,1-24.52,3.32l-.63,2.37c4.59.63,6.49,2.37,6.49,6.49a31.37,31.37,0,0,1-.79,6.17L329,252.14c-1.27,5.38-3.64,8.07-9.17,8.86l-.63,2.37c4.75-.16,9.81-.32,14.87-.32,5.22,0,10.6.16,16,.32l.47-2.37c-4.43-.63-6.49-2.37-6.49-5.85a16.34,16.34,0,0,1,.47-3.48Z" transform="translate(-62.63 -136.66)"/><path class="e" d="M413.16,226.83c0-10.91-6.49-17.24-17.4-17.24a44.92,44.92,0,0,0-10.44,1.27v5.54a9.54,9.54,0,0,1,5.38-2.06c4.75,0,7,3.64,7,11.07,0,7-2.06,14.71-5.54,23.73a26.25,26.25,0,0,1-5.06,7.91,12.07,12.07,0,0,1-1.74,1.27v5.22c9.17-3,17.87-10,23.57-20.09A34.17,34.17,0,0,0,413.16,226.83Zm-27.84-16a34.65,34.65,0,0,0-14.87,9c-8.54,8.38-13,18.51-13,27.84,0,10.91,6.49,17.24,18.19,17.24a34,34,0,0,0,9.65-1.42V258.3a7.92,7.92,0,0,1-4.59,1.74c-4.59,0-7.59-3.64-7.59-10.28,0-11.23,3.8-22.78,9-30.05a21.14,21.14,0,0,1,3.16-3.32Z" transform="translate(-62.63 -136.66)"/><path class="e" d="M869,212.91c8.7-8.54,13.6-10.12,20.88-10.44l.63-3.48c-6,.63-22.46,1.27-27.68,1.11l-.63,3.16,1.27.16c3.16.32,3.8,3,2.53,4.75-2.21,2.69-18.82,20.25-18.82,20.25l14.08-64.54c-9.17,1.42-18.35,2.85-27.68,4l-.95,2.69c5.38.63,7.75,2.85,7.75,7.43a36.73,36.73,0,0,1-.95,7.12l-14.24,64.7c-1.42,6.17-4,9-10.76,10.28l-.63,2.69q8.54-.47,17.08-.47c5.54,0,11.23.16,16.93.47l.63-2.69c-4.59-1.11-6.49-3.32-6.49-7.12a11,11,0,0,1,.63-3.64l3.48-16.61,15.34,30.05c4-.16,7.75-.47,11.55-.47,4,0,7.59.32,10.91.47l.79-2.69c-4.59-.16-7.75-3-10.91-8.7l-15-27.37Z" transform="translate(-62.63 -136.66)"/><path class="e" d="M616.74,163.87c-9.17,1.42-18.51,2.69-28,4l-.63,2.69c5.54.79,7.59,2.69,7.59,7.12a36.45,36.45,0,0,1-.95,7.43l-3.16,14.87h-1.11a64.89,64.89,0,0,0-16.29,1.9v6.8a24.52,24.52,0,0,1,12.18-3.16,28.34,28.34,0,0,1,3.8.32l-8.7,39.39a27.74,27.74,0,0,1-7.28,6.64v6.49a61.55,61.55,0,0,0,5.85-5.54l-2.85,11.71c9.33-.95,18.19-1.58,26.1-1.74l.63-2.69c-4.59-1.11-6.64-3.32-6.64-7.12a17.64,17.64,0,0,1,.47-3.64Zm-42.55,38a44.65,44.65,0,0,0-16.77,8.07c-11.23,9-17.72,21.83-17.72,34.64,0,12.5,7.28,20.09,18.35,20.09,5.54,0,10.91-2.06,16.13-6.33v-6.49a13.5,13.5,0,0,1-7,2.06c-6,0-9-4-9-12.34,0-15.34,6.33-27.37,16-32.9Z" transform="translate(-62.63 -136.66)"/><path class="e" d="M683,199.94h-4.9c-12,0-22,.63-29.9,2.37v6.8a21.62,21.62,0,0,1,10.76-3,35.42,35.42,0,0,1,5.38.47L656.44,243a23.88,23.88,0,0,1-8.23,8.23v6.49a63.78,63.78,0,0,0,6-5.54l-2.69,12.18c9.49-.95,18.51-1.58,26.42-2.21l.16-2.69c-4.59-.47-6.33-2.06-6.33-6.17a40,40,0,0,1,1.42-8.7Zm-34.8,2.37a41.34,41.34,0,0,0-11.86,4.43c-14.55,8.54-22.3,21.83-22.3,37.17,0,12.65,7.28,20.56,17.72,20.56,5.38,0,10.76-2.21,16.45-6.8v-6.49a12.71,12.71,0,0,1-7,2.06c-5.69,0-9.17-4.11-9.17-12.18,0-13.92,6.8-26.42,16.13-32Z" transform="translate(-62.63 -136.66)"/><path class="e" d="M539.55,217.49c-6.64.16-13,.16-19.61.16-6.33,0-12.65,0-19-.16l-.79,2.85c6.17.79,8.7,2.85,8.7,7.75a31.46,31.46,0,0,1-.95,5.38l-2.85,14.08c-1.74,7.91-5.85,11.71-13.29,11.71-15.19,0-26.57-13.29-26.57-35.43,0-32.59,17.4-54.26,38.75-54.26,14.08,0,24,8.23,25,20.25h3L537.17,165h-2.69c-1.42,2.37-3.8,3.32-7.12,3.32-5.38,0-14.39-4.11-27-4.11-15.82,0-29.9,6.17-40,17.24-10.44,11.71-16,26.1-16,40.49,0,26.1,18,43,45.56,43a87.47,87.47,0,0,0,31.79-6.33l5.22-23.41c1.9-9.17,2.69-13.6,12-14.87Z" transform="translate(-62.63 -136.66)"/><path class="e" d="M819.84,198.83h-2.69a6.59,6.59,0,0,1-4.75,2.21c-4.43,0-9.17-1.27-13.92-1.27-12.34,0-20.09,6.64-20.09,16.29,0,8.07,4.9,13.13,10.28,20.09,3.8,4.9,7.28,8.54,7.28,13.92,0,6-4.11,10.12-10,10.12-7.12,0-12.65-5.69-13.13-15.5h-3l-4.11,19h2.69c1.27-1.11,2.37-1.9,3.48-1.9,3,0,7.75,2.85,14.55,2.85,15.34,0,26.26-9.17,26.26-20.25,0-7.12-3.64-11.55-8.23-17.4-5.06-6.33-9.33-10.28-9.33-14.55,0-4.43,3.32-7.43,8.23-7.43,6,0,10.28,4,10.28,9.81h2.85Z" transform="translate(-62.63 -136.66)"/><path class="e" d="M753.56,177a5.11,5.11,0,0,0-5.38-5.22c-2.06,0-4.59,1.58-7.59,4.27l-18.35,16.29h5.85L748.5,183c3.64-1.58,5.06-3.64,5.06-6ZM760,217c0-11.07-6.17-17.08-16.93-17.08-8.54,0-16.13,3.8-23.09,11.39l2.69-11.39c-9.17,1.42-18.51,2.85-27.84,4l-.79,2.69c5.38.63,7.59,2.85,7.59,7.43a39.44,39.44,0,0,1-.95,7.43l-6.33,28.31c-1.27,6.17-4,9-10.76,10.28l-.47,2.69c5.69-.16,11.39-.47,16.93-.47,5.85,0,11.39.32,17.08.47l.63-2.69c-4.43-1.11-6.49-3-6.49-7a20.41,20.41,0,0,1,.47-3.8l5.38-24.52c2.06-9.33,9.33-15.34,16.13-15.34,5.69,0,8.86,3.64,8.86,10.12a33.4,33.4,0,0,1-.47,5.06l-5.54,25.15c-1.42,6.17-4,9-10.76,10.28l-.47,2.69c5.69-.16,11.39-.47,16.93-.47,5.69,0,11.23.32,17.08.47l.63-2.69c-4.59-1.11-6.64-3.32-6.64-7.12a11,11,0,0,1,.63-3.64l5.54-24A43.69,43.69,0,0,0,760,217Z" transform="translate(-62.63 -136.66)"/></svg>