<svg xmlns="http://www.w3.org/2000/svg" viewBox="0 0 297.9 106.4"><defs><style>.a{isolation:isolate;}.b{fill:#3f77bc;}.c{fill:#57c1e9;}.d{fill:#f37327;}</style></defs><title>trojmiasto</title><g class="a"><path class="b" d="M157.36,81.17h8.93v-7.7h-8.93Zm0,38.79c0,3.85-.33,5.63-3.52,5.63a4.59,4.59,0,0,1-1.44-.15V132c1.33.07,2.63.15,3.67.15,8,0,10.23-3.23,10.23-9.08V85.5h-8.93ZM101.26,75.43h-9V85.5H87.77v6.11h4.52v20.11c0,7.11,1.3,9.26,8.31,9.26a50,50,0,0,0,5.86-.4v-6.26a16.7,16.7,0,0,1-2,.15c-2.6,0-3.19-1.11-3.19-3.85v-19h5.19V85.5h-5.19Zm27.32,9.3a12.41,12.41,0,0,0-1.63-.15c-3.67,0-6.23,2.22-8,5.63h-.11V85.5h-8.56v35.08h8.93V99.51c0-4.7,3.52-6.34,6.64-6.34.89,0,1.89.08,2.78.11Zm75.86-.15c-4.23,0-7.49,1.89-8.82,5.63h-.15c-1-3.59-4-5.63-8-5.63a9.87,9.87,0,0,0-8.82,4.52h-.15V85.5h-8.56v35.08h9V97.47c0-4,1.82-6,4.67-6,2.52,0,3.48,1.59,3.48,4.52v24.56h9V97.47c0-4,1.82-6,4.67-6,2.52,0,3.52,1.59,3.52,4.52v24.56h8.9V95.06C213.08,88.32,210.34,84.58,204.44,84.58Zm-62.62,0c-10.23,0-13.75,6.48-13.75,18.45,0,12.22,3,18.71,13.75,18.48,10.27,0,13.79-6.48,13.79-18.48C155.61,90.84,152.61,84.39,141.82,84.58Zm0,30.78c-4.41,0-4.78-5.15-4.78-12.34s.37-12.3,4.78-12.3c3.63,0,4.82,3.56,4.82,12.3S145.46,115.36,141.82,115.36Zm133.54-14.93L270,98.58c-3-1-3.89-2.41-3.89-4.11,0-2.44,1.93-3.74,4.19-3.74,2.93,0,4,1.74,4,5.26h8V94.54c0-6.3-3.82-10-11.94-10-9.2,0-12.83,4.78-12.83,10.56,0,5,2.52,8,7.45,9.78l6.3,2.3c1.74.67,3.23,1.71,3.23,4,0,2.81-1.82,4.19-4.52,4.19-3.08,0-4.67-2-4.67-5.08V109.1h-8.08v1.26c0,6.7,2.82,11.15,12.86,11.15,7.53,0,13-3.67,13-11C283.08,105.17,281,102.32,275.36,100.43Zm21.65-25h-8.93V85.5h-4.56v6.11h4.56v20.11c0,7.11,1.3,9.26,8.3,9.26a50.54,50.54,0,0,0,5.86-.4v-6.26a17.31,17.31,0,0,1-2,.15c-2.6,0-3.19-1.11-3.19-3.85v-19h5.23V85.5H297Zm19.87,9.15c-10.27,0-13.76,6.48-13.76,18.45,0,12.22,3,18.71,13.76,18.48,10.23,0,13.75-6.48,13.75-18.48C330.64,90.84,327.64,84.39,316.89,84.58Zm0,30.78c-4.41,0-4.82-5.15-4.82-12.34s.41-12.3,4.82-12.3c3.63,0,4.78,3.56,4.78,12.3S320.52,115.36,316.89,115.36ZM216.82,81.17h8.94v-7.7h-8.94Zm37.26,14.15c0-6.3-2-10.74-12.64-10.74-6.75,0-12.27,2.74-12.27,10.82v.85h8v-1c0-2.71,1.41-4.52,4.15-4.52,3,0,4.15,1.63,4.15,4.26,0,2.37-.89,3.41-3.56,4.11l-5.08,1.37c-6.15,1.71-8.82,4.37-8.82,11,0,4.7,2.23,10.08,8.45,10.08,4.26,0,6.82-.92,8.9-4.56h.11a14.68,14.68,0,0,0,1.11,3.63h8.56c-.93-2-1.11-3.52-1.11-6.78ZM245.52,110a5.29,5.29,0,0,1-5.52,5.41c-2.41,0-3.37-2.22-3.37-4.89,0-3.15,1.45-4.89,5.08-5.67a10.66,10.66,0,0,0,3.82-1.78Zm-28.7,10.63h8.94V85.5h-8.94ZM257.24,85.5C247.52,52,225.05,47.72,208.56,51.2c-11.49,2.41-23.62-24.89-44.38-25.49-9.08-.26-19.84,4-32.89,19.15,22.62-14.08,39.67-10.23,49.64,2.74l17.94,23.3C222.53,59.2,237.77,55.17,257.24,85.5Z" transform="translate(-87.77 -25.71)"/><path class="c" d="M376.73,74v46.6h8.93V74ZM364.16,84.58c-3.52,0-6,1.37-7.93,4.63h-.11V85.5h-8.56v46.6h8.94V117.32h.15a8.37,8.37,0,0,0,7.53,4.19c7.34,0,10.72-5.41,10.72-18.48S371.5,84.58,364.16,84.58Zm-2.93,30c-4,0-4.75-3.93-4.75-11.56s.78-11.52,4.75-11.52,4.67,3.89,4.67,11.52S365.12,114.58,361.23,114.58Z" transform="translate(-87.77 -25.71)"/><path class="d" d="M338.54,106.39A7.43,7.43,0,1,0,346,113.8,7.44,7.44,0,0,0,338.54,106.39Z" transform="translate(-87.77 -25.71)"/></g></svg>