<?xml version="1.0" encoding="utf-8"?>
<!-- Generator: Adobe Illustrator 22.1.0, SVG Export Plug-In . SVG Version: 6.00 Build 0)  -->
<svg version="1.1" id="Layer_1" xmlns="http://www.w3.org/2000/svg" xmlns:xlink="http://www.w3.org/1999/xlink" x="0px" y="0px"
	 viewBox="0 0 202 140.6" style="enable-background:new 0 0 202 140.6;" xml:space="preserve">
<style type="text/css">
	.st0{fill:#FFFFFF;}
	.st1{fill:#018CAB;}
</style>
<path class="st0" d="M131.3,7.5c0.3,0,0.7,0,1,0C132,7.5,131.6,7.5,131.3,7.5z"/>
<path class="st1" d="M141.7,99.4c-2.5,0-5-0.4-7.4,0c-1.2,0.2-2.8,1.8-3.1,3c-0.3,1.2,0.8,2.8,1.6,4c0.7,1,2.1,1.6,2.9,2.6
	c0.7,0.9,1.3,2.3,1.1,3.3c-0.1,0.7-1.9,1.4-2.8,1.3c-1-0.1-2.1-1-2.8-1.8c-1.7-1.8-3.4-3.7-4.8-5.7c-1.1-1.6-2.4-3.5-2.4-5.3
	c0-14.3,0.3-28.6,0.7-42.8c0-1.4,1.8-2.7,2.8-4c1,1.2,2.7,2.4,2.8,3.7c0.2,9.5,0,18.9-0.1,28.4c0,8,0.2,8.2,8.1,8.5
	c3.5,0.1,4.3,1.9,3.4,5L141.7,99.4z"/>
<path class="st1" d="M92.3,71.7c-0.7,7.2-1.4,13.1,5.2,16.5c0.2,0.1-0.6,3-1,3c-4.3,0.3-8.7,0.5-13,0.2c-2.3-0.2-3.2-2-0.9-3.7
	c6.4-4.8,7.1-14.9,2.1-20.9c-0.6-0.7-1.6-2-1.9-1.9c-5.5,2-7.9-2.7-11.1-5.2c-1.2-0.9-1.2-3.5-1.3-5.4c0-0.4,2.4-0.8,3.7-1.2
	c0.3-0.1,0.7,0.3,1,0.2c7.9-2.7,11.5,4,15.4,8.2C92.7,63.9,92,69,92.3,71.7z"/>
<path class="st1" d="M175.8,90.1c0-1.3-0.1-2.7,0-4c0.3-2.5-0.4-5.7,3.7-5.7c3.8,0,6.3,1.9,6.8,5.7c0.3,2.1,0.1,4.3,0.1,6.4
	c0.1,4.9-3.2,6.2-7.2,6.2c-4.7,0-3-3.7-3.4-6.2C175.8,91.8,175.9,91,175.8,90.1C175.9,90.1,175.9,90.1,175.8,90.1z"/>
<path class="st1" d="M186.7,21.9c-0.3,2.1,0.1,5.1-1.1,6.1c-1.9,1.6-4.9,2-7.6,2.3c-0.6,0.1-1.8-2.7-2-4.2c-0.4-2.6-0.6-5.3-0.1-7.9
	c0.4-1.9,1.9-3.6,2.9-5.4c2.5,1.7,5.2,3.3,7.4,5.3c0.7,0.6,0.1,2.5,0.1,3.9C186.5,21.9,186.6,21.9,186.7,21.9z"/>
<path class="st1" d="M201.6,21.7c-2.1,3.3-4.2,6.5-6.2,9.8c-0.8,1.2-1.2,2.7-2.2,3.6c-1.2,1.1-2.7,1.9-4.2,2.6
	c-0.3,0.1-1.6-1.2-1.6-1.3c0.7-1.1,1.3-2.4,2.4-3.2c2.9-2,4.7-4.4,4.3-8.2c-0.3-2.1-0.3-4.3,0-6.4c0.3-2,1.2-3.9,1.8-5.9
	c1.5,2.1,3,4.1,4.3,6.2c0.3,0.5,0,1.3,0,2C200.7,21.2,201.2,21.5,201.6,21.7z"/>
<path class="st1" d="M194,89.6c0-1.3-0.2-2.7,0-4c0.3-1.7,0.8-3.3,1.2-4.9c1.4,1.2,3.8,2.4,3.9,3.7c0.2,4.2-0.4,8.5-1,12.7
	c-0.1,0.7-1.7,1.1-2.7,1.7c-0.5-0.9-1.4-1.8-1.5-2.8C193.8,94,194,91.8,194,89.6C194,89.6,194,89.6,194,89.6z"/>
<path class="st1" d="M24.1,111.3c-0.1,4.8-4.1,9.6-7.4,9.5c-1.2,0-2.6-2-3.5-3.4c-0.4-0.6,0.2-2.1,0.8-2.9c1-1.4,2.1-2.8,3.4-4
	c0.9-0.9,2.5-2.5,3-2.2C22,109.1,23.3,110.6,24.1,111.3z"/>
<path class="st1" d="M89.7,106.3c-2,0-4,0.2-6-0.1c-0.8-0.1-1.9-1-2-1.6c-0.1-0.7,0.7-2.3,1.1-2.3c4.3-0.1,8.7-0.1,13,0.2
	c0.8,0.1,1.6,1.3,2.4,2c-1,0.6-1.9,1.6-3,1.8C93.4,106.5,91.5,106.3,89.7,106.3z"/>
<path class="st1" d="M161.8,21.6c0.9-2.7,1.7-5.3,2.6-8c0.8,2.7,1.6,5.4,2.3,8.2c0.4,1.7,0.8,3.5,0.7,5.3c0,1.1-0.9,2.1-1.4,3.2
	c-1.1-0.7-2.9-1.2-3.1-2c-0.5-2-0.1-4.3-0.1-6.4C162.4,21.7,162.1,21.6,161.8,21.6z"/>
<path class="st1" d="M180.9,47.4c-2.2-2.4-4.4-3.6-4.6-5.2c-0.6-3.3,1.9-3.9,4.8-3.9c2.8,0.1,5.5,0.6,5.1,3.8
	C186,43.8,183.4,45.1,180.9,47.4z"/>
<path class="st1" d="M167.8,90.5c-1.2,2.6-2.3,5.1-3.5,7.7c-0.6-2.7-1.3-5.4-1.7-8.1c-0.3-2.1-0.2-4.3,0.1-6.4
	c0.1-0.9,1.2-1.7,1.8-2.5c0.7,0.8,1.8,1.6,1.9,2.5c0.4,2.1,0.3,4.3,0.4,6.4C167.2,90.3,167.5,90.4,167.8,90.5z"/>
<path class="st1" d="M11.6,107.2c-2.5-0.8-4-1.2-5.5-1.7c0.4-1.2,0.5-2.8,1.3-3.4c1-0.7,2.6-0.6,3.9-0.9c0.1,0,0.3,0.2,0.5,0.2
	c2.2-0.2,5.6-2.2,5.1,2.2C16.7,105,13.3,106.1,11.6,107.2z"/>
<path class="st1" d="M186.8,72.2c-2.7,0-5.3,0.3-8,0c-1-0.1-2.2-1.3-2.5-2.3c-0.2-0.5,1.1-1.7,1.9-2.4c0.8-0.8,1.8-1.7,2.8-1.8
	c5.2-0.6,5.4,3.1,5.7,6.7L186.8,72.2z"/>
<path class="st1" d="M179.1,52.3c2.4,1.1,4.2,1.9,5.9,2.7c-2.1,1.7-4.2,3.3-6.3,5c-0.8-1.5-2.2-2.9-2.3-4.5
	C176.2,54.6,178,53.5,179.1,52.3z"/>
<path class="st1" d="M174.5,120.9c2,1.1,3.5,1.9,5,2.8c-1.8,0.7-3.5,1.8-5.4,1.9c-1.4,0.1-2.9-1.1-4.4-1.7
	C171.3,122.9,172.7,122,174.5,120.9z"/>
<path class="st1" d="M186.9,4.4c-2.9-0.2-5.9-0.3-8.8-0.6c-1-0.1-1.8-0.9-2.8-1.4c0.9-0.7,2-2.1,2.7-1.9c3.2,0.7,8.6-3.1,8.7,4.1
	L186.9,4.4z"/>
<path class="st1" d="M186.7,4.5c1.4,0.8,2.9,1.4,4.1,2.5c1,0.8,1.5,2.1,2.3,3.2c-0.9,0.4-2,1.2-2.5,1c-1.3-0.6-2.6-1.6-3.3-2.8
	c-0.6-1-0.3-2.6-0.4-3.9C186.9,4.4,186.7,4.5,186.7,4.5z"/>
<path class="st1" d="M186.7,72.4c1.5,1.1,3.1,2.2,4.5,3.4c0.9,0.8,1.4,1.9,2,2.9c-0.7,0.3-1.5,1.1-2.1,0.9c-1.3-0.4-3-1-3.5-2
	c-0.8-1.6-0.6-3.5-0.9-5.3C186.8,72.2,186.7,72.4,186.7,72.4z"/>
<path class="st1" d="M193.8,52.4c-2.9,0.3-5.8,0.3-6.4-3.5c-0.1-0.8,0.4-1.7,0.7-2.6c0.8,0.3,2,0.4,2.4,1c1.2,1.6,2.1,3.5,3.1,5.2
	L193.8,52.4z"/>
<path class="st1" d="M193.7,52.5c1.2,0.4,3.2,0.4,3.6,1.2c0.6,1.2,0.3,3,0,4.5c-0.1,0.5-1.2,0.9-1.8,1.3c-0.5-1.2-1.2-2.4-1.5-3.6
	c-0.3-1.1-0.1-2.3-0.1-3.4C193.8,52.4,193.7,52.5,193.7,52.5z"/>
<path class="st1" d="M165,60.3c-1.1-2-2.1-2.9-2.1-3.9c0-1,1-2,1.6-2.9c1.2,1,2.7,1.8,3.3,3C168.2,56.9,166.5,58.4,165,60.3z"/>
<path class="st1" d="M171.6,72.9c0.9,2,1.9,3.2,1.8,4.3c-0.1,1-1.4,1.8-2.2,2.7c-0.6-0.8-1.9-1.6-1.8-2.3
	C169.6,76.2,170.5,75,171.6,72.9z"/>
<path class="st1" d="M173.7,6.5c0,0.7,0.3,1.4,0,1.9c-0.5,1.1-1.3,2.1-2.2,2.9c-0.2,0.2-1.9-0.5-1.9-0.9c0-1.2,0-2.8,0.7-3.6
	c0.6-0.8,2.2-0.9,3.3-1.3c0,0,0.1,0.3,0.1,0.3c0,0,0,0.3,0,0.3S173.7,6.5,173.7,6.5z"/>
<path class="st1" d="M194.7,62.5c-2.9,1.1-4.3,1.8-5.7,2c-0.5,0.1-1.2-1.1-1.7-1.7c1.1-0.7,2.1-1.7,3.3-2
	C191.3,60.6,192.3,61.5,194.7,62.5z"/>
<path class="st1" d="M171.9,38.7c-1.2-1.7-2.2-2.5-2.2-3.3c0-1.2,0.7-2.3,1.2-3.5c0.9,1,2.1,1.9,2.6,3.1
	C173.7,35.7,172.7,36.8,171.9,38.7z"/>
<path class="st1" d="M175.2,51.5c-1.4,0.4-2.8,0.9-4.1,1c-0.5,0-1.7-1.3-1.5-1.8c0.4-1.4,1.2-2.7,1.9-4.1c0.7,0.8,1.5,1.7,2.2,2.5
	C174.2,49.9,174.7,50.7,175.2,51.5z"/>
<path class="st1" d="M175,62.2c-2.1,1.3-3.1,2.3-3.6,2.1c-0.8-0.4-1.3-1.5-1.9-2.4c0.7-0.4,1.5-1.3,2.2-1.2
	C172.6,60.7,173.5,61.5,175,62.2z"/>
<path d="M141.6,99.5c0.3,0.2,0.6,0.5,0.9,0.7c-0.1,0-0.3,0-0.3-0.1c-0.2-0.2-0.3-0.5-0.4-0.7C141.7,99.4,141.6,99.5,141.6,99.5z"/>
<path d="M4.1,107.6c0,0-0.1-0.1-0.1-0.1C4,107.6,4.1,107.6,4.1,107.6z"/>
<g>
	<path class="st1" d="M4,107.6C4,107.6,4,107.6,4,107.6C4,107.6,4.1,107.6,4,107.6L4,107.6z"/>
	<path class="st1" d="M197.3,115.7c-3.9-2.9-5.1-6-4.4-10.7c0.2-1-1.5-2.8-2.7-3.4c-0.6-0.3-2.2,1.1-3.2,1.9
		c-1.5,1.1-2.9,2.6-4.5,3.2c-3.8,1.3-6.6-0.4-8.7-3.8c-0.5-0.8-3.3-1.4-3.8-0.9c-2.4,2.3-4.6,4.9-6.2,7.7c-1,1.8-1.1,4.3-1.2,6.5
		c0,0.7,1.6,2.1,1.6,2c1.6-1.1,3-2.6,4.7-3.6c1.4-0.9,3.1-2.1,4.4-1.9c6,1,12.5-0.3,17.5,5.4c2.6,2.9,3.9,5.5,2.6,8.7
		c-0.6,1.3-3.6,1.6-5.6,2.3c-2.1,0.8-5,0.8-6.3,2.3c-3.8,3.9-9.1,4-13.3,0c-1-1-4.9-0.9-5.1-0.5c-1.1,3.3-3.5,4.7-6,3.2
		c-1.5-0.8-2.1-4.1-2.2-6.3c-0.1-3.2-0.4-5.6-3.8-7.1c-1.4-0.6-2.4-3.1-2.6-4.9c-0.3-3.1,0.4-6.3,0-9.4c-0.2-1.7-1.8-3.3-2.7-5
		c-0.5,1.6-1.5,3.2-1.4,4.7c0.2,9.1,1.1,18.3-6.9,25c-1.4,1.1-3.4,1.8-5.1,1.9c-0.6,0-1.5-2.4-1.9-3.8c-0.6-2.3,0-5.5-1.3-7
		c-4.1-4.8-9-9.1-13.4-13.6c-1.3-1.3-2-3.3-3.4-4.6c-1-1-2.7-1.9-4-1.8c-0.9,0-2.2,1.7-2.4,2.9c-0.7,3.8,0.6,6.4,4.4,8.3
		c1.7,0.9,2.2,4.5,2.6,6.9c0.1,0.5-3.2,2.2-4.6,1.9c-1.2-0.3-1.9-2.7-3-4.1c-0.9-1.2-1.8-2.5-3.1-3.1c-0.6-0.3-2.7,0.9-2.9,1.6
		c-0.9,5-4.4,5.1-8.3,5c-3.7-0.1-7.4,0.5-11-0.1c-2.2-0.4-4.2-2.3-6.2-3.7c-1.2-0.8-2.2-1.9-3.2-2.9c-1,1.1-2.8,2.2-3,3.5
		c-0.5,2.7-1.4,4.8-4.3,3.9c-1.6-0.5-3.2-2.4-3.7-4c-0.7-2.4,0.1-4.5,3.3-4.9c1.2-0.2,3-1.7,3.2-2.7c0.1-1.2-1-3.2-2.2-3.8
		c-3.4-1.7-3.9-4.5-3.9-7.8c0.2-7,0.5-14,0.1-21c-0.3-5.3,0.3-9.8,4.7-13.2c2.3-1.8,2.3-3.5-0.8-4.6c-3.5-1.2-4.6-3.8-4.2-7.5
		c0.3-2.6,0-5.3,0.3-8c0.5-4.1,2.2-7,7.2-6.9c12.8,0.2,25.7,0.1,38.5-0.1c4.6-0.1,6.7,2,7,6.5c0.5,7.6-1,9.3-8.6,9.1
		c-1.8,0-3.7,0.1-5.5-0.3c-3.6-0.7-4.1,1.1-3.7,3.9c0.5,3.3,6.6,8.2,10,8.1c5.6-0.2,7.4,1.4,7.4,7.2c0,7-0.2,14,0,21
		c0,1.7,1.3,3.3,1.9,4.9c0.8-1.6,1.7-3.1,2.3-4.8c0.3-0.9-0.1-2-0.1-3c-0.1-10.5-0.4-21-0.2-31.5c0-1.9,0.9-4.4,2.3-5.5
		c5.8-4.2,6.3-10.1,0.8-14.6c-4.7-3.9-4.5-9.8,0-13.7c3.8-3.3,7.1-7.2,10.5-10.9c5.1-5.4,9.2-12.4,18.7-10.4c1.8,0.4,4-1.2,6.1-1.9
		c-2-0.6-4.1-1.6-6.1-1.6C103.2,0.2,57.3,0.3,11.5,0.3C9,0.3,6.4-0.1,4,0.5C2.8,0.7,1.2,2.3,0.9,3.6C-0.9,11,5.4,14.2,9.2,18.5
		c5,5.6,9.7,10.3,9.2,19.3c-1,18.8-0.4,37.6-0.3,56.5c0,1.5,1,3.1,1.6,4.6c1.4-1.5,3.1-2.7,4.2-4.4c0.6-1,0.1-2.6,0.1-3.9
		c-0.1-10.7-0.4-21.3-0.3-32c0-1.9,1.4-3.8,2.2-5.8c1.6,0.9,3.5,1.5,4.6,2.8c0.9,1.1,1.1,3.1,0.9,4.7c-1.4,13.2,1.6,26.4-1.9,39.7
		c-1.4,5.3,1,11.9,2.5,17.7c0.4,1.5,3.9,2.5,6.1,2.9c1,0.2,3.5-1.9,3.3-2.6c-0.3-1.6-1.9-2.9-2.8-4.4c-1.2-2.2-3.1-4.4-3.1-6.7
		c-0.3-12.7-0.1-25.3,0-38c0-6.5-0.2-13,0.1-19.5c0.1-1.3,2.2-3,3.7-3.4c0.7-0.2,2.5,1.9,3.2,3.2c0.6,1.1,0.3,2.6,0.3,3.9
		c0,11.5-0.1,23-0.1,34.5c0,7.2-0.1,14.3,0.2,21.5c0.1,1.3,1.9,2.4,2.9,3.6c1.1-1.2,2.6-2.2,3.3-3.6c0.5-1.1,0.1-2.6,0.1-3.9
		c-0.1-20.2-0.3-40.3-0.1-60.5c0-2,1.8-4,2.8-6c1.5,2.1,3,4.2,4.5,6.4c0.1,0.1,0,0.3,0,0.5c0,20.8,0.1,41.6,0.1,62.5
		c0,3,0.1,6.1-4.4,6.4c-0.9,0.1-1.7,2.1-2.6,3.2c-1.2,1.4-2.4,2.8-3.6,4.1c-1,1-2.7,1.8-3,2.9c-1.2,3.9-4.3,4.8-7.4,4.3
		c-1.6-0.3-3.3-2.5-4.3-4.3c-2-3.5-5.2-4.4-6.8-1.2c-2.7,5.3-6.8,5.9-11.9,5.3c-6.4-0.7-8.4-2.6-8.5-9.1c0-4,0.1-8,0.1-11.9
		c-3.7-1.2-3.1,1.5-3.2,3.6c-0.1,9.8,0,19.6-0.1,29.3c8.3,0,16.7,0,25,0c0.3-0.4,0.7-0.4,1,0c37.3,0,74.7,0,112,0
		c0.3-0.4,0.7-0.4,1,0c19.7,0,39.3,0,59,0c0.1-5.6-0.7-11.5,0.6-16.9C200.2,120,199.3,117.1,197.3,115.7z M91.5,15.2
		c0-2.3-0.3-4.7,0.1-6.9c0.3-1.5,1.4-3.5,2.6-4c1.4-0.6,4.3-0.5,5,0.5c1.2,1.6,1.1,4.1,1.4,6.2c0.2,1.1,0,2.3,0,3.4
		c1.6-0.4,3.6-0.2,4.6-1.2c2.2-2.1,3.4-5.2,5.7-7.1c1.6-1.4,4.4-1.9,6.6-1.8c1,0,2.7,2.7,2.5,4c-0.3,2.1-1.5,4.3-2.9,5.8
		c-3.6,3.9-7.1,8-11.4,10.8c-2.7,1.8-6.9,2.2-10.3,2c-1.4-0.1-3.1-3.1-3.8-5.1C91,19.6,91.5,17.3,91.5,15.2
		C91.5,15.2,91.5,15.2,91.5,15.2z M42.6,24.6c-1.2,2.3-6.1,2.6-9.3,3.7c-8.6,1.4-11.1-6.4-16-10c-1.6-1.1-3.3-2.4-4.2-4
		c-1.5-2.7-2.4-5.8-3.3-8.8C9.7,5.2,11,3.8,11.6,3.8c2,0.1,4.6,0.1,5.9,1.3c3,2.8,5.1,6.6,8.2,9.3c1.6,1.3,4.7,1.4,7,1.1
		c0.8-0.1,1.7-2.8,1.8-4.4c0.4-6.6,1.5-8.5,5.8-7c2.2,0.8,4.9,4.3,4.9,6.7C45.4,15.4,44.7,20.6,42.6,24.6z M53,8
		c0.4-1.7,2.8-3.5,4.6-4c3.7-1,6,0.9,6,5c0,0.8-0.3,1.8,0,2.5c0.8,1.9,1.9,3.7,2.8,5.6c2.1-1.8,4.5-3.5,6.4-5.6
		c0.7-0.8,0.3-2.5,0.3-3.9c0-2.1,0.2-3.9,3.2-3.7c2.5,0.2,5.3-0.2,5.5,3.4c0.2,5.3,0.4,10.7-0.2,15.9c-0.1,1.4-2.6,3.4-4.3,3.8
		c-3,0.6-6.3,0.2-9.5,0.2C53.1,27.3,49.3,22.4,53,8z"/>
</g>
<path class="st1" d="M173.8,5.4c0,0.4,0,0.8,0,1.2C173.8,6.2,173.8,5.8,173.8,5.4z"/>
</svg>
